%TF.GenerationSoftware,KiCad,Pcbnew,6.0.0-d3dd2cf0fa~116~ubuntu21.04.1*%
%TF.CreationDate,2022-01-27T12:17:53+00:00*%
%TF.ProjectId,esp-rust-board,6573702d-7275-4737-942d-626f6172642e,0.1a*%
%TF.SameCoordinates,Original*%
%TF.FileFunction,Paste,Top*%
%TF.FilePolarity,Positive*%
%FSLAX46Y46*%
G04 Gerber Fmt 4.6, Leading zero omitted, Abs format (unit mm)*
G04 Created by KiCad (PCBNEW 6.0.0-d3dd2cf0fa~116~ubuntu21.04.1) date 2022-01-27 12:17:53*
%MOMM*%
%LPD*%
G01*
G04 APERTURE LIST*
G04 Aperture macros list*
%AMRoundRect*
0 Rectangle with rounded corners*
0 $1 Rounding radius*
0 $2 $3 $4 $5 $6 $7 $8 $9 X,Y pos of 4 corners*
0 Add a 4 corners polygon primitive as box body*
4,1,4,$2,$3,$4,$5,$6,$7,$8,$9,$2,$3,0*
0 Add four circle primitives for the rounded corners*
1,1,$1+$1,$2,$3*
1,1,$1+$1,$4,$5*
1,1,$1+$1,$6,$7*
1,1,$1+$1,$8,$9*
0 Add four rect primitives between the rounded corners*
20,1,$1+$1,$2,$3,$4,$5,0*
20,1,$1+$1,$4,$5,$6,$7,0*
20,1,$1+$1,$6,$7,$8,$9,0*
20,1,$1+$1,$8,$9,$2,$3,0*%
%AMFreePoly0*
4,1,6,0.725000,-0.725000,-0.725000,-0.725000,-0.725000,0.125000,-0.125000,0.725000,0.725000,0.725000,0.725000,-0.725000,0.725000,-0.725000,$1*%
G04 Aperture macros list end*
%ADD10C,0.010000*%
%ADD11RoundRect,0.218750X0.218750X0.256250X-0.218750X0.256250X-0.218750X-0.256250X0.218750X-0.256250X0*%
%ADD12R,1.000000X1.800000*%
%ADD13RoundRect,0.140000X0.170000X-0.140000X0.170000X0.140000X-0.170000X0.140000X-0.170000X-0.140000X0*%
%ADD14RoundRect,0.140000X-0.170000X0.140000X-0.170000X-0.140000X0.170000X-0.140000X0.170000X0.140000X0*%
%ADD15RoundRect,0.135000X-0.135000X-0.185000X0.135000X-0.185000X0.135000X0.185000X-0.135000X0.185000X0*%
%ADD16RoundRect,0.225000X0.225000X0.250000X-0.225000X0.250000X-0.225000X-0.250000X0.225000X-0.250000X0*%
%ADD17R,0.700000X0.600000*%
%ADD18RoundRect,0.140000X0.140000X0.170000X-0.140000X0.170000X-0.140000X-0.170000X0.140000X-0.170000X0*%
%ADD19R,0.800000X0.400000*%
%ADD20R,0.400000X0.800000*%
%ADD21R,1.450000X1.450000*%
%ADD22R,0.700000X0.700000*%
%ADD23FreePoly0,0.000000*%
%ADD24R,0.650000X1.050000*%
%ADD25R,0.475000X0.250000*%
%ADD26R,0.250000X0.475000*%
%ADD27RoundRect,0.135000X-0.185000X0.135000X-0.185000X-0.135000X0.185000X-0.135000X0.185000X0.135000X0*%
%ADD28R,1.200000X0.900000*%
%ADD29RoundRect,0.135000X0.185000X-0.135000X0.185000X0.135000X-0.185000X0.135000X-0.185000X-0.135000X0*%
%ADD30RoundRect,0.014000X0.361000X0.161000X-0.361000X0.161000X-0.361000X-0.161000X0.361000X-0.161000X0*%
%ADD31R,0.700000X1.600000*%
%ADD32RoundRect,0.135000X0.135000X0.185000X-0.135000X0.185000X-0.135000X-0.185000X0.135000X-0.185000X0*%
%ADD33RoundRect,0.218750X-0.256250X0.218750X-0.256250X-0.218750X0.256250X-0.218750X0.256250X0.218750X0*%
%ADD34RoundRect,0.225000X-0.250000X0.225000X-0.250000X-0.225000X0.250000X-0.225000X0.250000X0.225000X0*%
%ADD35RoundRect,0.225000X-0.225000X-0.250000X0.225000X-0.250000X0.225000X0.250000X-0.225000X0.250000X0*%
%ADD36R,0.650000X1.060000*%
%ADD37RoundRect,0.250000X0.250000X0.475000X-0.250000X0.475000X-0.250000X-0.475000X0.250000X-0.475000X0*%
%ADD38R,0.800000X0.900000*%
%ADD39RoundRect,0.250000X-0.250000X-0.475000X0.250000X-0.475000X0.250000X0.475000X-0.250000X0.475000X0*%
%ADD40R,1.060000X0.650000*%
%ADD41R,0.980000X3.400000*%
%ADD42R,0.900000X1.200000*%
%ADD43R,0.600000X1.150000*%
%ADD44R,0.300000X1.150000*%
G04 APERTURE END LIST*
D10*
%TO.C,D1*%
X139942000Y-74134000D02*
X139642000Y-74134000D01*
X139642000Y-74134000D02*
X139642000Y-73534000D01*
X139642000Y-73534000D02*
X139942000Y-73534000D01*
X139942000Y-73534000D02*
X139942000Y-74134000D01*
G36*
X139942000Y-74134000D02*
G01*
X139642000Y-74134000D01*
X139642000Y-73534000D01*
X139942000Y-73534000D01*
X139942000Y-74134000D01*
G37*
X139942000Y-74134000D02*
X139642000Y-74134000D01*
X139642000Y-73534000D01*
X139942000Y-73534000D01*
X139942000Y-74134000D01*
X139242000Y-74134000D02*
X138942000Y-74134000D01*
X138942000Y-74134000D02*
X138942000Y-73534000D01*
X138942000Y-73534000D02*
X139242000Y-73534000D01*
X139242000Y-73534000D02*
X139242000Y-74134000D01*
G36*
X139242000Y-74134000D02*
G01*
X138942000Y-74134000D01*
X138942000Y-73534000D01*
X139242000Y-73534000D01*
X139242000Y-74134000D01*
G37*
X139242000Y-74134000D02*
X138942000Y-74134000D01*
X138942000Y-73534000D01*
X139242000Y-73534000D01*
X139242000Y-74134000D01*
%TD*%
D11*
%TO.C,D2*%
X157505500Y-82931000D03*
X155930500Y-82931000D03*
%TD*%
D12*
%TO.C,Y1*%
X142387000Y-83312000D03*
X144887000Y-83312000D03*
%TD*%
D13*
%TO.C,C3*%
X150368000Y-91107200D03*
X150368000Y-90147200D03*
%TD*%
%TO.C,C13*%
X146177000Y-83792000D03*
X146177000Y-82832000D03*
%TD*%
%TO.C,C1*%
X151434800Y-91107200D03*
X151434800Y-90147200D03*
%TD*%
D14*
%TO.C,C14*%
X150672800Y-93449200D03*
X150672800Y-94409200D03*
%TD*%
D15*
%TO.C,R12*%
X143132000Y-85034000D03*
X144152000Y-85034000D03*
%TD*%
D16*
%TO.C,C16*%
X148857000Y-115874800D03*
X147307000Y-115874800D03*
%TD*%
D14*
%TO.C,C2*%
X151028400Y-88115200D03*
X151028400Y-89075200D03*
%TD*%
D17*
%TO.C,D8*%
X148082000Y-119572000D03*
X148082000Y-118172000D03*
%TD*%
D13*
%TO.C,C8*%
X140589000Y-72489000D03*
X140589000Y-71529000D03*
%TD*%
D18*
%TO.C,C10*%
X140688000Y-80213200D03*
X139728000Y-80213200D03*
%TD*%
D17*
%TO.C,D7*%
X149860000Y-119572000D03*
X149860000Y-118172000D03*
%TD*%
D15*
%TO.C,R10*%
X153668000Y-82931000D03*
X154688000Y-82931000D03*
%TD*%
D19*
%TO.C,U3*%
X142182000Y-72200000D03*
X142182000Y-73000000D03*
X142182000Y-73800000D03*
X142182000Y-74600000D03*
X142182000Y-75400000D03*
X142182000Y-76200000D03*
X142182000Y-77000000D03*
X142182000Y-77800000D03*
X142182000Y-78600000D03*
X142182000Y-79400000D03*
X142182000Y-80200000D03*
D20*
X143282000Y-81100000D03*
X144082000Y-81100000D03*
X144882000Y-81100000D03*
X145682000Y-81100000D03*
X146482000Y-81100000D03*
X147282000Y-81100000D03*
X148082000Y-81100000D03*
X148882000Y-81100000D03*
X149682000Y-81100000D03*
X150482000Y-81100000D03*
X151282000Y-81100000D03*
X152082000Y-81100000D03*
X152882000Y-81100000D03*
D19*
X153982000Y-80200000D03*
X153982000Y-79400000D03*
X153982000Y-78600000D03*
X153982000Y-77800000D03*
X153982000Y-77000000D03*
X153982000Y-76200000D03*
X153982000Y-75400000D03*
X153982000Y-74600000D03*
X153982000Y-73800000D03*
X153982000Y-73000000D03*
X153982000Y-72200000D03*
D21*
X148082000Y-74225000D03*
X150057000Y-78175000D03*
X150057000Y-76200000D03*
X148082000Y-78175000D03*
D20*
X149682000Y-71300000D03*
D21*
X146107000Y-76250000D03*
X146107000Y-78175000D03*
D20*
X145682000Y-71300000D03*
X144882000Y-71300000D03*
X148082000Y-71300000D03*
X147282000Y-71300000D03*
X143282000Y-71300000D03*
D22*
X154032000Y-81150000D03*
D20*
X146482000Y-71300000D03*
X151282000Y-71300000D03*
D22*
X142132000Y-71250000D03*
D21*
X148082000Y-76200000D03*
D20*
X148882000Y-71300000D03*
D22*
X154032000Y-71250000D03*
D23*
X146107000Y-74225000D03*
D22*
X142132000Y-81150000D03*
D20*
X152082000Y-71300000D03*
X150482000Y-71300000D03*
D21*
X150057000Y-74225000D03*
D20*
X144082000Y-71300000D03*
X152882000Y-71300000D03*
%TD*%
D15*
%TO.C,R7*%
X149959600Y-85953600D03*
X150979600Y-85953600D03*
%TD*%
D24*
%TO.C,SW1*%
X141717000Y-99559000D03*
X141717000Y-95409000D03*
X143867000Y-95409000D03*
X143867000Y-99559000D03*
%TD*%
D13*
%TO.C,C9*%
X139573000Y-72489000D03*
X139573000Y-71529000D03*
%TD*%
D17*
%TO.C,D5*%
X146304000Y-119572000D03*
X146304000Y-118172000D03*
%TD*%
D25*
%TO.C,U2*%
X146929500Y-87284000D03*
X146929500Y-87784000D03*
X146929500Y-88284000D03*
X146929500Y-88784000D03*
D26*
X147592000Y-88946500D03*
X148092000Y-88946500D03*
X148592000Y-88946500D03*
D25*
X149254500Y-88784000D03*
X149254500Y-88284000D03*
X149254500Y-87784000D03*
X149254500Y-87284000D03*
D26*
X148592000Y-87121500D03*
X148092000Y-87121500D03*
X147592000Y-87121500D03*
%TD*%
D13*
%TO.C,C12*%
X141097000Y-83792000D03*
X141097000Y-82832000D03*
%TD*%
D27*
%TO.C,R6*%
X142240000Y-123442000D03*
X142240000Y-124462000D03*
%TD*%
%TO.C,R4*%
X153924000Y-123442000D03*
X153924000Y-124462000D03*
%TD*%
D28*
%TO.C,D6*%
X144018000Y-115698000D03*
X144018000Y-118998000D03*
%TD*%
D14*
%TO.C,C4*%
X152044400Y-86743600D03*
X152044400Y-87703600D03*
%TD*%
D27*
%TO.C,R18*%
X148336000Y-83868800D03*
X148336000Y-84888800D03*
%TD*%
D29*
%TO.C,R17*%
X149961600Y-84888800D03*
X149961600Y-83868800D03*
%TD*%
D30*
%TO.C,U1*%
X149052000Y-91934000D03*
X149052000Y-90934000D03*
X147112000Y-90934000D03*
X147112000Y-91934000D03*
D31*
X148082000Y-91434000D03*
%TD*%
D24*
%TO.C,SW2*%
X152341000Y-99611000D03*
X152341000Y-95461000D03*
X154491000Y-95461000D03*
X154491000Y-99611000D03*
%TD*%
D13*
%TO.C,C11*%
X138557000Y-72489000D03*
X138557000Y-71529000D03*
%TD*%
D15*
%TO.C,R8*%
X139698000Y-77470000D03*
X140718000Y-77470000D03*
%TD*%
D32*
%TO.C,R2*%
X152935400Y-101346000D03*
X151915400Y-101346000D03*
%TD*%
D33*
%TO.C,D3*%
X142494000Y-112369500D03*
X142494000Y-113944500D03*
%TD*%
D34*
%TO.C,C6*%
X150749000Y-97904000D03*
X150749000Y-99454000D03*
%TD*%
D35*
%TO.C,C15*%
X146799000Y-109728000D03*
X148349000Y-109728000D03*
%TD*%
D36*
%TO.C,U6*%
X146497000Y-114257000D03*
X147447000Y-114257000D03*
X148397000Y-114257000D03*
X148397000Y-112057000D03*
X146497000Y-112057000D03*
%TD*%
D37*
%TO.C,C5*%
X151953000Y-106807000D03*
X150053000Y-106807000D03*
%TD*%
D27*
%TO.C,R9*%
X145110200Y-110919800D03*
X145110200Y-111939800D03*
%TD*%
D38*
%TO.C,Q1*%
X152842000Y-112665000D03*
X150942000Y-112665000D03*
X151892000Y-114665000D03*
%TD*%
D32*
%TO.C,R1*%
X149049200Y-101346000D03*
X148029200Y-101346000D03*
%TD*%
D39*
%TO.C,C7*%
X143957000Y-102743000D03*
X145857000Y-102743000D03*
%TD*%
D32*
%TO.C,R3*%
X151005000Y-101346000D03*
X149985000Y-101346000D03*
%TD*%
D40*
%TO.C,U5*%
X149014000Y-102936000D03*
X149014000Y-103886000D03*
X149014000Y-104836000D03*
X151214000Y-104836000D03*
X151214000Y-102936000D03*
%TD*%
D29*
%TO.C,R19*%
X151028400Y-84888800D03*
X151028400Y-83868800D03*
%TD*%
D41*
%TO.C,L1*%
X146346000Y-106299000D03*
X143976000Y-106299000D03*
%TD*%
D42*
%TO.C,D4*%
X153415000Y-109728000D03*
X150115000Y-109728000D03*
%TD*%
D32*
%TO.C,R14*%
X145036000Y-114173000D03*
X144016000Y-114173000D03*
%TD*%
D27*
%TO.C,R15*%
X154305000Y-113155000D03*
X154305000Y-114175000D03*
%TD*%
D43*
%TO.C,J1*%
X144882000Y-121229000D03*
X145682000Y-121229000D03*
D44*
X146832000Y-121229000D03*
X147832000Y-121229000D03*
X148332000Y-121229000D03*
X149332000Y-121229000D03*
D43*
X151282000Y-121229000D03*
X150482000Y-121229000D03*
D44*
X149832000Y-121229000D03*
X148832000Y-121229000D03*
X147332000Y-121229000D03*
X146332000Y-121229000D03*
%TD*%
M02*
