%TF.GenerationSoftware,KiCad,Pcbnew,6.0.0-d3dd2cf0fa~116~ubuntu21.04.1*%
%TF.CreationDate,2022-01-27T12:17:54+00:00*%
%TF.ProjectId,esp-rust-board,6573702d-7275-4737-942d-626f6172642e,0.1a*%
%TF.SameCoordinates,Original*%
%TF.FileFunction,Soldermask,Top*%
%TF.FilePolarity,Negative*%
%FSLAX46Y46*%
G04 Gerber Fmt 4.6, Leading zero omitted, Abs format (unit mm)*
G04 Created by KiCad (PCBNEW 6.0.0-d3dd2cf0fa~116~ubuntu21.04.1) date 2022-01-27 12:17:54*
%MOMM*%
%LPD*%
G01*
G04 APERTURE LIST*
G04 Aperture macros list*
%AMRoundRect*
0 Rectangle with rounded corners*
0 $1 Rounding radius*
0 $2 $3 $4 $5 $6 $7 $8 $9 X,Y pos of 4 corners*
0 Add a 4 corners polygon primitive as box body*
4,1,4,$2,$3,$4,$5,$6,$7,$8,$9,$2,$3,0*
0 Add four circle primitives for the rounded corners*
1,1,$1+$1,$2,$3*
1,1,$1+$1,$4,$5*
1,1,$1+$1,$6,$7*
1,1,$1+$1,$8,$9*
0 Add four rect primitives between the rounded corners*
20,1,$1+$1,$2,$3,$4,$5,0*
20,1,$1+$1,$4,$5,$6,$7,0*
20,1,$1+$1,$6,$7,$8,$9,0*
20,1,$1+$1,$8,$9,$2,$3,0*%
%AMFreePoly0*
4,1,48,0.657385,0.758754,0.662055,0.759085,0.664566,0.757713,0.671070,0.756770,0.697342,0.739806,0.724803,0.724803,1.359803,0.089802,1.381610,0.060599,1.383542,0.051625,1.389035,0.044269,1.390951,0.017212,1.396659,-0.009302,1.393437,-0.017898,1.394085,-0.027054,1.381082,-0.050854,1.371560,-0.076254,1.364204,-0.081747,1.359803,-0.089802,0.724803,-0.724803,0.706679,-0.738336,
0.703611,-0.741872,0.700866,-0.742677,0.695599,-0.746610,0.665023,-0.753192,0.635000,-0.762000,0.000000,-0.762000,-0.006861,-0.761005,-0.015958,-0.761833,-0.184344,-0.739365,-0.343569,-0.680150,-0.485717,-0.587131,-0.603725,-0.464931,-0.691726,-0.319622,-0.745348,-0.158429,-0.761926,0.010639,-0.740634,0.179178,-0.682532,0.338812,-0.590508,0.481606,-0.469134,0.600464,-0.324444,0.689478,
-0.163628,0.744224,-0.021304,0.759183,-0.017894,0.760733,-0.013128,0.760042,-0.003071,0.761099,0.000000,0.762000,0.635000,0.762000,0.657385,0.758754,0.657385,0.758754,$1*%
%AMFreePoly1*
4,1,49,0.002312,0.761665,0.005320,0.761981,0.174003,0.741867,0.334039,0.684881,0.477472,0.593856,0.597174,0.473315,0.687196,0.329249,0.743064,0.168820,0.762000,0.000000,0.761703,-0.021276,0.738060,-0.189502,0.677735,-0.348309,0.583726,-0.489804,0.460705,-0.606956,0.314786,-0.693941,0.153221,-0.746436,0.023340,-0.758256,0.017894,-0.760733,0.009500,-0.759516,0.008003,-0.759652,
0.000000,-0.762000,-0.635000,-0.762000,-0.657384,-0.758754,-0.662054,-0.759085,-0.664565,-0.757713,-0.671070,-0.756770,-0.697347,-0.739803,-0.724802,-0.724803,-1.359803,-0.089803,-1.381610,-0.060599,-1.383542,-0.051624,-1.389035,-0.044268,-1.390951,-0.017209,-1.396658,0.009301,-1.393436,0.017895,-1.394085,0.027055,-1.381079,0.050860,-1.371560,0.076254,-1.364205,0.081746,-1.359803,0.089803,
-0.724802,0.724803,-0.706680,0.738336,-0.703611,0.741872,-0.700865,0.742678,-0.695599,0.746610,-0.665018,0.753194,-0.635000,0.762000,0.000000,0.762000,0.002312,0.761665,0.002312,0.761665,$1*%
%AMFreePoly2*
4,1,20,0.635000,0.000000,0.634861,-0.013298,0.613363,-0.164350,0.556455,-0.305914,0.467422,-0.429816,0.351404,-0.528905,0.215099,-0.597459,0.066376,-0.631521,-0.086179,-0.629125,-0.233759,-0.590408,-0.367844,-0.517606,-0.480692,-0.414922,-0.565789,-0.288284,-0.618223,-0.145003,-0.634231,0.000000,-0.635000,0.000000,-0.635000,1.905000,0.000000,1.270000,0.635000,1.905000,0.635000,0.000000,
0.635000,0.000000,$1*%
%AMFreePoly3*
4,1,20,0.635000,1.270000,0.635000,0.000000,0.634861,-0.013298,0.613363,-0.164350,0.556455,-0.305914,0.467422,-0.429816,0.351404,-0.528905,0.215099,-0.597459,0.066376,-0.631521,-0.086179,-0.629125,-0.233759,-0.590408,-0.367844,-0.517606,-0.480692,-0.414922,-0.565789,-0.288284,-0.618223,-0.145003,-0.634231,0.000000,-0.635000,0.000000,-0.635000,1.270000,0.000000,1.905000,0.635000,1.270000,
0.635000,1.270000,$1*%
%AMFreePoly4*
4,1,6,0.725000,-0.725000,-0.725000,-0.725000,-0.725000,0.125000,-0.125000,0.725000,0.725000,0.725000,0.725000,-0.725000,0.725000,-0.725000,$1*%
G04 Aperture macros list end*
%ADD10C,0.010000*%
%ADD11RoundRect,0.218750X0.218750X0.256250X-0.218750X0.256250X-0.218750X-0.256250X0.218750X-0.256250X0*%
%ADD12C,1.524000*%
%ADD13FreePoly0,0.000000*%
%ADD14RoundRect,0.381000X-0.381000X-0.381000X0.381000X-0.381000X0.381000X0.381000X-0.381000X0.381000X0*%
%ADD15FreePoly1,0.000000*%
%ADD16FreePoly2,90.000000*%
%ADD17FreePoly3,90.000000*%
%ADD18R,1.000000X1.800000*%
%ADD19RoundRect,0.140000X0.170000X-0.140000X0.170000X0.140000X-0.170000X0.140000X-0.170000X-0.140000X0*%
%ADD20RoundRect,0.140000X-0.170000X0.140000X-0.170000X-0.140000X0.170000X-0.140000X0.170000X0.140000X0*%
%ADD21RoundRect,0.135000X-0.135000X-0.185000X0.135000X-0.185000X0.135000X0.185000X-0.135000X0.185000X0*%
%ADD22RoundRect,0.225000X0.225000X0.250000X-0.225000X0.250000X-0.225000X-0.250000X0.225000X-0.250000X0*%
%ADD23R,0.700000X0.600000*%
%ADD24RoundRect,0.140000X0.140000X0.170000X-0.140000X0.170000X-0.140000X-0.170000X0.140000X-0.170000X0*%
%ADD25R,0.800000X0.400000*%
%ADD26R,0.400000X0.800000*%
%ADD27R,1.450000X1.450000*%
%ADD28R,0.700000X0.700000*%
%ADD29FreePoly4,0.000000*%
%ADD30R,0.650000X1.050000*%
%ADD31RoundRect,0.135000X-0.185000X0.135000X-0.185000X-0.135000X0.185000X-0.135000X0.185000X0.135000X0*%
%ADD32R,1.200000X0.900000*%
%ADD33RoundRect,0.135000X0.185000X-0.135000X0.185000X0.135000X-0.185000X0.135000X-0.185000X-0.135000X0*%
%ADD34RoundRect,0.014000X0.361000X0.161000X-0.361000X0.161000X-0.361000X-0.161000X0.361000X-0.161000X0*%
%ADD35R,0.700000X1.600000*%
%ADD36RoundRect,0.135000X0.135000X0.185000X-0.135000X0.185000X-0.135000X-0.185000X0.135000X-0.185000X0*%
%ADD37RoundRect,0.218750X-0.256250X0.218750X-0.256250X-0.218750X0.256250X-0.218750X0.256250X0.218750X0*%
%ADD38RoundRect,0.225000X-0.250000X0.225000X-0.250000X-0.225000X0.250000X-0.225000X0.250000X0.225000X0*%
%ADD39RoundRect,0.225000X-0.225000X-0.250000X0.225000X-0.250000X0.225000X0.250000X-0.225000X0.250000X0*%
%ADD40R,0.650000X1.060000*%
%ADD41RoundRect,0.250000X0.250000X0.475000X-0.250000X0.475000X-0.250000X-0.475000X0.250000X-0.475000X0*%
%ADD42R,0.800000X0.900000*%
%ADD43RoundRect,0.250000X-0.250000X-0.475000X0.250000X-0.475000X0.250000X0.475000X-0.250000X0.475000X0*%
%ADD44R,1.060000X0.650000*%
%ADD45R,0.980000X3.400000*%
%ADD46R,0.900000X1.200000*%
%ADD47C,0.650000*%
%ADD48R,0.600000X1.150000*%
%ADD49R,0.300000X1.150000*%
%ADD50O,1.050000X2.100000*%
%ADD51O,1.000000X2.000000*%
G04 APERTURE END LIST*
D10*
%TO.C,U2*%
X148417000Y-86834000D02*
X148767000Y-86834000D01*
X148767000Y-86834000D02*
X148767000Y-87409000D01*
X148767000Y-87409000D02*
X148417000Y-87409000D01*
X148417000Y-87409000D02*
X148417000Y-86834000D01*
G36*
X148767000Y-87409000D02*
G01*
X148417000Y-87409000D01*
X148417000Y-86834000D01*
X148767000Y-86834000D01*
X148767000Y-87409000D01*
G37*
X148767000Y-87409000D02*
X148417000Y-87409000D01*
X148417000Y-86834000D01*
X148767000Y-86834000D01*
X148767000Y-87409000D01*
X148967000Y-87609000D02*
X149542000Y-87609000D01*
X149542000Y-87609000D02*
X149542000Y-87959000D01*
X149542000Y-87959000D02*
X148967000Y-87959000D01*
X148967000Y-87959000D02*
X148967000Y-87609000D01*
G36*
X149542000Y-87959000D02*
G01*
X148967000Y-87959000D01*
X148967000Y-87609000D01*
X149542000Y-87609000D01*
X149542000Y-87959000D01*
G37*
X149542000Y-87959000D02*
X148967000Y-87959000D01*
X148967000Y-87609000D01*
X149542000Y-87609000D01*
X149542000Y-87959000D01*
X148417000Y-88659000D02*
X148767000Y-88659000D01*
X148767000Y-88659000D02*
X148767000Y-89234000D01*
X148767000Y-89234000D02*
X148417000Y-89234000D01*
X148417000Y-89234000D02*
X148417000Y-88659000D01*
G36*
X148767000Y-89234000D02*
G01*
X148417000Y-89234000D01*
X148417000Y-88659000D01*
X148767000Y-88659000D01*
X148767000Y-89234000D01*
G37*
X148767000Y-89234000D02*
X148417000Y-89234000D01*
X148417000Y-88659000D01*
X148767000Y-88659000D01*
X148767000Y-89234000D01*
X148967000Y-87109000D02*
X149542000Y-87109000D01*
X149542000Y-87109000D02*
X149542000Y-87459000D01*
X149542000Y-87459000D02*
X148967000Y-87459000D01*
X148967000Y-87459000D02*
X148967000Y-87109000D01*
G36*
X149542000Y-87459000D02*
G01*
X148967000Y-87459000D01*
X148967000Y-87109000D01*
X149542000Y-87109000D01*
X149542000Y-87459000D01*
G37*
X149542000Y-87459000D02*
X148967000Y-87459000D01*
X148967000Y-87109000D01*
X149542000Y-87109000D01*
X149542000Y-87459000D01*
X147417000Y-86834000D02*
X147767000Y-86834000D01*
X147767000Y-86834000D02*
X147767000Y-87409000D01*
X147767000Y-87409000D02*
X147417000Y-87409000D01*
X147417000Y-87409000D02*
X147417000Y-86834000D01*
G36*
X147767000Y-87409000D02*
G01*
X147417000Y-87409000D01*
X147417000Y-86834000D01*
X147767000Y-86834000D01*
X147767000Y-87409000D01*
G37*
X147767000Y-87409000D02*
X147417000Y-87409000D01*
X147417000Y-86834000D01*
X147767000Y-86834000D01*
X147767000Y-87409000D01*
X147917000Y-86834000D02*
X148267000Y-86834000D01*
X148267000Y-86834000D02*
X148267000Y-87409000D01*
X148267000Y-87409000D02*
X147917000Y-87409000D01*
X147917000Y-87409000D02*
X147917000Y-86834000D01*
G36*
X148267000Y-87409000D02*
G01*
X147917000Y-87409000D01*
X147917000Y-86834000D01*
X148267000Y-86834000D01*
X148267000Y-87409000D01*
G37*
X148267000Y-87409000D02*
X147917000Y-87409000D01*
X147917000Y-86834000D01*
X148267000Y-86834000D01*
X148267000Y-87409000D01*
X147417000Y-88659000D02*
X147767000Y-88659000D01*
X147767000Y-88659000D02*
X147767000Y-89234000D01*
X147767000Y-89234000D02*
X147417000Y-89234000D01*
X147417000Y-89234000D02*
X147417000Y-88659000D01*
G36*
X147767000Y-89234000D02*
G01*
X147417000Y-89234000D01*
X147417000Y-88659000D01*
X147767000Y-88659000D01*
X147767000Y-89234000D01*
G37*
X147767000Y-89234000D02*
X147417000Y-89234000D01*
X147417000Y-88659000D01*
X147767000Y-88659000D01*
X147767000Y-89234000D01*
X147917000Y-88659000D02*
X148267000Y-88659000D01*
X148267000Y-88659000D02*
X148267000Y-89234000D01*
X148267000Y-89234000D02*
X147917000Y-89234000D01*
X147917000Y-89234000D02*
X147917000Y-88659000D01*
G36*
X148267000Y-89234000D02*
G01*
X147917000Y-89234000D01*
X147917000Y-88659000D01*
X148267000Y-88659000D01*
X148267000Y-89234000D01*
G37*
X148267000Y-89234000D02*
X147917000Y-89234000D01*
X147917000Y-88659000D01*
X148267000Y-88659000D01*
X148267000Y-89234000D01*
X146642000Y-88109000D02*
X147217000Y-88109000D01*
X147217000Y-88109000D02*
X147217000Y-88459000D01*
X147217000Y-88459000D02*
X146642000Y-88459000D01*
X146642000Y-88459000D02*
X146642000Y-88109000D01*
G36*
X147217000Y-88459000D02*
G01*
X146642000Y-88459000D01*
X146642000Y-88109000D01*
X147217000Y-88109000D01*
X147217000Y-88459000D01*
G37*
X147217000Y-88459000D02*
X146642000Y-88459000D01*
X146642000Y-88109000D01*
X147217000Y-88109000D01*
X147217000Y-88459000D01*
X148967000Y-88109000D02*
X149542000Y-88109000D01*
X149542000Y-88109000D02*
X149542000Y-88459000D01*
X149542000Y-88459000D02*
X148967000Y-88459000D01*
X148967000Y-88459000D02*
X148967000Y-88109000D01*
G36*
X149542000Y-88459000D02*
G01*
X148967000Y-88459000D01*
X148967000Y-88109000D01*
X149542000Y-88109000D01*
X149542000Y-88459000D01*
G37*
X149542000Y-88459000D02*
X148967000Y-88459000D01*
X148967000Y-88109000D01*
X149542000Y-88109000D01*
X149542000Y-88459000D01*
X146642000Y-87609000D02*
X147217000Y-87609000D01*
X147217000Y-87609000D02*
X147217000Y-87959000D01*
X147217000Y-87959000D02*
X146642000Y-87959000D01*
X146642000Y-87959000D02*
X146642000Y-87609000D01*
G36*
X147217000Y-87959000D02*
G01*
X146642000Y-87959000D01*
X146642000Y-87609000D01*
X147217000Y-87609000D01*
X147217000Y-87959000D01*
G37*
X147217000Y-87959000D02*
X146642000Y-87959000D01*
X146642000Y-87609000D01*
X147217000Y-87609000D01*
X147217000Y-87959000D01*
X146642000Y-88609000D02*
X147217000Y-88609000D01*
X147217000Y-88609000D02*
X147217000Y-88959000D01*
X147217000Y-88959000D02*
X146642000Y-88959000D01*
X146642000Y-88959000D02*
X146642000Y-88609000D01*
G36*
X147217000Y-88959000D02*
G01*
X146642000Y-88959000D01*
X146642000Y-88609000D01*
X147217000Y-88609000D01*
X147217000Y-88959000D01*
G37*
X147217000Y-88959000D02*
X146642000Y-88959000D01*
X146642000Y-88609000D01*
X147217000Y-88609000D01*
X147217000Y-88959000D01*
X148967000Y-88609000D02*
X149542000Y-88609000D01*
X149542000Y-88609000D02*
X149542000Y-88959000D01*
X149542000Y-88959000D02*
X148967000Y-88959000D01*
X148967000Y-88959000D02*
X148967000Y-88609000D01*
G36*
X149542000Y-88959000D02*
G01*
X148967000Y-88959000D01*
X148967000Y-88609000D01*
X149542000Y-88609000D01*
X149542000Y-88959000D01*
G37*
X149542000Y-88959000D02*
X148967000Y-88959000D01*
X148967000Y-88609000D01*
X149542000Y-88609000D01*
X149542000Y-88959000D01*
X146642000Y-87109000D02*
X147217000Y-87109000D01*
X147217000Y-87109000D02*
X147217000Y-87459000D01*
X147217000Y-87459000D02*
X146642000Y-87459000D01*
X146642000Y-87459000D02*
X146642000Y-87109000D01*
G36*
X147217000Y-87459000D02*
G01*
X146642000Y-87459000D01*
X146642000Y-87109000D01*
X147217000Y-87109000D01*
X147217000Y-87459000D01*
G37*
X147217000Y-87459000D02*
X146642000Y-87459000D01*
X146642000Y-87109000D01*
X147217000Y-87109000D01*
X147217000Y-87459000D01*
%TO.C,D1*%
X139341991Y-74234000D02*
X138842000Y-74234000D01*
X138842000Y-74234000D02*
X138842000Y-73433969D01*
X138842000Y-73433969D02*
X139341991Y-73433969D01*
X139341991Y-73433969D02*
X139341991Y-74234000D01*
G36*
X139341991Y-74234000D02*
G01*
X138842000Y-74234000D01*
X138842000Y-73433969D01*
X139341991Y-73433969D01*
X139341991Y-74234000D01*
G37*
X139341991Y-74234000D02*
X138842000Y-74234000D01*
X138842000Y-73433969D01*
X139341991Y-73433969D01*
X139341991Y-74234000D01*
X140042941Y-74234000D02*
X139542000Y-74234000D01*
X139542000Y-74234000D02*
X139542000Y-73433372D01*
X139542000Y-73433372D02*
X140042941Y-73433372D01*
X140042941Y-73433372D02*
X140042941Y-74234000D01*
G36*
X140042941Y-74234000D02*
G01*
X139542000Y-74234000D01*
X139542000Y-73433372D01*
X140042941Y-73433372D01*
X140042941Y-74234000D01*
G37*
X140042941Y-74234000D02*
X139542000Y-74234000D01*
X139542000Y-73433372D01*
X140042941Y-73433372D01*
X140042941Y-74234000D01*
%TD*%
D11*
%TO.C,D2*%
X157505500Y-82931000D03*
X155930500Y-82931000D03*
%TD*%
D12*
%TO.C,U4*%
X137922000Y-76454000D03*
D13*
X137922000Y-78994000D03*
D12*
X137922000Y-81534000D03*
D14*
X137922000Y-84074000D03*
D12*
X137922000Y-86614000D03*
X137922000Y-89154000D03*
X137922000Y-91694000D03*
X137922000Y-94234000D03*
X137922000Y-96774000D03*
X137922000Y-99314000D03*
X137922000Y-101854000D03*
X137922000Y-104394000D03*
X137922000Y-106934000D03*
X137922000Y-109474000D03*
X137922000Y-112014000D03*
X137922000Y-114554000D03*
X158242000Y-114554000D03*
X158242000Y-112014000D03*
X158242000Y-109474000D03*
X158242000Y-106934000D03*
X158242000Y-104394000D03*
X158242000Y-101854000D03*
X158242000Y-99314000D03*
X158242000Y-96774000D03*
X158242000Y-94234000D03*
D15*
X158242000Y-91694000D03*
D12*
X158242000Y-89154000D03*
D15*
X158242000Y-86614000D03*
D16*
X158242000Y-120904000D03*
D17*
X158242000Y-118364000D03*
%TD*%
D18*
%TO.C,Y1*%
X142387000Y-83312000D03*
X144887000Y-83312000D03*
%TD*%
D19*
%TO.C,C3*%
X150368000Y-91107200D03*
X150368000Y-90147200D03*
%TD*%
%TO.C,C13*%
X146177000Y-83792000D03*
X146177000Y-82832000D03*
%TD*%
%TO.C,C1*%
X151434800Y-91107200D03*
X151434800Y-90147200D03*
%TD*%
D20*
%TO.C,C14*%
X150672800Y-93449200D03*
X150672800Y-94409200D03*
%TD*%
D21*
%TO.C,R12*%
X143132000Y-85034000D03*
X144152000Y-85034000D03*
%TD*%
D22*
%TO.C,C16*%
X148857000Y-115874800D03*
X147307000Y-115874800D03*
%TD*%
D20*
%TO.C,C2*%
X151028400Y-88115200D03*
X151028400Y-89075200D03*
%TD*%
D23*
%TO.C,D8*%
X148082000Y-119572000D03*
X148082000Y-118172000D03*
%TD*%
D19*
%TO.C,C8*%
X140589000Y-72489000D03*
X140589000Y-71529000D03*
%TD*%
D24*
%TO.C,C10*%
X140688000Y-80213200D03*
X139728000Y-80213200D03*
%TD*%
D23*
%TO.C,D7*%
X149860000Y-119572000D03*
X149860000Y-118172000D03*
%TD*%
D21*
%TO.C,R10*%
X153668000Y-82931000D03*
X154688000Y-82931000D03*
%TD*%
D25*
%TO.C,U3*%
X142182000Y-72200000D03*
X142182000Y-73000000D03*
X142182000Y-73800000D03*
X142182000Y-74600000D03*
X142182000Y-75400000D03*
X142182000Y-76200000D03*
X142182000Y-77000000D03*
X142182000Y-77800000D03*
X142182000Y-78600000D03*
X142182000Y-79400000D03*
X142182000Y-80200000D03*
D26*
X143282000Y-81100000D03*
X144082000Y-81100000D03*
X144882000Y-81100000D03*
X145682000Y-81100000D03*
X146482000Y-81100000D03*
X147282000Y-81100000D03*
X148082000Y-81100000D03*
X148882000Y-81100000D03*
X149682000Y-81100000D03*
X150482000Y-81100000D03*
X151282000Y-81100000D03*
X152082000Y-81100000D03*
X152882000Y-81100000D03*
D25*
X153982000Y-80200000D03*
X153982000Y-79400000D03*
X153982000Y-78600000D03*
X153982000Y-77800000D03*
X153982000Y-77000000D03*
X153982000Y-76200000D03*
X153982000Y-75400000D03*
X153982000Y-74600000D03*
X153982000Y-73800000D03*
X153982000Y-73000000D03*
X153982000Y-72200000D03*
D27*
X148082000Y-74225000D03*
X150057000Y-78175000D03*
X150057000Y-76200000D03*
X148082000Y-78175000D03*
D26*
X149682000Y-71300000D03*
D27*
X146107000Y-76250000D03*
X146107000Y-78175000D03*
D26*
X145682000Y-71300000D03*
X144882000Y-71300000D03*
X148082000Y-71300000D03*
X147282000Y-71300000D03*
X143282000Y-71300000D03*
D28*
X154032000Y-81150000D03*
D26*
X146482000Y-71300000D03*
X151282000Y-71300000D03*
D28*
X142132000Y-71250000D03*
D27*
X148082000Y-76200000D03*
D26*
X148882000Y-71300000D03*
D28*
X154032000Y-71250000D03*
D29*
X146107000Y-74225000D03*
D28*
X142132000Y-81150000D03*
D26*
X152082000Y-71300000D03*
X150482000Y-71300000D03*
D27*
X150057000Y-74225000D03*
D26*
X144082000Y-71300000D03*
X152882000Y-71300000D03*
%TD*%
D21*
%TO.C,R7*%
X149959600Y-85953600D03*
X150979600Y-85953600D03*
%TD*%
D30*
%TO.C,SW1*%
X141717000Y-99559000D03*
X141717000Y-95409000D03*
X143867000Y-95409000D03*
X143867000Y-99559000D03*
%TD*%
D19*
%TO.C,C9*%
X139573000Y-72489000D03*
X139573000Y-71529000D03*
%TD*%
D23*
%TO.C,D5*%
X146304000Y-119572000D03*
X146304000Y-118172000D03*
%TD*%
D19*
%TO.C,C12*%
X141097000Y-83792000D03*
X141097000Y-82832000D03*
%TD*%
D31*
%TO.C,R6*%
X142240000Y-123442000D03*
X142240000Y-124462000D03*
%TD*%
%TO.C,R4*%
X153924000Y-123442000D03*
X153924000Y-124462000D03*
%TD*%
D32*
%TO.C,D6*%
X144018000Y-115698000D03*
X144018000Y-118998000D03*
%TD*%
D20*
%TO.C,C4*%
X152044400Y-86743600D03*
X152044400Y-87703600D03*
%TD*%
D31*
%TO.C,R18*%
X148336000Y-83868800D03*
X148336000Y-84888800D03*
%TD*%
D33*
%TO.C,R17*%
X149961600Y-84888800D03*
X149961600Y-83868800D03*
%TD*%
D34*
%TO.C,U1*%
X149052000Y-91934000D03*
X149052000Y-90934000D03*
X147112000Y-90934000D03*
X147112000Y-91934000D03*
D35*
X148082000Y-91434000D03*
%TD*%
D30*
%TO.C,SW2*%
X152341000Y-99611000D03*
X152341000Y-95461000D03*
X154491000Y-95461000D03*
X154491000Y-99611000D03*
%TD*%
D19*
%TO.C,C11*%
X138557000Y-72489000D03*
X138557000Y-71529000D03*
%TD*%
D21*
%TO.C,R8*%
X139698000Y-77470000D03*
X140718000Y-77470000D03*
%TD*%
D36*
%TO.C,R2*%
X152935400Y-101346000D03*
X151915400Y-101346000D03*
%TD*%
D37*
%TO.C,D3*%
X142494000Y-112369500D03*
X142494000Y-113944500D03*
%TD*%
D38*
%TO.C,C6*%
X150749000Y-97904000D03*
X150749000Y-99454000D03*
%TD*%
D39*
%TO.C,C15*%
X146799000Y-109728000D03*
X148349000Y-109728000D03*
%TD*%
D40*
%TO.C,U6*%
X146497000Y-114257000D03*
X147447000Y-114257000D03*
X148397000Y-114257000D03*
X148397000Y-112057000D03*
X146497000Y-112057000D03*
%TD*%
D41*
%TO.C,C5*%
X151953000Y-106807000D03*
X150053000Y-106807000D03*
%TD*%
D31*
%TO.C,R9*%
X145110200Y-110919800D03*
X145110200Y-111939800D03*
%TD*%
D42*
%TO.C,Q1*%
X152842000Y-112665000D03*
X150942000Y-112665000D03*
X151892000Y-114665000D03*
%TD*%
D36*
%TO.C,R1*%
X149049200Y-101346000D03*
X148029200Y-101346000D03*
%TD*%
D43*
%TO.C,C7*%
X143957000Y-102743000D03*
X145857000Y-102743000D03*
%TD*%
D36*
%TO.C,R3*%
X151005000Y-101346000D03*
X149985000Y-101346000D03*
%TD*%
D44*
%TO.C,U5*%
X149014000Y-102936000D03*
X149014000Y-103886000D03*
X149014000Y-104836000D03*
X151214000Y-104836000D03*
X151214000Y-102936000D03*
%TD*%
D33*
%TO.C,R19*%
X151028400Y-84888800D03*
X151028400Y-83868800D03*
%TD*%
D45*
%TO.C,L1*%
X146346000Y-106299000D03*
X143976000Y-106299000D03*
%TD*%
D46*
%TO.C,D4*%
X153415000Y-109728000D03*
X150115000Y-109728000D03*
%TD*%
D36*
%TO.C,R14*%
X145036000Y-114173000D03*
X144016000Y-114173000D03*
%TD*%
D31*
%TO.C,R15*%
X154305000Y-113155000D03*
X154305000Y-114175000D03*
%TD*%
D47*
%TO.C,J1*%
X150972000Y-122304000D03*
X145192000Y-122304000D03*
D48*
X144882000Y-121229000D03*
X145682000Y-121229000D03*
D49*
X146832000Y-121229000D03*
X147832000Y-121229000D03*
X148332000Y-121229000D03*
X149332000Y-121229000D03*
D48*
X151282000Y-121229000D03*
X150482000Y-121229000D03*
D49*
X149832000Y-121229000D03*
X148832000Y-121229000D03*
X147332000Y-121229000D03*
X146332000Y-121229000D03*
D50*
X143762000Y-121804000D03*
D51*
X143762000Y-125984000D03*
X152402000Y-125984000D03*
D50*
X152402000Y-121804000D03*
%TD*%
M02*
