G04 #@! TF.GenerationSoftware,KiCad,Pcbnew,6.0.1-79c1e3a40b~116~ubuntu21.04.1*
G04 #@! TF.CreationDate,2022-05-02T11:52:58+02:00*
G04 #@! TF.ProjectId,esp-rust-board,6573702d-7275-4737-942d-626f6172642e,1.2a*
G04 #@! TF.SameCoordinates,Original*
G04 #@! TF.FileFunction,Legend,Top*
G04 #@! TF.FilePolarity,Positive*
%FSLAX46Y46*%
G04 Gerber Fmt 4.6, Leading zero omitted, Abs format (unit mm)*
G04 Created by KiCad (PCBNEW 6.0.1-79c1e3a40b~116~ubuntu21.04.1) date 2022-05-02 11:52:58*
%MOMM*%
%LPD*%
G01*
G04 APERTURE LIST*
%ADD10C,0.100000*%
%ADD11C,0.150000*%
%ADD12C,0.300000*%
%ADD13C,0.400000*%
%ADD14C,0.200000*%
%ADD15C,0.152400*%
%ADD16C,0.250000*%
%ADD17C,0.120000*%
%ADD18C,0.127000*%
G04 APERTURE END LIST*
D10*
D11*
X177002200Y-166007200D02*
X177002200Y-198007200D01*
X285002200Y-198007200D01*
X285002200Y-166007200D01*
X177002200Y-166007200D01*
D10*
D11*
X10000000Y-10000000D02*
X10000000Y-200007200D01*
X287002200Y-200007200D01*
X287002200Y-10000000D01*
X10000000Y-10000000D01*
D10*
D11*
X12000000Y-12000000D02*
X12000000Y-198007200D01*
X285002200Y-198007200D01*
X285002200Y-12000000D01*
X12000000Y-12000000D01*
D10*
D11*
X60000000Y-12000000D02*
X60000000Y-10000000D01*
D10*
D11*
X110000000Y-12000000D02*
X110000000Y-10000000D01*
D10*
D11*
X160000000Y-12000000D02*
X160000000Y-10000000D01*
D10*
D11*
X210000000Y-12000000D02*
X210000000Y-10000000D01*
D10*
D11*
X260000000Y-12000000D02*
X260000000Y-10000000D01*
D10*
D11*
X36065476Y-11588095D02*
X35322619Y-11588095D01*
X35694047Y-11588095D02*
X35694047Y-10288095D01*
X35570238Y-10473809D01*
X35446428Y-10597619D01*
X35322619Y-10659523D01*
D10*
D11*
X85322619Y-10411904D02*
X85384523Y-10350000D01*
X85508333Y-10288095D01*
X85817857Y-10288095D01*
X85941666Y-10350000D01*
X86003571Y-10411904D01*
X86065476Y-10535714D01*
X86065476Y-10659523D01*
X86003571Y-10845238D01*
X85260714Y-11588095D01*
X86065476Y-11588095D01*
D10*
D11*
X135260714Y-10288095D02*
X136065476Y-10288095D01*
X135632142Y-10783333D01*
X135817857Y-10783333D01*
X135941666Y-10845238D01*
X136003571Y-10907142D01*
X136065476Y-11030952D01*
X136065476Y-11340476D01*
X136003571Y-11464285D01*
X135941666Y-11526190D01*
X135817857Y-11588095D01*
X135446428Y-11588095D01*
X135322619Y-11526190D01*
X135260714Y-11464285D01*
D10*
D11*
X185941666Y-10721428D02*
X185941666Y-11588095D01*
X185632142Y-10226190D02*
X185322619Y-11154761D01*
X186127380Y-11154761D01*
D10*
D11*
X236003571Y-10288095D02*
X235384523Y-10288095D01*
X235322619Y-10907142D01*
X235384523Y-10845238D01*
X235508333Y-10783333D01*
X235817857Y-10783333D01*
X235941666Y-10845238D01*
X236003571Y-10907142D01*
X236065476Y-11030952D01*
X236065476Y-11340476D01*
X236003571Y-11464285D01*
X235941666Y-11526190D01*
X235817857Y-11588095D01*
X235508333Y-11588095D01*
X235384523Y-11526190D01*
X235322619Y-11464285D01*
D10*
D11*
X285941666Y-10288095D02*
X285694047Y-10288095D01*
X285570238Y-10350000D01*
X285508333Y-10411904D01*
X285384523Y-10597619D01*
X285322619Y-10845238D01*
X285322619Y-11340476D01*
X285384523Y-11464285D01*
X285446428Y-11526190D01*
X285570238Y-11588095D01*
X285817857Y-11588095D01*
X285941666Y-11526190D01*
X286003571Y-11464285D01*
X286065476Y-11340476D01*
X286065476Y-11030952D01*
X286003571Y-10907142D01*
X285941666Y-10845238D01*
X285817857Y-10783333D01*
X285570238Y-10783333D01*
X285446428Y-10845238D01*
X285384523Y-10907142D01*
X285322619Y-11030952D01*
D10*
D11*
X60000000Y-198007200D02*
X60000000Y-200007200D01*
D10*
D11*
X110000000Y-198007200D02*
X110000000Y-200007200D01*
D10*
D11*
X160000000Y-198007200D02*
X160000000Y-200007200D01*
D10*
D11*
X210000000Y-198007200D02*
X210000000Y-200007200D01*
D10*
D11*
X260000000Y-198007200D02*
X260000000Y-200007200D01*
D10*
D11*
X36065476Y-199595295D02*
X35322619Y-199595295D01*
X35694047Y-199595295D02*
X35694047Y-198295295D01*
X35570238Y-198481009D01*
X35446428Y-198604819D01*
X35322619Y-198666723D01*
D10*
D11*
X85322619Y-198419104D02*
X85384523Y-198357200D01*
X85508333Y-198295295D01*
X85817857Y-198295295D01*
X85941666Y-198357200D01*
X86003571Y-198419104D01*
X86065476Y-198542914D01*
X86065476Y-198666723D01*
X86003571Y-198852438D01*
X85260714Y-199595295D01*
X86065476Y-199595295D01*
D10*
D11*
X135260714Y-198295295D02*
X136065476Y-198295295D01*
X135632142Y-198790533D01*
X135817857Y-198790533D01*
X135941666Y-198852438D01*
X136003571Y-198914342D01*
X136065476Y-199038152D01*
X136065476Y-199347676D01*
X136003571Y-199471485D01*
X135941666Y-199533390D01*
X135817857Y-199595295D01*
X135446428Y-199595295D01*
X135322619Y-199533390D01*
X135260714Y-199471485D01*
D10*
D11*
X185941666Y-198728628D02*
X185941666Y-199595295D01*
X185632142Y-198233390D02*
X185322619Y-199161961D01*
X186127380Y-199161961D01*
D10*
D11*
X236003571Y-198295295D02*
X235384523Y-198295295D01*
X235322619Y-198914342D01*
X235384523Y-198852438D01*
X235508333Y-198790533D01*
X235817857Y-198790533D01*
X235941666Y-198852438D01*
X236003571Y-198914342D01*
X236065476Y-199038152D01*
X236065476Y-199347676D01*
X236003571Y-199471485D01*
X235941666Y-199533390D01*
X235817857Y-199595295D01*
X235508333Y-199595295D01*
X235384523Y-199533390D01*
X235322619Y-199471485D01*
D10*
D11*
X285941666Y-198295295D02*
X285694047Y-198295295D01*
X285570238Y-198357200D01*
X285508333Y-198419104D01*
X285384523Y-198604819D01*
X285322619Y-198852438D01*
X285322619Y-199347676D01*
X285384523Y-199471485D01*
X285446428Y-199533390D01*
X285570238Y-199595295D01*
X285817857Y-199595295D01*
X285941666Y-199533390D01*
X286003571Y-199471485D01*
X286065476Y-199347676D01*
X286065476Y-199038152D01*
X286003571Y-198914342D01*
X285941666Y-198852438D01*
X285817857Y-198790533D01*
X285570238Y-198790533D01*
X285446428Y-198852438D01*
X285384523Y-198914342D01*
X285322619Y-199038152D01*
D10*
D11*
X10000000Y-60000000D02*
X12000000Y-60000000D01*
D10*
D11*
X10000000Y-110000000D02*
X12000000Y-110000000D01*
D10*
D11*
X10000000Y-160000000D02*
X12000000Y-160000000D01*
D10*
D11*
X10690476Y-35216666D02*
X11309523Y-35216666D01*
X10566666Y-35588095D02*
X11000000Y-34288095D01*
X11433333Y-35588095D01*
D10*
D11*
X11092857Y-84907142D02*
X11278571Y-84969047D01*
X11340476Y-85030952D01*
X11402380Y-85154761D01*
X11402380Y-85340476D01*
X11340476Y-85464285D01*
X11278571Y-85526190D01*
X11154761Y-85588095D01*
X10659523Y-85588095D01*
X10659523Y-84288095D01*
X11092857Y-84288095D01*
X11216666Y-84350000D01*
X11278571Y-84411904D01*
X11340476Y-84535714D01*
X11340476Y-84659523D01*
X11278571Y-84783333D01*
X11216666Y-84845238D01*
X11092857Y-84907142D01*
X10659523Y-84907142D01*
D10*
D11*
X11402380Y-135464285D02*
X11340476Y-135526190D01*
X11154761Y-135588095D01*
X11030952Y-135588095D01*
X10845238Y-135526190D01*
X10721428Y-135402380D01*
X10659523Y-135278571D01*
X10597619Y-135030952D01*
X10597619Y-134845238D01*
X10659523Y-134597619D01*
X10721428Y-134473809D01*
X10845238Y-134350000D01*
X11030952Y-134288095D01*
X11154761Y-134288095D01*
X11340476Y-134350000D01*
X11402380Y-134411904D01*
D10*
D11*
X10659523Y-185588095D02*
X10659523Y-184288095D01*
X10969047Y-184288095D01*
X11154761Y-184350000D01*
X11278571Y-184473809D01*
X11340476Y-184597619D01*
X11402380Y-184845238D01*
X11402380Y-185030952D01*
X11340476Y-185278571D01*
X11278571Y-185402380D01*
X11154761Y-185526190D01*
X10969047Y-185588095D01*
X10659523Y-185588095D01*
D10*
D11*
X287002200Y-60000000D02*
X285002200Y-60000000D01*
D10*
D11*
X287002200Y-110000000D02*
X285002200Y-110000000D01*
D10*
D11*
X287002200Y-160000000D02*
X285002200Y-160000000D01*
D10*
D11*
X285692676Y-35216666D02*
X286311723Y-35216666D01*
X285568866Y-35588095D02*
X286002200Y-34288095D01*
X286435533Y-35588095D01*
D10*
D11*
X286095057Y-84907142D02*
X286280771Y-84969047D01*
X286342676Y-85030952D01*
X286404580Y-85154761D01*
X286404580Y-85340476D01*
X286342676Y-85464285D01*
X286280771Y-85526190D01*
X286156961Y-85588095D01*
X285661723Y-85588095D01*
X285661723Y-84288095D01*
X286095057Y-84288095D01*
X286218866Y-84350000D01*
X286280771Y-84411904D01*
X286342676Y-84535714D01*
X286342676Y-84659523D01*
X286280771Y-84783333D01*
X286218866Y-84845238D01*
X286095057Y-84907142D01*
X285661723Y-84907142D01*
D10*
D11*
X286404580Y-135464285D02*
X286342676Y-135526190D01*
X286156961Y-135588095D01*
X286033152Y-135588095D01*
X285847438Y-135526190D01*
X285723628Y-135402380D01*
X285661723Y-135278571D01*
X285599819Y-135030952D01*
X285599819Y-134845238D01*
X285661723Y-134597619D01*
X285723628Y-134473809D01*
X285847438Y-134350000D01*
X286033152Y-134288095D01*
X286156961Y-134288095D01*
X286342676Y-134350000D01*
X286404580Y-134411904D01*
D10*
D11*
X285661723Y-185588095D02*
X285661723Y-184288095D01*
X285971247Y-184288095D01*
X286156961Y-184350000D01*
X286280771Y-184473809D01*
X286342676Y-184597619D01*
X286404580Y-184845238D01*
X286404580Y-185030952D01*
X286342676Y-185278571D01*
X286280771Y-185402380D01*
X286156961Y-185526190D01*
X285971247Y-185588095D01*
X285661723Y-185588095D01*
D10*
D11*
X200434342Y-193785771D02*
X200434342Y-192285771D01*
X200791485Y-192285771D01*
X201005771Y-192357200D01*
X201148628Y-192500057D01*
X201220057Y-192642914D01*
X201291485Y-192928628D01*
X201291485Y-193142914D01*
X201220057Y-193428628D01*
X201148628Y-193571485D01*
X201005771Y-193714342D01*
X200791485Y-193785771D01*
X200434342Y-193785771D01*
X202577200Y-193785771D02*
X202577200Y-193000057D01*
X202505771Y-192857200D01*
X202362914Y-192785771D01*
X202077200Y-192785771D01*
X201934342Y-192857200D01*
X202577200Y-193714342D02*
X202434342Y-193785771D01*
X202077200Y-193785771D01*
X201934342Y-193714342D01*
X201862914Y-193571485D01*
X201862914Y-193428628D01*
X201934342Y-193285771D01*
X202077200Y-193214342D01*
X202434342Y-193214342D01*
X202577200Y-193142914D01*
X203077200Y-192785771D02*
X203648628Y-192785771D01*
X203291485Y-192285771D02*
X203291485Y-193571485D01*
X203362914Y-193714342D01*
X203505771Y-193785771D01*
X203648628Y-193785771D01*
X204720057Y-193714342D02*
X204577200Y-193785771D01*
X204291485Y-193785771D01*
X204148628Y-193714342D01*
X204077200Y-193571485D01*
X204077200Y-193000057D01*
X204148628Y-192857200D01*
X204291485Y-192785771D01*
X204577200Y-192785771D01*
X204720057Y-192857200D01*
X204791485Y-193000057D01*
X204791485Y-193142914D01*
X204077200Y-193285771D01*
X205434342Y-193642914D02*
X205505771Y-193714342D01*
X205434342Y-193785771D01*
X205362914Y-193714342D01*
X205434342Y-193642914D01*
X205434342Y-193785771D01*
X205434342Y-192857200D02*
X205505771Y-192928628D01*
X205434342Y-193000057D01*
X205362914Y-192928628D01*
X205434342Y-192857200D01*
X205434342Y-193000057D01*
X207220057Y-192428628D02*
X207291485Y-192357200D01*
X207434342Y-192285771D01*
X207791485Y-192285771D01*
X207934342Y-192357200D01*
X208005771Y-192428628D01*
X208077200Y-192571485D01*
X208077200Y-192714342D01*
X208005771Y-192928628D01*
X207148628Y-193785771D01*
X208077200Y-193785771D01*
X209005771Y-192285771D02*
X209148628Y-192285771D01*
X209291485Y-192357200D01*
X209362914Y-192428628D01*
X209434342Y-192571485D01*
X209505771Y-192857200D01*
X209505771Y-193214342D01*
X209434342Y-193500057D01*
X209362914Y-193642914D01*
X209291485Y-193714342D01*
X209148628Y-193785771D01*
X209005771Y-193785771D01*
X208862914Y-193714342D01*
X208791485Y-193642914D01*
X208720057Y-193500057D01*
X208648628Y-193214342D01*
X208648628Y-192857200D01*
X208720057Y-192571485D01*
X208791485Y-192428628D01*
X208862914Y-192357200D01*
X209005771Y-192285771D01*
X210077200Y-192428628D02*
X210148628Y-192357200D01*
X210291485Y-192285771D01*
X210648628Y-192285771D01*
X210791485Y-192357200D01*
X210862914Y-192428628D01*
X210934342Y-192571485D01*
X210934342Y-192714342D01*
X210862914Y-192928628D01*
X210005771Y-193785771D01*
X210934342Y-193785771D01*
X211505771Y-192428628D02*
X211577200Y-192357200D01*
X211720057Y-192285771D01*
X212077200Y-192285771D01*
X212220057Y-192357200D01*
X212291485Y-192428628D01*
X212362914Y-192571485D01*
X212362914Y-192714342D01*
X212291485Y-192928628D01*
X211434342Y-193785771D01*
X212362914Y-193785771D01*
X213005771Y-193214342D02*
X214148628Y-193214342D01*
X215148628Y-192285771D02*
X215291485Y-192285771D01*
X215434342Y-192357200D01*
X215505771Y-192428628D01*
X215577200Y-192571485D01*
X215648628Y-192857200D01*
X215648628Y-193214342D01*
X215577200Y-193500057D01*
X215505771Y-193642914D01*
X215434342Y-193714342D01*
X215291485Y-193785771D01*
X215148628Y-193785771D01*
X215005771Y-193714342D01*
X214934342Y-193642914D01*
X214862914Y-193500057D01*
X214791485Y-193214342D01*
X214791485Y-192857200D01*
X214862914Y-192571485D01*
X214934342Y-192428628D01*
X215005771Y-192357200D01*
X215148628Y-192285771D01*
X216934342Y-192785771D02*
X216934342Y-193785771D01*
X216577200Y-192214342D02*
X216220057Y-193285771D01*
X217148628Y-193285771D01*
X217720057Y-193214342D02*
X218862914Y-193214342D01*
X219505771Y-192428628D02*
X219577200Y-192357200D01*
X219720057Y-192285771D01*
X220077200Y-192285771D01*
X220220057Y-192357200D01*
X220291485Y-192428628D01*
X220362914Y-192571485D01*
X220362914Y-192714342D01*
X220291485Y-192928628D01*
X219434342Y-193785771D01*
X220362914Y-193785771D01*
X220862914Y-192285771D02*
X221862914Y-192285771D01*
X221220057Y-193785771D01*
D10*
D11*
X177002200Y-194507200D02*
X285002200Y-194507200D01*
D10*
D11*
X178434342Y-196585771D02*
X178434342Y-195085771D01*
X179291485Y-196585771D02*
X178648628Y-195728628D01*
X179291485Y-195085771D02*
X178434342Y-195942914D01*
X179934342Y-196585771D02*
X179934342Y-195585771D01*
X179934342Y-195085771D02*
X179862914Y-195157200D01*
X179934342Y-195228628D01*
X180005771Y-195157200D01*
X179934342Y-195085771D01*
X179934342Y-195228628D01*
X181505771Y-196442914D02*
X181434342Y-196514342D01*
X181220057Y-196585771D01*
X181077200Y-196585771D01*
X180862914Y-196514342D01*
X180720057Y-196371485D01*
X180648628Y-196228628D01*
X180577200Y-195942914D01*
X180577200Y-195728628D01*
X180648628Y-195442914D01*
X180720057Y-195300057D01*
X180862914Y-195157200D01*
X181077200Y-195085771D01*
X181220057Y-195085771D01*
X181434342Y-195157200D01*
X181505771Y-195228628D01*
X182791485Y-196585771D02*
X182791485Y-195800057D01*
X182720057Y-195657200D01*
X182577200Y-195585771D01*
X182291485Y-195585771D01*
X182148628Y-195657200D01*
X182791485Y-196514342D02*
X182648628Y-196585771D01*
X182291485Y-196585771D01*
X182148628Y-196514342D01*
X182077200Y-196371485D01*
X182077200Y-196228628D01*
X182148628Y-196085771D01*
X182291485Y-196014342D01*
X182648628Y-196014342D01*
X182791485Y-195942914D01*
X184148628Y-196585771D02*
X184148628Y-195085771D01*
X184148628Y-196514342D02*
X184005771Y-196585771D01*
X183720057Y-196585771D01*
X183577200Y-196514342D01*
X183505771Y-196442914D01*
X183434342Y-196300057D01*
X183434342Y-195871485D01*
X183505771Y-195728628D01*
X183577200Y-195657200D01*
X183720057Y-195585771D01*
X184005771Y-195585771D01*
X184148628Y-195657200D01*
X186005771Y-195800057D02*
X186505771Y-195800057D01*
X186720057Y-196585771D02*
X186005771Y-196585771D01*
X186005771Y-195085771D01*
X186720057Y-195085771D01*
X187362914Y-196442914D02*
X187434342Y-196514342D01*
X187362914Y-196585771D01*
X187291485Y-196514342D01*
X187362914Y-196442914D01*
X187362914Y-196585771D01*
X188077200Y-196585771D02*
X188077200Y-195085771D01*
X188434342Y-195085771D01*
X188648628Y-195157200D01*
X188791485Y-195300057D01*
X188862914Y-195442914D01*
X188934342Y-195728628D01*
X188934342Y-195942914D01*
X188862914Y-196228628D01*
X188791485Y-196371485D01*
X188648628Y-196514342D01*
X188434342Y-196585771D01*
X188077200Y-196585771D01*
X189577200Y-196442914D02*
X189648628Y-196514342D01*
X189577200Y-196585771D01*
X189505771Y-196514342D01*
X189577200Y-196442914D01*
X189577200Y-196585771D01*
X190220057Y-196157200D02*
X190934342Y-196157200D01*
X190077200Y-196585771D02*
X190577200Y-195085771D01*
X191077200Y-196585771D01*
X191577200Y-196442914D02*
X191648628Y-196514342D01*
X191577200Y-196585771D01*
X191505771Y-196514342D01*
X191577200Y-196442914D01*
X191577200Y-196585771D01*
X194577200Y-196585771D02*
X194577200Y-195085771D01*
X194720057Y-196014342D02*
X195148628Y-196585771D01*
X195148628Y-195585771D02*
X194577200Y-196157200D01*
X195791485Y-196585771D02*
X195791485Y-195585771D01*
X195791485Y-195085771D02*
X195720057Y-195157200D01*
X195791485Y-195228628D01*
X195862914Y-195157200D01*
X195791485Y-195085771D01*
X195791485Y-195228628D01*
X197148628Y-196514342D02*
X197005771Y-196585771D01*
X196720057Y-196585771D01*
X196577200Y-196514342D01*
X196505771Y-196442914D01*
X196434342Y-196300057D01*
X196434342Y-195871485D01*
X196505771Y-195728628D01*
X196577200Y-195657200D01*
X196720057Y-195585771D01*
X197005771Y-195585771D01*
X197148628Y-195657200D01*
X198434342Y-196585771D02*
X198434342Y-195800057D01*
X198362914Y-195657200D01*
X198220057Y-195585771D01*
X197934342Y-195585771D01*
X197791485Y-195657200D01*
X198434342Y-196514342D02*
X198291485Y-196585771D01*
X197934342Y-196585771D01*
X197791485Y-196514342D01*
X197720057Y-196371485D01*
X197720057Y-196228628D01*
X197791485Y-196085771D01*
X197934342Y-196014342D01*
X198291485Y-196014342D01*
X198434342Y-195942914D01*
X199791485Y-196585771D02*
X199791485Y-195085771D01*
X199791485Y-196514342D02*
X199648628Y-196585771D01*
X199362914Y-196585771D01*
X199220057Y-196514342D01*
X199148628Y-196442914D01*
X199077200Y-196300057D01*
X199077200Y-195871485D01*
X199148628Y-195728628D01*
X199220057Y-195657200D01*
X199362914Y-195585771D01*
X199648628Y-195585771D01*
X199791485Y-195657200D01*
X202291485Y-195085771D02*
X202005771Y-195085771D01*
X201862914Y-195157200D01*
X201791485Y-195228628D01*
X201648628Y-195442914D01*
X201577200Y-195728628D01*
X201577200Y-196300057D01*
X201648628Y-196442914D01*
X201720057Y-196514342D01*
X201862914Y-196585771D01*
X202148628Y-196585771D01*
X202291485Y-196514342D01*
X202362914Y-196442914D01*
X202434342Y-196300057D01*
X202434342Y-195942914D01*
X202362914Y-195800057D01*
X202291485Y-195728628D01*
X202148628Y-195657200D01*
X201862914Y-195657200D01*
X201720057Y-195728628D01*
X201648628Y-195800057D01*
X201577200Y-195942914D01*
X203077200Y-196442914D02*
X203148628Y-196514342D01*
X203077200Y-196585771D01*
X203005771Y-196514342D01*
X203077200Y-196442914D01*
X203077200Y-196585771D01*
X204077200Y-195085771D02*
X204220057Y-195085771D01*
X204362914Y-195157200D01*
X204434342Y-195228628D01*
X204505771Y-195371485D01*
X204577200Y-195657200D01*
X204577200Y-196014342D01*
X204505771Y-196300057D01*
X204434342Y-196442914D01*
X204362914Y-196514342D01*
X204220057Y-196585771D01*
X204077200Y-196585771D01*
X203934342Y-196514342D01*
X203862914Y-196442914D01*
X203791485Y-196300057D01*
X203720057Y-196014342D01*
X203720057Y-195657200D01*
X203791485Y-195371485D01*
X203862914Y-195228628D01*
X203934342Y-195157200D01*
X204077200Y-195085771D01*
X205220057Y-196442914D02*
X205291485Y-196514342D01*
X205220057Y-196585771D01*
X205148628Y-196514342D01*
X205220057Y-196442914D01*
X205220057Y-196585771D01*
X206720057Y-196585771D02*
X205862914Y-196585771D01*
X206291485Y-196585771D02*
X206291485Y-195085771D01*
X206148628Y-195300057D01*
X206005771Y-195442914D01*
X205862914Y-195514342D01*
X207362914Y-196014342D02*
X208505771Y-196014342D01*
X209077200Y-195085771D02*
X210077200Y-195085771D01*
X209434342Y-196585771D01*
X210720057Y-196585771D02*
X211005771Y-196585771D01*
X211148628Y-196514342D01*
X211220057Y-196442914D01*
X211362914Y-196228628D01*
X211434342Y-195942914D01*
X211434342Y-195371485D01*
X211362914Y-195228628D01*
X211291485Y-195157200D01*
X211148628Y-195085771D01*
X210862914Y-195085771D01*
X210720057Y-195157200D01*
X210648628Y-195228628D01*
X210577200Y-195371485D01*
X210577200Y-195728628D01*
X210648628Y-195871485D01*
X210720057Y-195942914D01*
X210862914Y-196014342D01*
X211148628Y-196014342D01*
X211291485Y-195942914D01*
X211362914Y-195871485D01*
X211434342Y-195728628D01*
X212720057Y-196514342D02*
X212577200Y-196585771D01*
X212291485Y-196585771D01*
X212148628Y-196514342D01*
X212077200Y-196442914D01*
X212005771Y-196300057D01*
X212005771Y-195871485D01*
X212077200Y-195728628D01*
X212148628Y-195657200D01*
X212291485Y-195585771D01*
X212577200Y-195585771D01*
X212720057Y-195657200D01*
X214148628Y-196585771D02*
X213291485Y-196585771D01*
X213720057Y-196585771D02*
X213720057Y-195085771D01*
X213577200Y-195300057D01*
X213434342Y-195442914D01*
X213291485Y-195514342D01*
X215362914Y-196514342D02*
X215220057Y-196585771D01*
X214934342Y-196585771D01*
X214791485Y-196514342D01*
X214720057Y-196371485D01*
X214720057Y-195800057D01*
X214791485Y-195657200D01*
X214934342Y-195585771D01*
X215220057Y-195585771D01*
X215362914Y-195657200D01*
X215434342Y-195800057D01*
X215434342Y-195942914D01*
X214720057Y-196085771D01*
X215934342Y-195085771D02*
X216862914Y-195085771D01*
X216362914Y-195657200D01*
X216577200Y-195657200D01*
X216720057Y-195728628D01*
X216791485Y-195800057D01*
X216862914Y-195942914D01*
X216862914Y-196300057D01*
X216791485Y-196442914D01*
X216720057Y-196514342D01*
X216577200Y-196585771D01*
X216148628Y-196585771D01*
X216005771Y-196514342D01*
X215934342Y-196442914D01*
X218148628Y-196585771D02*
X218148628Y-195800057D01*
X218077200Y-195657200D01*
X217934342Y-195585771D01*
X217648628Y-195585771D01*
X217505771Y-195657200D01*
X218148628Y-196514342D02*
X218005771Y-196585771D01*
X217648628Y-196585771D01*
X217505771Y-196514342D01*
X217434342Y-196371485D01*
X217434342Y-196228628D01*
X217505771Y-196085771D01*
X217648628Y-196014342D01*
X218005771Y-196014342D01*
X218148628Y-195942914D01*
X219505771Y-195585771D02*
X219505771Y-196585771D01*
X219148628Y-195014342D02*
X218791485Y-196085771D01*
X219720057Y-196085771D01*
X220577200Y-195085771D02*
X220720057Y-195085771D01*
X220862914Y-195157200D01*
X220934342Y-195228628D01*
X221005771Y-195371485D01*
X221077200Y-195657200D01*
X221077200Y-196014342D01*
X221005771Y-196300057D01*
X220934342Y-196442914D01*
X220862914Y-196514342D01*
X220720057Y-196585771D01*
X220577200Y-196585771D01*
X220434342Y-196514342D01*
X220362914Y-196442914D01*
X220291485Y-196300057D01*
X220220057Y-196014342D01*
X220220057Y-195657200D01*
X220291485Y-195371485D01*
X220362914Y-195228628D01*
X220434342Y-195157200D01*
X220577200Y-195085771D01*
X221720057Y-196585771D02*
X221720057Y-195085771D01*
X221720057Y-195657200D02*
X221862914Y-195585771D01*
X222148628Y-195585771D01*
X222291485Y-195657200D01*
X222362914Y-195728628D01*
X222434342Y-195871485D01*
X222434342Y-196300057D01*
X222362914Y-196442914D01*
X222291485Y-196514342D01*
X222148628Y-196585771D01*
X221862914Y-196585771D01*
X221720057Y-196514342D01*
X222862914Y-196014342D02*
X222934342Y-195942914D01*
X223077200Y-195871485D01*
X223362914Y-196014342D01*
X223505771Y-195942914D01*
X223577200Y-195871485D01*
X224934342Y-196585771D02*
X224077200Y-196585771D01*
X224505771Y-196585771D02*
X224505771Y-195085771D01*
X224362914Y-195300057D01*
X224220057Y-195442914D01*
X224077200Y-195514342D01*
X226362914Y-196585771D02*
X225505771Y-196585771D01*
X225934342Y-196585771D02*
X225934342Y-195085771D01*
X225791485Y-195300057D01*
X225648628Y-195442914D01*
X225505771Y-195514342D01*
X227648628Y-195085771D02*
X227362914Y-195085771D01*
X227220057Y-195157200D01*
X227148628Y-195228628D01*
X227005771Y-195442914D01*
X226934342Y-195728628D01*
X226934342Y-196300057D01*
X227005771Y-196442914D01*
X227077199Y-196514342D01*
X227220057Y-196585771D01*
X227505771Y-196585771D01*
X227648628Y-196514342D01*
X227720057Y-196442914D01*
X227791485Y-196300057D01*
X227791485Y-195942914D01*
X227720057Y-195800057D01*
X227648628Y-195728628D01*
X227505771Y-195657200D01*
X227220057Y-195657200D01*
X227077199Y-195728628D01*
X227005771Y-195800057D01*
X226934342Y-195942914D01*
X228220057Y-196014342D02*
X228291485Y-195942914D01*
X228434342Y-195871485D01*
X228720057Y-196014342D01*
X228862914Y-195942914D01*
X228934342Y-195871485D01*
X230148628Y-195585771D02*
X230148628Y-196585771D01*
X229505771Y-195585771D02*
X229505771Y-196371485D01*
X229577199Y-196514342D01*
X229720057Y-196585771D01*
X229934342Y-196585771D01*
X230077199Y-196514342D01*
X230148628Y-196442914D01*
X230862914Y-196585771D02*
X230862914Y-195085771D01*
X230862914Y-195657200D02*
X231005771Y-195585771D01*
X231291485Y-195585771D01*
X231434342Y-195657200D01*
X231505771Y-195728628D01*
X231577200Y-195871485D01*
X231577200Y-196300057D01*
X231505771Y-196442914D01*
X231434342Y-196514342D01*
X231291485Y-196585771D01*
X231005771Y-196585771D01*
X230862914Y-196514342D01*
X232862914Y-195585771D02*
X232862914Y-196585771D01*
X232220057Y-195585771D02*
X232220057Y-196371485D01*
X232291485Y-196514342D01*
X232434342Y-196585771D01*
X232648628Y-196585771D01*
X232791485Y-196514342D01*
X232862914Y-196442914D01*
X233577200Y-195585771D02*
X233577200Y-196585771D01*
X233577200Y-195728628D02*
X233648628Y-195657200D01*
X233791485Y-195585771D01*
X234005771Y-195585771D01*
X234148628Y-195657200D01*
X234220057Y-195800057D01*
X234220057Y-196585771D01*
X234720057Y-195585771D02*
X235291485Y-195585771D01*
X234934342Y-195085771D02*
X234934342Y-196371485D01*
X235005771Y-196514342D01*
X235148628Y-196585771D01*
X235291485Y-196585771D01*
X236434342Y-195585771D02*
X236434342Y-196585771D01*
X235791485Y-195585771D02*
X235791485Y-196371485D01*
X235862914Y-196514342D01*
X236005771Y-196585771D01*
X236220057Y-196585771D01*
X236362914Y-196514342D01*
X236434342Y-196442914D01*
X237077200Y-195228628D02*
X237148628Y-195157200D01*
X237291485Y-195085771D01*
X237648628Y-195085771D01*
X237791485Y-195157200D01*
X237862914Y-195228628D01*
X237934342Y-195371485D01*
X237934342Y-195514342D01*
X237862914Y-195728628D01*
X237005771Y-196585771D01*
X237934342Y-196585771D01*
X239362914Y-196585771D02*
X238505771Y-196585771D01*
X238934342Y-196585771D02*
X238934342Y-195085771D01*
X238791485Y-195300057D01*
X238648628Y-195442914D01*
X238505771Y-195514342D01*
X240005771Y-196442914D02*
X240077199Y-196514342D01*
X240005771Y-196585771D01*
X239934342Y-196514342D01*
X240005771Y-196442914D01*
X240005771Y-196585771D01*
X241005771Y-195085771D02*
X241148628Y-195085771D01*
X241291485Y-195157200D01*
X241362914Y-195228628D01*
X241434342Y-195371485D01*
X241505771Y-195657200D01*
X241505771Y-196014342D01*
X241434342Y-196300057D01*
X241362914Y-196442914D01*
X241291485Y-196514342D01*
X241148628Y-196585771D01*
X241005771Y-196585771D01*
X240862914Y-196514342D01*
X240791485Y-196442914D01*
X240720057Y-196300057D01*
X240648628Y-196014342D01*
X240648628Y-195657200D01*
X240720057Y-195371485D01*
X240791485Y-195228628D01*
X240862914Y-195157200D01*
X241005771Y-195085771D01*
X242791485Y-195585771D02*
X242791485Y-196585771D01*
X242434342Y-195014342D02*
X242077199Y-196085771D01*
X243005771Y-196085771D01*
X243577199Y-196442914D02*
X243648628Y-196514342D01*
X243577199Y-196585771D01*
X243505771Y-196514342D01*
X243577199Y-196442914D01*
X243577199Y-196585771D01*
X245077199Y-196585771D02*
X244220057Y-196585771D01*
X244648628Y-196585771D02*
X244648628Y-195085771D01*
X244505771Y-195300057D01*
X244362914Y-195442914D01*
X244220057Y-195514342D01*
D10*
D11*
X177002200Y-191507200D02*
X285002200Y-191507200D01*
D10*
D12*
X264411485Y-193785771D02*
X263911485Y-193071485D01*
X263554342Y-193785771D02*
X263554342Y-192285771D01*
X264125771Y-192285771D01*
X264268628Y-192357200D01*
X264340057Y-192428628D01*
X264411485Y-192571485D01*
X264411485Y-192785771D01*
X264340057Y-192928628D01*
X264268628Y-193000057D01*
X264125771Y-193071485D01*
X263554342Y-193071485D01*
X265625771Y-193714342D02*
X265482914Y-193785771D01*
X265197200Y-193785771D01*
X265054342Y-193714342D01*
X264982914Y-193571485D01*
X264982914Y-193000057D01*
X265054342Y-192857200D01*
X265197200Y-192785771D01*
X265482914Y-192785771D01*
X265625771Y-192857200D01*
X265697200Y-193000057D01*
X265697200Y-193142914D01*
X264982914Y-193285771D01*
X266197200Y-192785771D02*
X266554342Y-193785771D01*
X266911485Y-192785771D01*
X267482914Y-193642914D02*
X267554342Y-193714342D01*
X267482914Y-193785771D01*
X267411485Y-193714342D01*
X267482914Y-193642914D01*
X267482914Y-193785771D01*
X267482914Y-192857200D02*
X267554342Y-192928628D01*
X267482914Y-193000057D01*
X267411485Y-192928628D01*
X267482914Y-192857200D01*
X267482914Y-193000057D01*
X270125771Y-193785771D02*
X269268628Y-193785771D01*
X269697200Y-193785771D02*
X269697200Y-192285771D01*
X269554342Y-192500057D01*
X269411485Y-192642914D01*
X269268628Y-192714342D01*
X270768628Y-193642914D02*
X270840057Y-193714342D01*
X270768628Y-193785771D01*
X270697200Y-193714342D01*
X270768628Y-193642914D01*
X270768628Y-193785771D01*
X271411485Y-192428628D02*
X271482914Y-192357200D01*
X271625771Y-192285771D01*
X271982914Y-192285771D01*
X272125771Y-192357200D01*
X272197200Y-192428628D01*
X272268628Y-192571485D01*
X272268628Y-192714342D01*
X272197200Y-192928628D01*
X271340057Y-193785771D01*
X272268628Y-193785771D01*
X273554342Y-193785771D02*
X273554342Y-193000057D01*
X273482914Y-192857200D01*
X273340057Y-192785771D01*
X273054342Y-192785771D01*
X272911485Y-192857200D01*
X273554342Y-193714342D02*
X273411485Y-193785771D01*
X273054342Y-193785771D01*
X272911485Y-193714342D01*
X272840057Y-193571485D01*
X272840057Y-193428628D01*
X272911485Y-193285771D01*
X273054342Y-193214342D01*
X273411485Y-193214342D01*
X273554342Y-193142914D01*
D10*
D11*
X178362914Y-193714342D02*
X178577200Y-193785771D01*
X178934342Y-193785771D01*
X179077200Y-193714342D01*
X179148628Y-193642914D01*
X179220057Y-193500057D01*
X179220057Y-193357200D01*
X179148628Y-193214342D01*
X179077200Y-193142914D01*
X178934342Y-193071485D01*
X178648628Y-193000057D01*
X178505771Y-192928628D01*
X178434342Y-192857200D01*
X178362914Y-192714342D01*
X178362914Y-192571485D01*
X178434342Y-192428628D01*
X178505771Y-192357200D01*
X178648628Y-192285771D01*
X179005771Y-192285771D01*
X179220057Y-192357200D01*
X179862914Y-193785771D02*
X179862914Y-192785771D01*
X179862914Y-192285771D02*
X179791485Y-192357200D01*
X179862914Y-192428628D01*
X179934342Y-192357200D01*
X179862914Y-192285771D01*
X179862914Y-192428628D01*
X180434342Y-192785771D02*
X181220057Y-192785771D01*
X180434342Y-193785771D01*
X181220057Y-193785771D01*
X182362914Y-193714342D02*
X182220057Y-193785771D01*
X181934342Y-193785771D01*
X181791485Y-193714342D01*
X181720057Y-193571485D01*
X181720057Y-193000057D01*
X181791485Y-192857200D01*
X181934342Y-192785771D01*
X182220057Y-192785771D01*
X182362914Y-192857200D01*
X182434342Y-193000057D01*
X182434342Y-193142914D01*
X181720057Y-193285771D01*
X183077200Y-193642914D02*
X183148628Y-193714342D01*
X183077200Y-193785771D01*
X183005771Y-193714342D01*
X183077200Y-193642914D01*
X183077200Y-193785771D01*
X183077200Y-192857200D02*
X183148628Y-192928628D01*
X183077200Y-193000057D01*
X183005771Y-192928628D01*
X183077200Y-192857200D01*
X183077200Y-193000057D01*
X184862914Y-193357200D02*
X185577200Y-193357200D01*
X184720057Y-193785771D02*
X185220057Y-192285771D01*
X185720057Y-193785771D01*
X186862914Y-192785771D02*
X186862914Y-193785771D01*
X186505771Y-192214342D02*
X186148628Y-193285771D01*
X187077200Y-193285771D01*
D10*
D11*
X263434342Y-196585771D02*
X263434342Y-195085771D01*
X264791485Y-196585771D02*
X264791485Y-195085771D01*
X264791485Y-196514342D02*
X264648628Y-196585771D01*
X264362914Y-196585771D01*
X264220057Y-196514342D01*
X264148628Y-196442914D01*
X264077200Y-196300057D01*
X264077200Y-195871485D01*
X264148628Y-195728628D01*
X264220057Y-195657200D01*
X264362914Y-195585771D01*
X264648628Y-195585771D01*
X264791485Y-195657200D01*
X265505771Y-196442914D02*
X265577200Y-196514342D01*
X265505771Y-196585771D01*
X265434342Y-196514342D01*
X265505771Y-196442914D01*
X265505771Y-196585771D01*
X265505771Y-195657200D02*
X265577200Y-195728628D01*
X265505771Y-195800057D01*
X265434342Y-195728628D01*
X265505771Y-195657200D01*
X265505771Y-195800057D01*
X268148628Y-196585771D02*
X267291485Y-196585771D01*
X267720057Y-196585771D02*
X267720057Y-195085771D01*
X267577200Y-195300057D01*
X267434342Y-195442914D01*
X267291485Y-195514342D01*
X269862914Y-195014342D02*
X268577200Y-196942914D01*
X271148628Y-196585771D02*
X270291485Y-196585771D01*
X270720057Y-196585771D02*
X270720057Y-195085771D01*
X270577200Y-195300057D01*
X270434342Y-195442914D01*
X270291485Y-195514342D01*
D10*
D11*
X177002200Y-187507200D02*
X285002200Y-187507200D01*
D10*
D13*
X178714580Y-188211961D02*
X179857438Y-188211961D01*
X179036009Y-190211961D02*
X179286009Y-188211961D01*
X180274104Y-190211961D02*
X180440771Y-188878628D01*
X180524104Y-188211961D02*
X180416961Y-188307200D01*
X180500295Y-188402438D01*
X180607438Y-188307200D01*
X180524104Y-188211961D01*
X180500295Y-188402438D01*
X181107438Y-188878628D02*
X181869342Y-188878628D01*
X181476485Y-188211961D02*
X181262200Y-189926247D01*
X181333628Y-190116723D01*
X181512200Y-190211961D01*
X181702676Y-190211961D01*
X182655057Y-190211961D02*
X182476485Y-190116723D01*
X182405057Y-189926247D01*
X182619342Y-188211961D01*
X184190771Y-190116723D02*
X183988390Y-190211961D01*
X183607438Y-190211961D01*
X183428866Y-190116723D01*
X183357438Y-189926247D01*
X183452676Y-189164342D01*
X183571723Y-188973866D01*
X183774104Y-188878628D01*
X184155057Y-188878628D01*
X184333628Y-188973866D01*
X184405057Y-189164342D01*
X184381247Y-189354819D01*
X183405057Y-189545295D01*
X185155057Y-190021485D02*
X185238390Y-190116723D01*
X185131247Y-190211961D01*
X185047914Y-190116723D01*
X185155057Y-190021485D01*
X185131247Y-190211961D01*
X185286009Y-188973866D02*
X185369342Y-189069104D01*
X185262200Y-189164342D01*
X185178866Y-189069104D01*
X185286009Y-188973866D01*
X185262200Y-189164342D01*
X187738390Y-189164342D02*
X188405057Y-189164342D01*
X188559819Y-190211961D02*
X187607438Y-190211961D01*
X187857438Y-188211961D01*
X188809819Y-188211961D01*
X189333628Y-190116723D02*
X189607438Y-190211961D01*
X190083628Y-190211961D01*
X190286009Y-190116723D01*
X190393152Y-190021485D01*
X190512200Y-189831009D01*
X190536009Y-189640533D01*
X190464580Y-189450057D01*
X190381247Y-189354819D01*
X190202676Y-189259580D01*
X189833628Y-189164342D01*
X189655057Y-189069104D01*
X189571723Y-188973866D01*
X189500295Y-188783390D01*
X189524104Y-188592914D01*
X189643152Y-188402438D01*
X189750295Y-188307200D01*
X189952676Y-188211961D01*
X190428866Y-188211961D01*
X190702676Y-188307200D01*
X191321723Y-190211961D02*
X191571723Y-188211961D01*
X192333628Y-188211961D01*
X192512200Y-188307200D01*
X192595533Y-188402438D01*
X192666961Y-188592914D01*
X192631247Y-188878628D01*
X192512200Y-189069104D01*
X192405057Y-189164342D01*
X192202676Y-189259580D01*
X191440771Y-189259580D01*
X193381247Y-188211961D02*
X194619342Y-188211961D01*
X193857438Y-188973866D01*
X194143152Y-188973866D01*
X194321723Y-189069104D01*
X194405057Y-189164342D01*
X194476485Y-189354819D01*
X194416961Y-189831009D01*
X194297914Y-190021485D01*
X194190771Y-190116723D01*
X193988390Y-190211961D01*
X193416961Y-190211961D01*
X193238390Y-190116723D01*
X193155057Y-190021485D01*
X195357438Y-188402438D02*
X195464580Y-188307200D01*
X195666961Y-188211961D01*
X196143152Y-188211961D01*
X196321723Y-188307200D01*
X196405057Y-188402438D01*
X196476485Y-188592914D01*
X196452676Y-188783390D01*
X196321723Y-189069104D01*
X195036009Y-190211961D01*
X196274104Y-190211961D01*
X197226485Y-189450057D02*
X198750295Y-189450057D01*
X200774104Y-190021485D02*
X200666961Y-190116723D01*
X200369342Y-190211961D01*
X200178866Y-190211961D01*
X199905057Y-190116723D01*
X199738390Y-189926247D01*
X199666961Y-189735771D01*
X199619342Y-189354819D01*
X199655057Y-189069104D01*
X199797914Y-188688152D01*
X199916961Y-188497676D01*
X200131247Y-188307200D01*
X200428866Y-188211961D01*
X200619342Y-188211961D01*
X200893152Y-188307200D01*
X200976485Y-188402438D01*
X201666961Y-188211961D02*
X202905057Y-188211961D01*
X202143152Y-188973866D01*
X202428866Y-188973866D01*
X202607438Y-189069104D01*
X202690771Y-189164342D01*
X202762200Y-189354819D01*
X202702676Y-189831009D01*
X202583628Y-190021485D01*
X202476485Y-190116723D01*
X202274104Y-190211961D01*
X201702676Y-190211961D01*
X201524104Y-190116723D01*
X201440771Y-190021485D01*
X203607438Y-189450057D02*
X205131247Y-189450057D01*
X205988390Y-190211961D02*
X206238390Y-188211961D01*
X206714580Y-188211961D01*
X206988390Y-188307200D01*
X207155057Y-188497676D01*
X207226485Y-188688152D01*
X207274104Y-189069104D01*
X207238390Y-189354819D01*
X207095533Y-189735771D01*
X206976485Y-189926247D01*
X206762200Y-190116723D01*
X206464580Y-190211961D01*
X205988390Y-190211961D01*
X208762200Y-190116723D02*
X208559819Y-190211961D01*
X208178866Y-190211961D01*
X208000295Y-190116723D01*
X207928866Y-189926247D01*
X208024104Y-189164342D01*
X208143152Y-188973866D01*
X208345533Y-188878628D01*
X208726485Y-188878628D01*
X208905057Y-188973866D01*
X208976485Y-189164342D01*
X208952676Y-189354819D01*
X207976485Y-189545295D01*
X209678866Y-188878628D02*
X209988390Y-190211961D01*
X210631247Y-188878628D01*
X211226485Y-190211961D02*
X211476485Y-188211961D01*
X212369342Y-190211961D02*
X211655057Y-189069104D01*
X212619342Y-188211961D02*
X211333628Y-189354819D01*
X213226485Y-190211961D02*
X213393152Y-188878628D01*
X213476485Y-188211961D02*
X213369342Y-188307200D01*
X213452676Y-188402438D01*
X213559819Y-188307200D01*
X213476485Y-188211961D01*
X213452676Y-188402438D01*
X214059819Y-188878628D02*
X214821723Y-188878628D01*
X214428866Y-188211961D02*
X214214580Y-189926247D01*
X214286009Y-190116723D01*
X214464580Y-190211961D01*
X214655057Y-190211961D01*
X215416961Y-189450057D02*
X216940771Y-189450057D01*
X218940771Y-190211961D02*
X218393152Y-189259580D01*
X217797914Y-190211961D02*
X218047914Y-188211961D01*
X218809819Y-188211961D01*
X218988390Y-188307200D01*
X219071723Y-188402438D01*
X219143152Y-188592914D01*
X219107438Y-188878628D01*
X218988390Y-189069104D01*
X218881247Y-189164342D01*
X218678866Y-189259580D01*
X217916961Y-189259580D01*
X220047914Y-188211961D02*
X219845533Y-189831009D01*
X219916961Y-190021485D01*
X220000295Y-190116723D01*
X220178866Y-190211961D01*
X220559819Y-190211961D01*
X220762200Y-190116723D01*
X220869342Y-190021485D01*
X220988390Y-189831009D01*
X221190771Y-188211961D01*
X221809819Y-190116723D02*
X222083628Y-190211961D01*
X222559819Y-190211961D01*
X222762200Y-190116723D01*
X222869342Y-190021485D01*
X222988390Y-189831009D01*
X223012200Y-189640533D01*
X222940771Y-189450057D01*
X222857438Y-189354819D01*
X222678866Y-189259580D01*
X222309819Y-189164342D01*
X222131247Y-189069104D01*
X222047914Y-188973866D01*
X221976485Y-188783390D01*
X222000295Y-188592914D01*
X222119342Y-188402438D01*
X222226485Y-188307200D01*
X222428866Y-188211961D01*
X222905057Y-188211961D01*
X223178866Y-188307200D01*
X223762200Y-188211961D02*
X224905057Y-188211961D01*
X224083628Y-190211961D02*
X224333628Y-188211961D01*
X225416961Y-189450057D02*
X226940771Y-189450057D01*
X228845533Y-190211961D02*
X227702676Y-190211961D01*
X228274104Y-190211961D02*
X228524104Y-188211961D01*
X228297914Y-188497676D01*
X228083628Y-188688152D01*
X227881247Y-188783390D01*
D10*
D11*
X178934342Y-185600057D02*
X178434342Y-185600057D01*
X178434342Y-186385771D02*
X178434342Y-184885771D01*
X179148628Y-184885771D01*
X179720057Y-186385771D02*
X179720057Y-185385771D01*
X179720057Y-184885771D02*
X179648628Y-184957200D01*
X179720057Y-185028628D01*
X179791485Y-184957200D01*
X179720057Y-184885771D01*
X179720057Y-185028628D01*
X180648628Y-186385771D02*
X180505771Y-186314342D01*
X180434342Y-186171485D01*
X180434342Y-184885771D01*
X181791485Y-186314342D02*
X181648628Y-186385771D01*
X181362914Y-186385771D01*
X181220057Y-186314342D01*
X181148628Y-186171485D01*
X181148628Y-185600057D01*
X181220057Y-185457200D01*
X181362914Y-185385771D01*
X181648628Y-185385771D01*
X181791485Y-185457200D01*
X181862914Y-185600057D01*
X181862914Y-185742914D01*
X181148628Y-185885771D01*
X182505771Y-186242914D02*
X182577200Y-186314342D01*
X182505771Y-186385771D01*
X182434342Y-186314342D01*
X182505771Y-186242914D01*
X182505771Y-186385771D01*
X182505771Y-185457200D02*
X182577200Y-185528628D01*
X182505771Y-185600057D01*
X182434342Y-185528628D01*
X182505771Y-185457200D01*
X182505771Y-185600057D01*
X184934342Y-186314342D02*
X184791485Y-186385771D01*
X184505771Y-186385771D01*
X184362914Y-186314342D01*
X184291485Y-186171485D01*
X184291485Y-185600057D01*
X184362914Y-185457200D01*
X184505771Y-185385771D01*
X184791485Y-185385771D01*
X184934342Y-185457200D01*
X185005771Y-185600057D01*
X185005771Y-185742914D01*
X184291485Y-185885771D01*
X185577200Y-186314342D02*
X185720057Y-186385771D01*
X186005771Y-186385771D01*
X186148628Y-186314342D01*
X186220057Y-186171485D01*
X186220057Y-186100057D01*
X186148628Y-185957200D01*
X186005771Y-185885771D01*
X185791485Y-185885771D01*
X185648628Y-185814342D01*
X185577200Y-185671485D01*
X185577200Y-185600057D01*
X185648628Y-185457200D01*
X185791485Y-185385771D01*
X186005771Y-185385771D01*
X186148628Y-185457200D01*
X186862914Y-185385771D02*
X186862914Y-186885771D01*
X186862914Y-185457200D02*
X187005771Y-185385771D01*
X187291485Y-185385771D01*
X187434342Y-185457200D01*
X187505771Y-185528628D01*
X187577200Y-185671485D01*
X187577200Y-186100057D01*
X187505771Y-186242914D01*
X187434342Y-186314342D01*
X187291485Y-186385771D01*
X187005771Y-186385771D01*
X186862914Y-186314342D01*
X188220057Y-185814342D02*
X189362914Y-185814342D01*
X190077200Y-186385771D02*
X190077200Y-185385771D01*
X190077200Y-185671485D02*
X190148628Y-185528628D01*
X190220057Y-185457200D01*
X190362914Y-185385771D01*
X190505771Y-185385771D01*
X191648628Y-185385771D02*
X191648628Y-186385771D01*
X191005771Y-185385771D02*
X191005771Y-186171485D01*
X191077200Y-186314342D01*
X191220057Y-186385771D01*
X191434342Y-186385771D01*
X191577200Y-186314342D01*
X191648628Y-186242914D01*
X192291485Y-186314342D02*
X192434342Y-186385771D01*
X192720057Y-186385771D01*
X192862914Y-186314342D01*
X192934342Y-186171485D01*
X192934342Y-186100057D01*
X192862914Y-185957200D01*
X192720057Y-185885771D01*
X192505771Y-185885771D01*
X192362914Y-185814342D01*
X192291485Y-185671485D01*
X192291485Y-185600057D01*
X192362914Y-185457200D01*
X192505771Y-185385771D01*
X192720057Y-185385771D01*
X192862914Y-185457200D01*
X193362914Y-185385771D02*
X193934342Y-185385771D01*
X193577200Y-184885771D02*
X193577200Y-186171485D01*
X193648628Y-186314342D01*
X193791485Y-186385771D01*
X193934342Y-186385771D01*
X194434342Y-185814342D02*
X195577200Y-185814342D01*
X196291485Y-186385771D02*
X196291485Y-184885771D01*
X196291485Y-185457200D02*
X196434342Y-185385771D01*
X196720057Y-185385771D01*
X196862914Y-185457200D01*
X196934342Y-185528628D01*
X197005771Y-185671485D01*
X197005771Y-186100057D01*
X196934342Y-186242914D01*
X196862914Y-186314342D01*
X196720057Y-186385771D01*
X196434342Y-186385771D01*
X196291485Y-186314342D01*
X197862914Y-186385771D02*
X197720057Y-186314342D01*
X197648628Y-186242914D01*
X197577200Y-186100057D01*
X197577200Y-185671485D01*
X197648628Y-185528628D01*
X197720057Y-185457200D01*
X197862914Y-185385771D01*
X198077200Y-185385771D01*
X198220057Y-185457200D01*
X198291485Y-185528628D01*
X198362914Y-185671485D01*
X198362914Y-186100057D01*
X198291485Y-186242914D01*
X198220057Y-186314342D01*
X198077200Y-186385771D01*
X197862914Y-186385771D01*
X199648628Y-186385771D02*
X199648628Y-185600057D01*
X199577200Y-185457200D01*
X199434342Y-185385771D01*
X199148628Y-185385771D01*
X199005771Y-185457200D01*
X199648628Y-186314342D02*
X199505771Y-186385771D01*
X199148628Y-186385771D01*
X199005771Y-186314342D01*
X198934342Y-186171485D01*
X198934342Y-186028628D01*
X199005771Y-185885771D01*
X199148628Y-185814342D01*
X199505771Y-185814342D01*
X199648628Y-185742914D01*
X200362914Y-186385771D02*
X200362914Y-185385771D01*
X200362914Y-185671485D02*
X200434342Y-185528628D01*
X200505771Y-185457200D01*
X200648628Y-185385771D01*
X200791485Y-185385771D01*
X201934342Y-186385771D02*
X201934342Y-184885771D01*
X201934342Y-186314342D02*
X201791485Y-186385771D01*
X201505771Y-186385771D01*
X201362914Y-186314342D01*
X201291485Y-186242914D01*
X201220057Y-186100057D01*
X201220057Y-185671485D01*
X201291485Y-185528628D01*
X201362914Y-185457200D01*
X201505771Y-185385771D01*
X201791485Y-185385771D01*
X201934342Y-185457200D01*
X202648628Y-186242914D02*
X202720057Y-186314342D01*
X202648628Y-186385771D01*
X202577200Y-186314342D01*
X202648628Y-186242914D01*
X202648628Y-186385771D01*
X203362914Y-186385771D02*
X203362914Y-184885771D01*
X203505771Y-185814342D02*
X203934342Y-186385771D01*
X203934342Y-185385771D02*
X203362914Y-185957200D01*
X204577200Y-186385771D02*
X204577200Y-185385771D01*
X204577200Y-184885771D02*
X204505771Y-184957200D01*
X204577200Y-185028628D01*
X204648628Y-184957200D01*
X204577200Y-184885771D01*
X204577200Y-185028628D01*
X205934342Y-186314342D02*
X205791485Y-186385771D01*
X205505771Y-186385771D01*
X205362914Y-186314342D01*
X205291485Y-186242914D01*
X205220057Y-186100057D01*
X205220057Y-185671485D01*
X205291485Y-185528628D01*
X205362914Y-185457200D01*
X205505771Y-185385771D01*
X205791485Y-185385771D01*
X205934342Y-185457200D01*
X207220057Y-186385771D02*
X207220057Y-185600057D01*
X207148628Y-185457200D01*
X207005771Y-185385771D01*
X206720057Y-185385771D01*
X206577200Y-185457200D01*
X207220057Y-186314342D02*
X207077200Y-186385771D01*
X206720057Y-186385771D01*
X206577200Y-186314342D01*
X206505771Y-186171485D01*
X206505771Y-186028628D01*
X206577200Y-185885771D01*
X206720057Y-185814342D01*
X207077200Y-185814342D01*
X207220057Y-185742914D01*
X208577200Y-186385771D02*
X208577200Y-184885771D01*
X208577200Y-186314342D02*
X208434342Y-186385771D01*
X208148628Y-186385771D01*
X208005771Y-186314342D01*
X207934342Y-186242914D01*
X207862914Y-186100057D01*
X207862914Y-185671485D01*
X207934342Y-185528628D01*
X208005771Y-185457200D01*
X208148628Y-185385771D01*
X208434342Y-185385771D01*
X208577200Y-185457200D01*
X208934342Y-186528628D02*
X210077200Y-186528628D01*
X210434342Y-185385771D02*
X210434342Y-186885771D01*
X210434342Y-185457200D02*
X210577200Y-185385771D01*
X210862914Y-185385771D01*
X211005771Y-185457200D01*
X211077200Y-185528628D01*
X211148628Y-185671485D01*
X211148628Y-186100057D01*
X211077200Y-186242914D01*
X211005771Y-186314342D01*
X210862914Y-186385771D01*
X210577200Y-186385771D01*
X210434342Y-186314342D01*
X212434342Y-186314342D02*
X212291485Y-186385771D01*
X212005771Y-186385771D01*
X211862914Y-186314342D01*
X211791485Y-186242914D01*
X211720057Y-186100057D01*
X211720057Y-185671485D01*
X211791485Y-185528628D01*
X211862914Y-185457200D01*
X212005771Y-185385771D01*
X212291485Y-185385771D01*
X212434342Y-185457200D01*
X213077200Y-186385771D02*
X213077200Y-184885771D01*
X213077200Y-185457200D02*
X213220057Y-185385771D01*
X213505771Y-185385771D01*
X213648628Y-185457200D01*
X213720057Y-185528628D01*
X213791485Y-185671485D01*
X213791485Y-186100057D01*
X213720057Y-186242914D01*
X213648628Y-186314342D01*
X213505771Y-186385771D01*
X213220057Y-186385771D01*
X213077200Y-186314342D01*
D10*
D11*
X177002200Y-181507200D02*
X285002200Y-181507200D01*
D10*
D11*
X178362914Y-183614342D02*
X178577200Y-183685771D01*
X178934342Y-183685771D01*
X179077200Y-183614342D01*
X179148628Y-183542914D01*
X179220057Y-183400057D01*
X179220057Y-183257200D01*
X179148628Y-183114342D01*
X179077200Y-183042914D01*
X178934342Y-182971485D01*
X178648628Y-182900057D01*
X178505771Y-182828628D01*
X178434342Y-182757200D01*
X178362914Y-182614342D01*
X178362914Y-182471485D01*
X178434342Y-182328628D01*
X178505771Y-182257200D01*
X178648628Y-182185771D01*
X179005771Y-182185771D01*
X179220057Y-182257200D01*
X179862914Y-183685771D02*
X179862914Y-182185771D01*
X180505771Y-183685771D02*
X180505771Y-182900057D01*
X180434342Y-182757200D01*
X180291485Y-182685771D01*
X180077200Y-182685771D01*
X179934342Y-182757200D01*
X179862914Y-182828628D01*
X181791485Y-183614342D02*
X181648628Y-183685771D01*
X181362914Y-183685771D01*
X181220057Y-183614342D01*
X181148628Y-183471485D01*
X181148628Y-182900057D01*
X181220057Y-182757200D01*
X181362914Y-182685771D01*
X181648628Y-182685771D01*
X181791485Y-182757200D01*
X181862914Y-182900057D01*
X181862914Y-183042914D01*
X181148628Y-183185771D01*
X183077200Y-183614342D02*
X182934342Y-183685771D01*
X182648628Y-183685771D01*
X182505771Y-183614342D01*
X182434342Y-183471485D01*
X182434342Y-182900057D01*
X182505771Y-182757200D01*
X182648628Y-182685771D01*
X182934342Y-182685771D01*
X183077200Y-182757200D01*
X183148628Y-182900057D01*
X183148628Y-183042914D01*
X182434342Y-183185771D01*
X183577200Y-182685771D02*
X184148628Y-182685771D01*
X183791485Y-182185771D02*
X183791485Y-183471485D01*
X183862914Y-183614342D01*
X184005771Y-183685771D01*
X184148628Y-183685771D01*
X184648628Y-183542914D02*
X184720057Y-183614342D01*
X184648628Y-183685771D01*
X184577200Y-183614342D01*
X184648628Y-183542914D01*
X184648628Y-183685771D01*
X184648628Y-182757200D02*
X184720057Y-182828628D01*
X184648628Y-182900057D01*
X184577200Y-182828628D01*
X184648628Y-182757200D01*
X184648628Y-182900057D01*
D10*
D12*
X178554342Y-179900057D02*
X179054342Y-179900057D01*
X179268628Y-180685771D02*
X178554342Y-180685771D01*
X178554342Y-179185771D01*
X179268628Y-179185771D01*
X179840057Y-180614342D02*
X179982914Y-180685771D01*
X180268628Y-180685771D01*
X180411485Y-180614342D01*
X180482914Y-180471485D01*
X180482914Y-180400057D01*
X180411485Y-180257200D01*
X180268628Y-180185771D01*
X180054342Y-180185771D01*
X179911485Y-180114342D01*
X179840057Y-179971485D01*
X179840057Y-179900057D01*
X179911485Y-179757200D01*
X180054342Y-179685771D01*
X180268628Y-179685771D01*
X180411485Y-179757200D01*
X181125771Y-179685771D02*
X181125771Y-181185771D01*
X181125771Y-179757200D02*
X181268628Y-179685771D01*
X181554342Y-179685771D01*
X181697200Y-179757200D01*
X181768628Y-179828628D01*
X181840057Y-179971485D01*
X181840057Y-180400057D01*
X181768628Y-180542914D01*
X181697200Y-180614342D01*
X181554342Y-180685771D01*
X181268628Y-180685771D01*
X181125771Y-180614342D01*
X182482914Y-180685771D02*
X182482914Y-179685771D01*
X182482914Y-179971485D02*
X182554342Y-179828628D01*
X182625771Y-179757200D01*
X182768628Y-179685771D01*
X182911485Y-179685771D01*
X183982914Y-180614342D02*
X183840057Y-180685771D01*
X183554342Y-180685771D01*
X183411485Y-180614342D01*
X183340057Y-180471485D01*
X183340057Y-179900057D01*
X183411485Y-179757200D01*
X183554342Y-179685771D01*
X183840057Y-179685771D01*
X183982914Y-179757200D01*
X184054342Y-179900057D01*
X184054342Y-180042914D01*
X183340057Y-180185771D01*
X184625771Y-180614342D02*
X184768628Y-180685771D01*
X185054342Y-180685771D01*
X185197200Y-180614342D01*
X185268628Y-180471485D01*
X185268628Y-180400057D01*
X185197200Y-180257200D01*
X185054342Y-180185771D01*
X184840057Y-180185771D01*
X184697200Y-180114342D01*
X184625771Y-179971485D01*
X184625771Y-179900057D01*
X184697200Y-179757200D01*
X184840057Y-179685771D01*
X185054342Y-179685771D01*
X185197200Y-179757200D01*
X185840057Y-180614342D02*
X185982914Y-180685771D01*
X186268628Y-180685771D01*
X186411485Y-180614342D01*
X186482914Y-180471485D01*
X186482914Y-180400057D01*
X186411485Y-180257200D01*
X186268628Y-180185771D01*
X186054342Y-180185771D01*
X185911485Y-180114342D01*
X185840057Y-179971485D01*
X185840057Y-179900057D01*
X185911485Y-179757200D01*
X186054342Y-179685771D01*
X186268628Y-179685771D01*
X186411485Y-179757200D01*
X187125771Y-180685771D02*
X187125771Y-179685771D01*
X187125771Y-179185771D02*
X187054342Y-179257200D01*
X187125771Y-179328628D01*
X187197200Y-179257200D01*
X187125771Y-179185771D01*
X187125771Y-179328628D01*
X187625771Y-179685771D02*
X188197200Y-179685771D01*
X187840057Y-180685771D02*
X187840057Y-179400057D01*
X187911485Y-179257200D01*
X188054342Y-179185771D01*
X188197200Y-179185771D01*
X189768628Y-180614342D02*
X189982914Y-180685771D01*
X190340057Y-180685771D01*
X190482914Y-180614342D01*
X190554342Y-180542914D01*
X190625771Y-180400057D01*
X190625771Y-180257200D01*
X190554342Y-180114342D01*
X190482914Y-180042914D01*
X190340057Y-179971485D01*
X190054342Y-179900057D01*
X189911485Y-179828628D01*
X189840057Y-179757200D01*
X189768628Y-179614342D01*
X189768628Y-179471485D01*
X189840057Y-179328628D01*
X189911485Y-179257200D01*
X190054342Y-179185771D01*
X190411485Y-179185771D01*
X190625771Y-179257200D01*
X191125771Y-179685771D02*
X191482914Y-180685771D01*
X191840057Y-179685771D02*
X191482914Y-180685771D01*
X191340057Y-181042914D01*
X191268628Y-181114342D01*
X191125771Y-181185771D01*
X192340057Y-180614342D02*
X192482914Y-180685771D01*
X192768628Y-180685771D01*
X192911485Y-180614342D01*
X192982914Y-180471485D01*
X192982914Y-180400057D01*
X192911485Y-180257200D01*
X192768628Y-180185771D01*
X192554342Y-180185771D01*
X192411485Y-180114342D01*
X192340057Y-179971485D01*
X192340057Y-179900057D01*
X192411485Y-179757200D01*
X192554342Y-179685771D01*
X192768628Y-179685771D01*
X192911485Y-179757200D01*
X193411485Y-179685771D02*
X193982914Y-179685771D01*
X193625771Y-179185771D02*
X193625771Y-180471485D01*
X193697200Y-180614342D01*
X193840057Y-180685771D01*
X193982914Y-180685771D01*
X195054342Y-180614342D02*
X194911485Y-180685771D01*
X194625771Y-180685771D01*
X194482914Y-180614342D01*
X194411485Y-180471485D01*
X194411485Y-179900057D01*
X194482914Y-179757200D01*
X194625771Y-179685771D01*
X194911485Y-179685771D01*
X195054342Y-179757200D01*
X195125771Y-179900057D01*
X195125771Y-180042914D01*
X194411485Y-180185771D01*
X195768628Y-180685771D02*
X195768628Y-179685771D01*
X195768628Y-179828628D02*
X195840057Y-179757200D01*
X195982914Y-179685771D01*
X196197200Y-179685771D01*
X196340057Y-179757200D01*
X196411485Y-179900057D01*
X196411485Y-180685771D01*
X196411485Y-179900057D02*
X196482914Y-179757200D01*
X196625771Y-179685771D01*
X196840057Y-179685771D01*
X196982914Y-179757200D01*
X197054342Y-179900057D01*
X197054342Y-180685771D01*
X197697200Y-180614342D02*
X197840057Y-180685771D01*
X198125771Y-180685771D01*
X198268628Y-180614342D01*
X198340057Y-180471485D01*
X198340057Y-180400057D01*
X198268628Y-180257200D01*
X198125771Y-180185771D01*
X197911485Y-180185771D01*
X197768628Y-180114342D01*
X197697200Y-179971485D01*
X197697200Y-179900057D01*
X197768628Y-179757200D01*
X197911485Y-179685771D01*
X198125771Y-179685771D01*
X198268628Y-179757200D01*
D10*
D11*
D10*
D11*
D10*
D11*
D10*
D11*
D10*
D11*
X197002200Y-191507200D02*
X197002200Y-194507200D01*
D10*
D11*
X261002200Y-191507200D02*
X261002200Y-198007200D01*
D14*
X159258000Y-123240800D02*
X159258000Y-116027200D01*
X156006800Y-123240800D02*
X159258000Y-123240800D01*
D15*
X155956000Y-116078000D02*
X155956000Y-116332000D01*
X155956000Y-116332000D02*
X155956000Y-123190000D01*
D14*
X159258000Y-116027200D02*
X156006800Y-116027200D01*
X157175200Y-94234000D02*
X156362400Y-94234000D01*
D15*
X149707600Y-92989400D02*
X149707600Y-90195400D01*
D14*
X156362400Y-100279200D02*
X156362400Y-104394000D01*
X156362400Y-104394000D02*
X157175200Y-104394000D01*
D15*
X146373000Y-89501500D02*
X149929000Y-89501500D01*
X145561000Y-87201500D02*
X146323000Y-86566500D01*
X146323000Y-86566500D02*
X149879000Y-86566500D01*
X145611000Y-88866500D02*
X146373000Y-89501500D01*
D14*
X156362400Y-94234000D02*
X156362400Y-98348800D01*
D15*
X146558000Y-92989400D02*
X146558000Y-90195400D01*
D14*
X153242857Y-86542571D02*
X153385714Y-86590190D01*
X153433333Y-86637809D01*
X153480952Y-86733047D01*
X153480952Y-86875904D01*
X153433333Y-86971142D01*
X153385714Y-87018761D01*
X153290476Y-87066380D01*
X152909523Y-87066380D01*
X152909523Y-86066380D01*
X153242857Y-86066380D01*
X153338095Y-86114000D01*
X153385714Y-86161619D01*
X153433333Y-86256857D01*
X153433333Y-86352095D01*
X153385714Y-86447333D01*
X153338095Y-86494952D01*
X153242857Y-86542571D01*
X152909523Y-86542571D01*
X153861904Y-86780666D02*
X154338095Y-86780666D01*
X153766666Y-87066380D02*
X154100000Y-86066380D01*
X154433333Y-87066380D01*
X154623809Y-86066380D02*
X155195238Y-86066380D01*
X154909523Y-87066380D02*
X154909523Y-86066380D01*
X155528571Y-86685428D02*
X156290476Y-86685428D01*
X155909523Y-87066380D02*
X155909523Y-86304476D01*
D11*
X139625428Y-79736857D02*
X139625428Y-79365428D01*
X139854000Y-79565428D01*
X139854000Y-79479714D01*
X139882571Y-79422571D01*
X139911142Y-79394000D01*
X139968285Y-79365428D01*
X140111142Y-79365428D01*
X140168285Y-79394000D01*
X140196857Y-79422571D01*
X140225428Y-79479714D01*
X140225428Y-79651142D01*
X140196857Y-79708285D01*
X140168285Y-79736857D01*
X139625428Y-79194000D02*
X140225428Y-78994000D01*
X139625428Y-78794000D01*
X139625428Y-78651142D02*
X139625428Y-78279714D01*
X139854000Y-78479714D01*
X139854000Y-78394000D01*
X139882571Y-78336857D01*
X139911142Y-78308285D01*
X139968285Y-78279714D01*
X140111142Y-78279714D01*
X140168285Y-78308285D01*
X140196857Y-78336857D01*
X140225428Y-78394000D01*
X140225428Y-78565428D01*
X140196857Y-78622571D01*
X140168285Y-78651142D01*
D14*
X155109523Y-91152380D02*
X154633333Y-91152380D01*
X154585714Y-91628571D01*
X154633333Y-91580952D01*
X154728571Y-91533333D01*
X154966666Y-91533333D01*
X155061904Y-91580952D01*
X155109523Y-91628571D01*
X155157142Y-91723809D01*
X155157142Y-91961904D01*
X155109523Y-92057142D01*
X155061904Y-92104761D01*
X154966666Y-92152380D01*
X154728571Y-92152380D01*
X154633333Y-92104761D01*
X154585714Y-92057142D01*
X155442857Y-91152380D02*
X155776190Y-92152380D01*
X156109523Y-91152380D01*
X139138095Y-111547619D02*
X139185714Y-111500000D01*
X139280952Y-111452380D01*
X139519047Y-111452380D01*
X139614285Y-111500000D01*
X139661904Y-111547619D01*
X139709523Y-111642857D01*
X139709523Y-111738095D01*
X139661904Y-111880952D01*
X139090476Y-112452380D01*
X139709523Y-112452380D01*
X140328571Y-111452380D02*
X140423809Y-111452380D01*
X140519047Y-111500000D01*
X140566666Y-111547619D01*
X140614285Y-111642857D01*
X140661904Y-111833333D01*
X140661904Y-112071428D01*
X140614285Y-112261904D01*
X140566666Y-112357142D01*
X140519047Y-112404761D01*
X140423809Y-112452380D01*
X140328571Y-112452380D01*
X140233333Y-112404761D01*
X140185714Y-112357142D01*
X140138095Y-112261904D01*
X140090476Y-112071428D01*
X140090476Y-111833333D01*
X140138095Y-111642857D01*
X140185714Y-111547619D01*
X140233333Y-111500000D01*
X140328571Y-111452380D01*
X139300000Y-84683523D02*
X139261904Y-84759714D01*
X139261904Y-84874000D01*
X139300000Y-84988285D01*
X139376190Y-85064476D01*
X139452380Y-85102571D01*
X139604761Y-85140666D01*
X139719047Y-85140666D01*
X139871428Y-85102571D01*
X139947619Y-85064476D01*
X140023809Y-84988285D01*
X140061904Y-84874000D01*
X140061904Y-84797809D01*
X140023809Y-84683523D01*
X139985714Y-84645428D01*
X139719047Y-84645428D01*
X139719047Y-84797809D01*
X140061904Y-84302571D02*
X139261904Y-84302571D01*
X140061904Y-83845428D01*
X139261904Y-83845428D01*
X140061904Y-83464476D02*
X139261904Y-83464476D01*
X139261904Y-83274000D01*
X139300000Y-83159714D01*
X139376190Y-83083523D01*
X139452380Y-83045428D01*
X139604761Y-83007333D01*
X139719047Y-83007333D01*
X139871428Y-83045428D01*
X139947619Y-83083523D01*
X140023809Y-83159714D01*
X140061904Y-83274000D01*
X140061904Y-83464476D01*
X156104761Y-111894952D02*
X156009523Y-111847333D01*
X155961904Y-111799714D01*
X155914285Y-111704476D01*
X155914285Y-111656857D01*
X155961904Y-111561619D01*
X156009523Y-111514000D01*
X156104761Y-111466380D01*
X156295238Y-111466380D01*
X156390476Y-111514000D01*
X156438095Y-111561619D01*
X156485714Y-111656857D01*
X156485714Y-111704476D01*
X156438095Y-111799714D01*
X156390476Y-111847333D01*
X156295238Y-111894952D01*
X156104761Y-111894952D01*
X156009523Y-111942571D01*
X155961904Y-111990190D01*
X155914285Y-112085428D01*
X155914285Y-112275904D01*
X155961904Y-112371142D01*
X156009523Y-112418761D01*
X156104761Y-112466380D01*
X156295238Y-112466380D01*
X156390476Y-112418761D01*
X156438095Y-112371142D01*
X156485714Y-112275904D01*
X156485714Y-112085428D01*
X156438095Y-111990190D01*
X156390476Y-111942571D01*
X156295238Y-111894952D01*
X139652380Y-86066380D02*
X139747619Y-86066380D01*
X139842857Y-86114000D01*
X139890476Y-86161619D01*
X139938095Y-86256857D01*
X139985714Y-86447333D01*
X139985714Y-86685428D01*
X139938095Y-86875904D01*
X139890476Y-86971142D01*
X139842857Y-87018761D01*
X139747619Y-87066380D01*
X139652380Y-87066380D01*
X139557142Y-87018761D01*
X139509523Y-86971142D01*
X139461904Y-86875904D01*
X139414285Y-86685428D01*
X139414285Y-86447333D01*
X139461904Y-86256857D01*
X139509523Y-86161619D01*
X139557142Y-86114000D01*
X139652380Y-86066380D01*
X139934904Y-76892095D02*
X139553952Y-77158761D01*
X139934904Y-77349238D02*
X139134904Y-77349238D01*
X139134904Y-77044476D01*
X139173000Y-76968285D01*
X139211095Y-76930190D01*
X139287285Y-76892095D01*
X139401571Y-76892095D01*
X139477761Y-76930190D01*
X139515857Y-76968285D01*
X139553952Y-77044476D01*
X139553952Y-77349238D01*
X139896809Y-76587333D02*
X139934904Y-76473047D01*
X139934904Y-76282571D01*
X139896809Y-76206380D01*
X139858714Y-76168285D01*
X139782523Y-76130190D01*
X139706333Y-76130190D01*
X139630142Y-76168285D01*
X139592047Y-76206380D01*
X139553952Y-76282571D01*
X139515857Y-76434952D01*
X139477761Y-76511142D01*
X139439666Y-76549238D01*
X139363476Y-76587333D01*
X139287285Y-76587333D01*
X139211095Y-76549238D01*
X139173000Y-76511142D01*
X139134904Y-76434952D01*
X139134904Y-76244476D01*
X139173000Y-76130190D01*
X139134904Y-75901619D02*
X139134904Y-75444476D01*
X139934904Y-75673047D02*
X139134904Y-75673047D01*
X139509523Y-115006380D02*
X139700000Y-115006380D01*
X139795238Y-114958761D01*
X139842857Y-114911142D01*
X139938095Y-114768285D01*
X139985714Y-114577809D01*
X139985714Y-114196857D01*
X139938095Y-114101619D01*
X139890476Y-114054000D01*
X139795238Y-114006380D01*
X139604761Y-114006380D01*
X139509523Y-114054000D01*
X139461904Y-114101619D01*
X139414285Y-114196857D01*
X139414285Y-114434952D01*
X139461904Y-114530190D01*
X139509523Y-114577809D01*
X139604761Y-114625428D01*
X139795238Y-114625428D01*
X139890476Y-114577809D01*
X139938095Y-114530190D01*
X139985714Y-114434952D01*
X156495885Y-116642857D02*
X156610171Y-116680952D01*
X156648266Y-116719047D01*
X156686361Y-116795238D01*
X156686361Y-116909523D01*
X156648266Y-116985714D01*
X156610171Y-117023809D01*
X156533980Y-117061904D01*
X156229219Y-117061904D01*
X156229219Y-116261904D01*
X156495885Y-116261904D01*
X156572076Y-116300000D01*
X156610171Y-116338095D01*
X156648266Y-116414285D01*
X156648266Y-116490476D01*
X156610171Y-116566666D01*
X156572076Y-116604761D01*
X156495885Y-116642857D01*
X156229219Y-116642857D01*
X156991123Y-116833333D02*
X157372076Y-116833333D01*
X156914933Y-117061904D02*
X157181600Y-116261904D01*
X157448266Y-117061904D01*
X157600647Y-116261904D02*
X158057790Y-116261904D01*
X157829219Y-117061904D02*
X157829219Y-116261904D01*
X158324457Y-116757142D02*
X158933980Y-116757142D01*
X158629219Y-117061904D02*
X158629219Y-116452380D01*
X139985714Y-89606380D02*
X139414285Y-89606380D01*
X139700000Y-89606380D02*
X139700000Y-88606380D01*
X139604761Y-88749238D01*
X139509523Y-88844476D01*
X139414285Y-88892095D01*
X139414285Y-91241619D02*
X139461904Y-91194000D01*
X139557142Y-91146380D01*
X139795238Y-91146380D01*
X139890476Y-91194000D01*
X139938095Y-91241619D01*
X139985714Y-91336857D01*
X139985714Y-91432095D01*
X139938095Y-91574952D01*
X139366666Y-92146380D01*
X139985714Y-92146380D01*
X156521285Y-122542857D02*
X156635571Y-122580952D01*
X156673666Y-122619047D01*
X156711761Y-122695238D01*
X156711761Y-122809523D01*
X156673666Y-122885714D01*
X156635571Y-122923809D01*
X156559380Y-122961904D01*
X156254619Y-122961904D01*
X156254619Y-122161904D01*
X156521285Y-122161904D01*
X156597476Y-122200000D01*
X156635571Y-122238095D01*
X156673666Y-122314285D01*
X156673666Y-122390476D01*
X156635571Y-122466666D01*
X156597476Y-122504761D01*
X156521285Y-122542857D01*
X156254619Y-122542857D01*
X157016523Y-122733333D02*
X157397476Y-122733333D01*
X156940333Y-122961904D02*
X157207000Y-122161904D01*
X157473666Y-122961904D01*
X157626047Y-122161904D02*
X158083190Y-122161904D01*
X157854619Y-122961904D02*
X157854619Y-122161904D01*
X158349857Y-122657142D02*
X158959380Y-122657142D01*
X156009523Y-115006380D02*
X155438095Y-115006380D01*
X155723809Y-115006380D02*
X155723809Y-114006380D01*
X155628571Y-114149238D01*
X155533333Y-114244476D01*
X155438095Y-114292095D01*
X156628571Y-114006380D02*
X156723809Y-114006380D01*
X156819047Y-114054000D01*
X156866666Y-114101619D01*
X156914285Y-114196857D01*
X156961904Y-114387333D01*
X156961904Y-114625428D01*
X156914285Y-114815904D01*
X156866666Y-114911142D01*
X156819047Y-114958761D01*
X156723809Y-115006380D01*
X156628571Y-115006380D01*
X156533333Y-114958761D01*
X156485714Y-114911142D01*
X156438095Y-114815904D01*
X156390476Y-114625428D01*
X156390476Y-114387333D01*
X156438095Y-114196857D01*
X156485714Y-114101619D01*
X156533333Y-114054000D01*
X156628571Y-114006380D01*
X139138095Y-109021619D02*
X139185714Y-108974000D01*
X139280952Y-108926380D01*
X139519047Y-108926380D01*
X139614285Y-108974000D01*
X139661904Y-109021619D01*
X139709523Y-109116857D01*
X139709523Y-109212095D01*
X139661904Y-109354952D01*
X139090476Y-109926380D01*
X139709523Y-109926380D01*
X140661904Y-109926380D02*
X140090476Y-109926380D01*
X140376190Y-109926380D02*
X140376190Y-108926380D01*
X140280952Y-109069238D01*
X140185714Y-109164476D01*
X140090476Y-109212095D01*
X156009523Y-107386380D02*
X155438095Y-107386380D01*
X155723809Y-107386380D02*
X155723809Y-106386380D01*
X155628571Y-106529238D01*
X155533333Y-106624476D01*
X155438095Y-106672095D01*
X156485714Y-107386380D02*
X156676190Y-107386380D01*
X156771428Y-107338761D01*
X156819047Y-107291142D01*
X156914285Y-107148285D01*
X156961904Y-106957809D01*
X156961904Y-106576857D01*
X156914285Y-106481619D01*
X156866666Y-106434000D01*
X156771428Y-106386380D01*
X156580952Y-106386380D01*
X156485714Y-106434000D01*
X156438095Y-106481619D01*
X156390476Y-106576857D01*
X156390476Y-106814952D01*
X156438095Y-106910190D01*
X156485714Y-106957809D01*
X156580952Y-107005428D01*
X156771428Y-107005428D01*
X156866666Y-106957809D01*
X156914285Y-106910190D01*
X156961904Y-106814952D01*
X156009523Y-109926380D02*
X155438095Y-109926380D01*
X155723809Y-109926380D02*
X155723809Y-108926380D01*
X155628571Y-109069238D01*
X155533333Y-109164476D01*
X155438095Y-109212095D01*
X156580952Y-109354952D02*
X156485714Y-109307333D01*
X156438095Y-109259714D01*
X156390476Y-109164476D01*
X156390476Y-109116857D01*
X156438095Y-109021619D01*
X156485714Y-108974000D01*
X156580952Y-108926380D01*
X156771428Y-108926380D01*
X156866666Y-108974000D01*
X156914285Y-109021619D01*
X156961904Y-109116857D01*
X156961904Y-109164476D01*
X156914285Y-109259714D01*
X156866666Y-109307333D01*
X156771428Y-109354952D01*
X156580952Y-109354952D01*
X156485714Y-109402571D01*
X156438095Y-109450190D01*
X156390476Y-109545428D01*
X156390476Y-109735904D01*
X156438095Y-109831142D01*
X156485714Y-109878761D01*
X156580952Y-109926380D01*
X156771428Y-109926380D01*
X156866666Y-109878761D01*
X156914285Y-109831142D01*
X156961904Y-109735904D01*
X156961904Y-109545428D01*
X156914285Y-109450190D01*
X156866666Y-109402571D01*
X156771428Y-109354952D01*
X139890476Y-101306380D02*
X139700000Y-101306380D01*
X139604761Y-101354000D01*
X139557142Y-101401619D01*
X139461904Y-101544476D01*
X139414285Y-101734952D01*
X139414285Y-102115904D01*
X139461904Y-102211142D01*
X139509523Y-102258761D01*
X139604761Y-102306380D01*
X139795238Y-102306380D01*
X139890476Y-102258761D01*
X139938095Y-102211142D01*
X139985714Y-102115904D01*
X139985714Y-101877809D01*
X139938095Y-101782571D01*
X139890476Y-101734952D01*
X139795238Y-101687333D01*
X139604761Y-101687333D01*
X139509523Y-101734952D01*
X139461904Y-101782571D01*
X139414285Y-101877809D01*
X139890476Y-96559714D02*
X139890476Y-97226380D01*
X139652380Y-96178761D02*
X139414285Y-96893047D01*
X140033333Y-96893047D01*
X139604761Y-106814952D02*
X139509523Y-106767333D01*
X139461904Y-106719714D01*
X139414285Y-106624476D01*
X139414285Y-106576857D01*
X139461904Y-106481619D01*
X139509523Y-106434000D01*
X139604761Y-106386380D01*
X139795238Y-106386380D01*
X139890476Y-106434000D01*
X139938095Y-106481619D01*
X139985714Y-106576857D01*
X139985714Y-106624476D01*
X139938095Y-106719714D01*
X139890476Y-106767333D01*
X139795238Y-106814952D01*
X139604761Y-106814952D01*
X139509523Y-106862571D01*
X139461904Y-106910190D01*
X139414285Y-107005428D01*
X139414285Y-107195904D01*
X139461904Y-107291142D01*
X139509523Y-107338761D01*
X139604761Y-107386380D01*
X139795238Y-107386380D01*
X139890476Y-107338761D01*
X139938095Y-107291142D01*
X139985714Y-107195904D01*
X139985714Y-107005428D01*
X139938095Y-106910190D01*
X139890476Y-106862571D01*
X139795238Y-106814952D01*
X139366666Y-93686380D02*
X139985714Y-93686380D01*
X139652380Y-94067333D01*
X139795238Y-94067333D01*
X139890476Y-94114952D01*
X139938095Y-94162571D01*
X139985714Y-94257809D01*
X139985714Y-94495904D01*
X139938095Y-94591142D01*
X139890476Y-94638761D01*
X139795238Y-94686380D01*
X139509523Y-94686380D01*
X139414285Y-94638761D01*
X139366666Y-94591142D01*
X139938095Y-98766380D02*
X139461904Y-98766380D01*
X139414285Y-99242571D01*
X139461904Y-99194952D01*
X139557142Y-99147333D01*
X139795238Y-99147333D01*
X139890476Y-99194952D01*
X139938095Y-99242571D01*
X139985714Y-99337809D01*
X139985714Y-99575904D01*
X139938095Y-99671142D01*
X139890476Y-99718761D01*
X139795238Y-99766380D01*
X139557142Y-99766380D01*
X139461904Y-99718761D01*
X139414285Y-99671142D01*
X139366666Y-103846380D02*
X140033333Y-103846380D01*
X139604761Y-104846380D01*
X154661904Y-89082571D02*
X154995238Y-89082571D01*
X155138095Y-89606380D02*
X154661904Y-89606380D01*
X154661904Y-88606380D01*
X155138095Y-88606380D01*
X155566666Y-89606380D02*
X155566666Y-88606380D01*
X156138095Y-89606380D01*
X156138095Y-88606380D01*
X155733828Y-99675904D02*
X155733828Y-98875904D01*
X156190971Y-99675904D01*
X156190971Y-98875904D01*
X157029066Y-99599714D02*
X156990971Y-99637809D01*
X156876685Y-99675904D01*
X156800495Y-99675904D01*
X156686209Y-99637809D01*
X156610019Y-99561619D01*
X156571923Y-99485428D01*
X156533828Y-99333047D01*
X156533828Y-99218761D01*
X156571923Y-99066380D01*
X156610019Y-98990190D01*
X156686209Y-98914000D01*
X156800495Y-98875904D01*
X156876685Y-98875904D01*
X156990971Y-98914000D01*
X157029066Y-98952095D01*
D16*
X146140419Y-91356038D02*
X146140419Y-91451276D01*
X146092800Y-91546514D01*
X146045180Y-91594133D01*
X145949942Y-91641752D01*
X145759466Y-91689371D01*
X145521371Y-91689371D01*
X145330895Y-91641752D01*
X145235657Y-91594133D01*
X145188038Y-91546514D01*
X145140419Y-91451276D01*
X145140419Y-91356038D01*
X145188038Y-91260800D01*
X145235657Y-91213180D01*
X145330895Y-91165561D01*
X145521371Y-91117942D01*
X145759466Y-91117942D01*
X145949942Y-91165561D01*
X146045180Y-91213180D01*
X146092800Y-91260800D01*
X146140419Y-91356038D01*
X145140419Y-92022704D02*
X145807085Y-92546514D01*
X145807085Y-92022704D02*
X145140419Y-92546514D01*
X146140419Y-92832228D02*
X146140419Y-93498895D01*
X145140419Y-93070323D01*
X146140419Y-94070323D02*
X146140419Y-94165561D01*
X146092800Y-94260800D01*
X146045180Y-94308419D01*
X145949942Y-94356038D01*
X145759466Y-94403657D01*
X145521371Y-94403657D01*
X145330895Y-94356038D01*
X145235657Y-94308419D01*
X145188038Y-94260800D01*
X145140419Y-94165561D01*
X145140419Y-94070323D01*
X145188038Y-93975085D01*
X145235657Y-93927466D01*
X145330895Y-93879847D01*
X145521371Y-93832228D01*
X145759466Y-93832228D01*
X145949942Y-93879847D01*
X146045180Y-93927466D01*
X146092800Y-93975085D01*
X146140419Y-94070323D01*
X142714838Y-89252380D02*
X142810076Y-89252380D01*
X142905314Y-89300000D01*
X142952933Y-89347619D01*
X143000552Y-89442857D01*
X143048171Y-89633333D01*
X143048171Y-89871428D01*
X143000552Y-90061904D01*
X142952933Y-90157142D01*
X142905314Y-90204761D01*
X142810076Y-90252380D01*
X142714838Y-90252380D01*
X142619600Y-90204761D01*
X142571980Y-90157142D01*
X142524361Y-90061904D01*
X142476742Y-89871428D01*
X142476742Y-89633333D01*
X142524361Y-89442857D01*
X142571980Y-89347619D01*
X142619600Y-89300000D01*
X142714838Y-89252380D01*
X143381504Y-90252380D02*
X143905314Y-89585714D01*
X143381504Y-89585714D02*
X143905314Y-90252380D01*
X144714838Y-89252380D02*
X144524361Y-89252380D01*
X144429123Y-89300000D01*
X144381504Y-89347619D01*
X144286266Y-89490476D01*
X144238647Y-89680952D01*
X144238647Y-90061904D01*
X144286266Y-90157142D01*
X144333885Y-90204761D01*
X144429123Y-90252380D01*
X144619600Y-90252380D01*
X144714838Y-90204761D01*
X144762457Y-90157142D01*
X144810076Y-90061904D01*
X144810076Y-89823809D01*
X144762457Y-89728571D01*
X144714838Y-89680952D01*
X144619600Y-89633333D01*
X144429123Y-89633333D01*
X144333885Y-89680952D01*
X144286266Y-89728571D01*
X144238647Y-89823809D01*
X145381504Y-89680952D02*
X145286266Y-89633333D01*
X145238647Y-89585714D01*
X145191028Y-89490476D01*
X145191028Y-89442857D01*
X145238647Y-89347619D01*
X145286266Y-89300000D01*
X145381504Y-89252380D01*
X145571980Y-89252380D01*
X145667219Y-89300000D01*
X145714838Y-89347619D01*
X145762457Y-89442857D01*
X145762457Y-89490476D01*
X145714838Y-89585714D01*
X145667219Y-89633333D01*
X145571980Y-89680952D01*
X145381504Y-89680952D01*
X145286266Y-89728571D01*
X145238647Y-89776190D01*
X145191028Y-89871428D01*
X145191028Y-90061904D01*
X145238647Y-90157142D01*
X145286266Y-90204761D01*
X145381504Y-90252380D01*
X145571980Y-90252380D01*
X145667219Y-90204761D01*
X145714838Y-90157142D01*
X145762457Y-90061904D01*
X145762457Y-89871428D01*
X145714838Y-89776190D01*
X145667219Y-89728571D01*
X145571980Y-89680952D01*
D14*
X139173028Y-81895904D02*
X139173028Y-81095904D01*
X139630171Y-81895904D01*
X139630171Y-81095904D01*
X140468266Y-81819714D02*
X140430171Y-81857809D01*
X140315885Y-81895904D01*
X140239695Y-81895904D01*
X140125409Y-81857809D01*
X140049219Y-81781619D01*
X140011123Y-81705428D01*
X139973028Y-81553047D01*
X139973028Y-81438761D01*
X140011123Y-81286380D01*
X140049219Y-81210190D01*
X140125409Y-81134000D01*
X140239695Y-81095904D01*
X140315885Y-81095904D01*
X140430171Y-81134000D01*
X140468266Y-81172095D01*
G04 #@! TO.C,kibuzzard-61B9EF98*
G36*
X156793406Y-80710087D02*
G01*
X156840238Y-80783112D01*
X156862463Y-80891856D01*
X156866630Y-80956745D01*
X156868019Y-81026000D01*
X156866630Y-81095056D01*
X156862463Y-81159350D01*
X156840238Y-81268094D01*
X156792613Y-81341913D01*
X156712444Y-81368900D01*
X156631481Y-81341913D01*
X156584650Y-81268888D01*
X156562425Y-81160144D01*
X156558258Y-81095255D01*
X156556869Y-81026000D01*
X156558258Y-80956944D01*
X156562425Y-80892650D01*
X156584650Y-80783906D01*
X156631481Y-80710087D01*
X156712444Y-80683100D01*
X156793406Y-80710087D01*
G37*
G36*
X158341086Y-80000607D02*
G01*
X158341086Y-82051393D01*
X155094914Y-82051393D01*
X155094914Y-80697387D01*
X155607544Y-80697387D01*
X155821856Y-80697387D01*
X155821856Y-81356200D01*
X155607544Y-81356200D01*
X155607544Y-81518125D01*
X156231431Y-81518125D01*
X156231431Y-81356200D01*
X156018706Y-81356200D01*
X156018706Y-81026000D01*
X156358431Y-81026000D01*
X156364136Y-81145211D01*
X156381252Y-81248845D01*
X156409777Y-81336902D01*
X156449712Y-81409381D01*
X156519651Y-81481260D01*
X156607757Y-81524387D01*
X156714031Y-81538763D01*
X156817748Y-81524387D01*
X156904531Y-81481260D01*
X156974381Y-81409381D01*
X157014664Y-81336902D01*
X157043438Y-81248845D01*
X157060702Y-81145211D01*
X157066456Y-81026000D01*
X157060801Y-80906789D01*
X157043834Y-80803155D01*
X157015557Y-80715098D01*
X157005883Y-80697387D01*
X157187106Y-80697387D01*
X157599856Y-80697387D01*
X157555803Y-80775770D01*
X157509369Y-80868044D01*
X157463530Y-80970239D01*
X157421263Y-81078388D01*
X157383758Y-81190108D01*
X157352206Y-81303019D01*
X157329584Y-81413548D01*
X157318869Y-81518125D01*
X157517306Y-81518125D01*
X157531792Y-81390927D01*
X157559375Y-81263331D01*
X157596284Y-81139308D01*
X157638750Y-81022825D01*
X157685383Y-80916066D01*
X157734794Y-80821212D01*
X157783609Y-80742234D01*
X157828456Y-80683100D01*
X157828456Y-80535462D01*
X157187106Y-80535462D01*
X157187106Y-80697387D01*
X157005883Y-80697387D01*
X156975969Y-80642619D01*
X156906472Y-80570740D01*
X156818630Y-80527613D01*
X156712444Y-80513237D01*
X156609433Y-80527613D01*
X156522649Y-80570740D01*
X156452094Y-80642619D01*
X156411116Y-80715098D01*
X156381847Y-80803155D01*
X156364285Y-80906789D01*
X156358431Y-81026000D01*
X156018706Y-81026000D01*
X156018706Y-80697387D01*
X156231431Y-80697387D01*
X156231431Y-80535462D01*
X155607544Y-80535462D01*
X155607544Y-80697387D01*
X155094914Y-80697387D01*
X155094914Y-80000607D01*
X158341086Y-80000607D01*
G37*
D17*
G04 #@! TO.C,D2*
X155918000Y-83666000D02*
X158203000Y-83666000D01*
X158203000Y-83666000D02*
X158203000Y-82196000D01*
X158203000Y-82196000D02*
X155918000Y-82196000D01*
G04 #@! TO.C,Y1*
X144312000Y-82437000D02*
X142962000Y-82437000D01*
X144312000Y-84187000D02*
X142962000Y-84187000D01*
G04 #@! TO.C,C3*
X150008000Y-90735036D02*
X150008000Y-90519364D01*
X150728000Y-90735036D02*
X150728000Y-90519364D01*
G04 #@! TO.C,C13*
X146537000Y-83419836D02*
X146537000Y-83204164D01*
X145817000Y-83419836D02*
X145817000Y-83204164D01*
G04 #@! TO.C,C1*
X151074800Y-90735036D02*
X151074800Y-90519364D01*
X151794800Y-90735036D02*
X151794800Y-90519364D01*
G04 #@! TO.C,kibuzzard-61B9CEAB*
G36*
X141791928Y-93276341D02*
G01*
X141847094Y-93303725D01*
X141882812Y-93350556D01*
X141894719Y-93418025D01*
X141850269Y-93528356D01*
X141791928Y-93557527D01*
X141705806Y-93567250D01*
X141662944Y-93567250D01*
X141662944Y-93271975D01*
X141694694Y-93268006D01*
X141721681Y-93267212D01*
X141791928Y-93276341D01*
G37*
G36*
X140545079Y-92573607D02*
G01*
X144646121Y-92573607D01*
X144646121Y-94624393D01*
X140545079Y-94624393D01*
X140545079Y-94091125D01*
X141467681Y-94091125D01*
X141662944Y-94091125D01*
X141662944Y-93729175D01*
X141764544Y-93729175D01*
X141818320Y-93819067D01*
X141868525Y-93907769D01*
X141913967Y-93997661D01*
X141953456Y-94091125D01*
X142158244Y-94091125D01*
X142134759Y-94037150D01*
X142239206Y-94037150D01*
X142348744Y-94085569D01*
X142434072Y-94105214D01*
X142544006Y-94111763D01*
X142655396Y-94103384D01*
X142746148Y-94078249D01*
X142816263Y-94036356D01*
X142883533Y-93945273D01*
X142905956Y-93822838D01*
X142899209Y-93748820D01*
X142878969Y-93688694D01*
X142809913Y-93599794D01*
X142717838Y-93542644D01*
X142621794Y-93503750D01*
X142560675Y-93479937D01*
X142505112Y-93450569D01*
X142464631Y-93412469D01*
X142448756Y-93362462D01*
X142466042Y-93299844D01*
X142517901Y-93262274D01*
X142604331Y-93249750D01*
X142716250Y-93265625D01*
X142804356Y-93303725D01*
X142861506Y-93152912D01*
X142751913Y-93108462D01*
X143009144Y-93108462D01*
X143009144Y-93270387D01*
X143267906Y-93270387D01*
X143267906Y-94091125D01*
X143464756Y-94091125D01*
X143464756Y-93270387D01*
X143723519Y-93270387D01*
X143723519Y-93108462D01*
X143009144Y-93108462D01*
X142751913Y-93108462D01*
X142748000Y-93106875D01*
X142674777Y-93091397D01*
X142590044Y-93086237D01*
X142492765Y-93094881D01*
X142410480Y-93120810D01*
X142343188Y-93164025D01*
X142275917Y-93256894D01*
X142253494Y-93379925D01*
X142278894Y-93496606D01*
X142343188Y-93575187D01*
X142429706Y-93627575D01*
X142521781Y-93664088D01*
X142588456Y-93691869D01*
X142648781Y-93725206D01*
X142693231Y-93767275D01*
X142710694Y-93821250D01*
X142703550Y-93868081D01*
X142677356Y-93909356D01*
X142625763Y-93937931D01*
X142544006Y-93948250D01*
X142464830Y-93942694D01*
X142398750Y-93926025D01*
X142296356Y-93878400D01*
X142239206Y-94037150D01*
X142134759Y-94037150D01*
X142113000Y-93987144D01*
X142058231Y-93877606D01*
X141999494Y-93772831D01*
X141942344Y-93681550D01*
X142011797Y-93636703D01*
X142058231Y-93575187D01*
X142084425Y-93501369D01*
X142093156Y-93419612D01*
X142086608Y-93342420D01*
X142066962Y-93275944D01*
X141991556Y-93175137D01*
X141937581Y-93140609D01*
X141874081Y-93116400D01*
X141801850Y-93102112D01*
X141721681Y-93097350D01*
X141666119Y-93098938D01*
X141599444Y-93102906D01*
X141530387Y-93110844D01*
X141467681Y-93122750D01*
X141467681Y-94091125D01*
X140545079Y-94091125D01*
X140545079Y-92573607D01*
G37*
G04 #@! TO.C,C14*
X150719200Y-93516564D02*
X150719200Y-93732236D01*
X151439200Y-93516564D02*
X151439200Y-93732236D01*
G04 #@! TO.C,R12*
X143488359Y-85414000D02*
X143795641Y-85414000D01*
X143488359Y-84654000D02*
X143795641Y-84654000D01*
G04 #@! TO.C,C16*
X148222580Y-115490000D02*
X147941420Y-115490000D01*
X148222580Y-116510000D02*
X147941420Y-116510000D01*
G04 #@! TO.C,C2*
X150668400Y-88487364D02*
X150668400Y-88703036D01*
X151388400Y-88487364D02*
X151388400Y-88703036D01*
G04 #@! TO.C,D8*
X147482000Y-118172000D02*
X147482000Y-120022000D01*
X148682000Y-118172000D02*
X148682000Y-120022000D01*
X147482000Y-120022000D02*
X148682000Y-120022000D01*
G04 #@! TO.C,C8*
X140229000Y-72116836D02*
X140229000Y-71901164D01*
X140949000Y-72116836D02*
X140949000Y-71901164D01*
G04 #@! TO.C,C10*
X141076000Y-77743164D02*
X141076000Y-77958836D01*
X140356000Y-77743164D02*
X140356000Y-77958836D01*
G04 #@! TO.C,D7*
X149260000Y-120022000D02*
X150460000Y-120022000D01*
X149260000Y-118172000D02*
X149260000Y-120022000D01*
X150460000Y-118172000D02*
X150460000Y-120022000D01*
G04 #@! TO.C,R10*
X154024359Y-82551000D02*
X154331641Y-82551000D01*
X154024359Y-83311000D02*
X154331641Y-83311000D01*
G04 #@! TO.C,U3*
X141482000Y-81800000D02*
X141482000Y-65300000D01*
X154882000Y-82000000D02*
X154082000Y-82000000D01*
X141282000Y-81200000D02*
X141282000Y-82000000D01*
X154882000Y-81200000D02*
X154882000Y-82000000D01*
X141482000Y-70600000D02*
X154682000Y-70600000D01*
X142157000Y-65100000D02*
X141307000Y-65100000D01*
X154882000Y-65100000D02*
X154882000Y-65750000D01*
X154682000Y-65300000D02*
X154682000Y-81800000D01*
X141482000Y-65300000D02*
X154682000Y-65300000D01*
X154682000Y-81800000D02*
X141482000Y-81800000D01*
X141282000Y-82000000D02*
X142082000Y-82000000D01*
X154132000Y-65100000D02*
X154882000Y-65100000D01*
G04 #@! TO.C,kibuzzard-61B9CE86*
G36*
X152566687Y-93691869D02*
G01*
X152611931Y-93794263D01*
X152596056Y-93864906D01*
X152555575Y-93907769D01*
X152499219Y-93928406D01*
X152434131Y-93933963D01*
X152385712Y-93932375D01*
X152340469Y-93927613D01*
X152340469Y-93660913D01*
X152445244Y-93660913D01*
X152566687Y-93691869D01*
G37*
G36*
X153331069Y-93283087D02*
G01*
X153377900Y-93356112D01*
X153400125Y-93464856D01*
X153404292Y-93529745D01*
X153405681Y-93599000D01*
X153404292Y-93668056D01*
X153400125Y-93732350D01*
X153377900Y-93841094D01*
X153330275Y-93914913D01*
X153250106Y-93941900D01*
X153169144Y-93914913D01*
X153122312Y-93841888D01*
X153100087Y-93733144D01*
X153095920Y-93668255D01*
X153094531Y-93599000D01*
X153095920Y-93529944D01*
X153100087Y-93465650D01*
X153122312Y-93356906D01*
X153169144Y-93283087D01*
X153250106Y-93256100D01*
X153331069Y-93283087D01*
G37*
G36*
X152481756Y-93271181D02*
G01*
X152526206Y-93287056D01*
X152556369Y-93320394D01*
X152567481Y-93376750D01*
X152529381Y-93466444D01*
X152416669Y-93498987D01*
X152340469Y-93498987D01*
X152340469Y-93273562D01*
X152383331Y-93268800D01*
X152429369Y-93267212D01*
X152481756Y-93271181D01*
G37*
G36*
X154124819Y-93283087D02*
G01*
X154171650Y-93356112D01*
X154193875Y-93464856D01*
X154198042Y-93529745D01*
X154199431Y-93599000D01*
X154198042Y-93668056D01*
X154193875Y-93732350D01*
X154171650Y-93841094D01*
X154124025Y-93914913D01*
X154043856Y-93941900D01*
X153962894Y-93914913D01*
X153916063Y-93841888D01*
X153893838Y-93733144D01*
X153889670Y-93668255D01*
X153888281Y-93599000D01*
X153889670Y-93529944D01*
X153893838Y-93465650D01*
X153916063Y-93356906D01*
X153962894Y-93283087D01*
X154043856Y-93256100D01*
X154124819Y-93283087D01*
G37*
G36*
X155720521Y-94624393D02*
G01*
X151619479Y-94624393D01*
X151619479Y-94075250D01*
X152145206Y-94075250D01*
X152213866Y-94087752D01*
X152283319Y-94096681D01*
X152351978Y-94102039D01*
X152418256Y-94103825D01*
X152496639Y-94100055D01*
X152569862Y-94088744D01*
X152635744Y-94068503D01*
X152692100Y-94037944D01*
X152773856Y-93942694D01*
X152796478Y-93875820D01*
X152804019Y-93794263D01*
X152795089Y-93727588D01*
X152768300Y-93664088D01*
X152716508Y-93608525D01*
X152697855Y-93599000D01*
X152896094Y-93599000D01*
X152901799Y-93718211D01*
X152918914Y-93821845D01*
X152947439Y-93909902D01*
X152987375Y-93982381D01*
X153057313Y-94054260D01*
X153145419Y-94097387D01*
X153251694Y-94111763D01*
X153355410Y-94097387D01*
X153442194Y-94054260D01*
X153512044Y-93982381D01*
X153552327Y-93909902D01*
X153581100Y-93821845D01*
X153598364Y-93718211D01*
X153604119Y-93599000D01*
X153689844Y-93599000D01*
X153695549Y-93718211D01*
X153712664Y-93821845D01*
X153741189Y-93909902D01*
X153781125Y-93982381D01*
X153851063Y-94054260D01*
X153939169Y-94097387D01*
X154045444Y-94111763D01*
X154149160Y-94097387D01*
X154235944Y-94054260D01*
X154305794Y-93982381D01*
X154346077Y-93909902D01*
X154374850Y-93821845D01*
X154392114Y-93718211D01*
X154397869Y-93599000D01*
X154392213Y-93479789D01*
X154375247Y-93376155D01*
X154346970Y-93288098D01*
X154337296Y-93270387D01*
X154480419Y-93270387D01*
X154739181Y-93270387D01*
X154739181Y-94091125D01*
X154936031Y-94091125D01*
X154936031Y-93270387D01*
X155194794Y-93270387D01*
X155194794Y-93108462D01*
X154480419Y-93108462D01*
X154480419Y-93270387D01*
X154337296Y-93270387D01*
X154307381Y-93215619D01*
X154237884Y-93143740D01*
X154150042Y-93100613D01*
X154043856Y-93086237D01*
X153940845Y-93100613D01*
X153854062Y-93143740D01*
X153783506Y-93215619D01*
X153742529Y-93288098D01*
X153713259Y-93376155D01*
X153695698Y-93479789D01*
X153689844Y-93599000D01*
X153604119Y-93599000D01*
X153598463Y-93479789D01*
X153581497Y-93376155D01*
X153553220Y-93288098D01*
X153513631Y-93215619D01*
X153444134Y-93143740D01*
X153356292Y-93100613D01*
X153250106Y-93086237D01*
X153147095Y-93100613D01*
X153060312Y-93143740D01*
X152989756Y-93215619D01*
X152948779Y-93288098D01*
X152919509Y-93376155D01*
X152901948Y-93479789D01*
X152896094Y-93599000D01*
X152697855Y-93599000D01*
X152632569Y-93565662D01*
X152723850Y-93479937D01*
X152749448Y-93421994D01*
X152757981Y-93356112D01*
X152743694Y-93264037D01*
X152689719Y-93180694D01*
X152580181Y-93120369D01*
X152500012Y-93103105D01*
X152399206Y-93097350D01*
X152267444Y-93104494D01*
X152145206Y-93121162D01*
X152145206Y-94075250D01*
X151619479Y-94075250D01*
X151619479Y-92573607D01*
X155720521Y-92573607D01*
X155720521Y-94624393D01*
G37*
G04 #@! TO.C,R7*
X150315959Y-86333600D02*
X150623241Y-86333600D01*
X150315959Y-85573600D02*
X150623241Y-85573600D01*
G04 #@! TO.C,SW1*
X143165600Y-95336000D02*
X142025600Y-95336000D01*
X144295600Y-99736000D02*
X144295600Y-95336000D01*
X140895600Y-95336000D02*
X140895600Y-99736000D01*
X140895600Y-99736000D02*
X141015600Y-99736000D01*
X144295600Y-95336000D02*
X144175600Y-95336000D01*
X142025600Y-99736000D02*
X143165600Y-99736000D01*
X141015600Y-95336000D02*
X140895600Y-95336000D01*
X144175600Y-99736000D02*
X144295600Y-99736000D01*
G04 #@! TO.C,C9*
X139933000Y-72116836D02*
X139933000Y-71901164D01*
X139213000Y-72116836D02*
X139213000Y-71901164D01*
G04 #@! TO.C,D5*
X145704000Y-120022000D02*
X146904000Y-120022000D01*
X145704000Y-118172000D02*
X145704000Y-120022000D01*
X146904000Y-118172000D02*
X146904000Y-120022000D01*
D18*
G04 #@! TO.C,U2*
X146592000Y-86784000D02*
X146592000Y-86839000D01*
X149592000Y-89284000D02*
X149592000Y-89229000D01*
X149592000Y-89284000D02*
X149037000Y-89284000D01*
X149592000Y-86784000D02*
X149592000Y-86839000D01*
X149037000Y-86784000D02*
X149592000Y-86784000D01*
X147147000Y-89284000D02*
X146592000Y-89284000D01*
X146592000Y-86784000D02*
X147147000Y-86784000D01*
X146592000Y-89284000D02*
X146592000Y-89229000D01*
D14*
X146123000Y-87184000D02*
G75*
G03*
X146123000Y-87184000I-100000J0D01*
G01*
D17*
G04 #@! TO.C,C12*
X140737000Y-83419836D02*
X140737000Y-83204164D01*
X141457000Y-83419836D02*
X141457000Y-83204164D01*
G04 #@! TO.C,R6*
X142780000Y-123746359D02*
X142780000Y-124053641D01*
X142020000Y-123746359D02*
X142020000Y-124053641D01*
G04 #@! TO.C,R4*
X154180000Y-123798359D02*
X154180000Y-124105641D01*
X153420000Y-123798359D02*
X153420000Y-124105641D01*
G04 #@! TO.C,D6*
X145018000Y-115098000D02*
X143018000Y-115098000D01*
X143018000Y-115098000D02*
X143018000Y-118998000D01*
X145018000Y-115098000D02*
X145018000Y-118998000D01*
G04 #@! TO.C,C4*
X151684400Y-87115764D02*
X151684400Y-87331436D01*
X152404400Y-87115764D02*
X152404400Y-87331436D01*
G04 #@! TO.C,R18*
X148716000Y-84225159D02*
X148716000Y-84532441D01*
X147956000Y-84225159D02*
X147956000Y-84532441D01*
G04 #@! TO.C,R17*
X149581600Y-84532441D02*
X149581600Y-84225159D01*
X150341600Y-84532441D02*
X150341600Y-84225159D01*
D18*
G04 #@! TO.C,U1*
X149132800Y-92554000D02*
X147132800Y-92554000D01*
X149132800Y-90314000D02*
X147132800Y-90314000D01*
D14*
X150192800Y-91934000D02*
G75*
G03*
X150192800Y-91934000I-100000J0D01*
G01*
D17*
G04 #@! TO.C,SW2*
X152090000Y-95336000D02*
X151970000Y-95336000D01*
X153100000Y-99736000D02*
X154240000Y-99736000D01*
X151970000Y-99736000D02*
X152090000Y-99736000D01*
X155370000Y-95336000D02*
X155250000Y-95336000D01*
X155370000Y-99736000D02*
X155370000Y-95336000D01*
X154240000Y-95336000D02*
X153100000Y-95336000D01*
X151970000Y-95336000D02*
X151970000Y-99736000D01*
X155250000Y-99736000D02*
X155370000Y-99736000D01*
G04 #@! TO.C,C11*
X138197000Y-72116836D02*
X138197000Y-71901164D01*
X138917000Y-72116836D02*
X138917000Y-71901164D01*
G04 #@! TO.C,R8*
X140336000Y-75792359D02*
X140336000Y-76099641D01*
X141096000Y-75792359D02*
X141096000Y-76099641D01*
G04 #@! TO.C,R2*
X152579041Y-101726000D02*
X152271759Y-101726000D01*
X152579041Y-100966000D02*
X152271759Y-100966000D01*
G04 #@! TO.C,D3*
X141759000Y-111672000D02*
X141759000Y-113957000D01*
X143229000Y-111672000D02*
X141759000Y-111672000D01*
X143229000Y-113957000D02*
X143229000Y-111672000D01*
G04 #@! TO.C,C6*
X153545000Y-103237420D02*
X153545000Y-103518580D01*
X152525000Y-103237420D02*
X152525000Y-103518580D01*
G04 #@! TO.C,C15*
X147433420Y-109218000D02*
X147714580Y-109218000D01*
X147433420Y-110238000D02*
X147714580Y-110238000D01*
G04 #@! TO.C,U6*
X145887000Y-113157000D02*
X145887000Y-112357000D01*
X149007000Y-113157000D02*
X149007000Y-113957000D01*
X145887000Y-113157000D02*
X145887000Y-114957000D01*
X149007000Y-113157000D02*
X149007000Y-112357000D01*
G04 #@! TO.C,C5*
X151264252Y-107542000D02*
X150741748Y-107542000D01*
X151264252Y-106072000D02*
X150741748Y-106072000D01*
G04 #@! TO.C,R9*
X145490200Y-111276159D02*
X145490200Y-111583441D01*
X144730200Y-111276159D02*
X144730200Y-111583441D01*
G04 #@! TO.C,Q1*
X150332000Y-113665000D02*
X150332000Y-114315000D01*
X153452000Y-113665000D02*
X153452000Y-114315000D01*
X150332000Y-113665000D02*
X150332000Y-113015000D01*
X153452000Y-113665000D02*
X153452000Y-111990000D01*
G04 #@! TO.C,R1*
X148692841Y-100966000D02*
X148385559Y-100966000D01*
X148692841Y-101726000D02*
X148385559Y-101726000D01*
G04 #@! TO.C,C7*
X144645748Y-102643000D02*
X145168252Y-102643000D01*
X144645748Y-104113000D02*
X145168252Y-104113000D01*
G04 #@! TO.C,R3*
X150648641Y-101726000D02*
X150341359Y-101726000D01*
X150648641Y-100966000D02*
X150341359Y-100966000D01*
G04 #@! TO.C,U5*
X150114000Y-105446000D02*
X150914000Y-105446000D01*
X150114000Y-102326000D02*
X150914000Y-102326000D01*
X150114000Y-102326000D02*
X148314000Y-102326000D01*
X150114000Y-105446000D02*
X149314000Y-105446000D01*
G04 #@! TO.C,R19*
X151408400Y-84532441D02*
X151408400Y-84225159D01*
X150648400Y-84532441D02*
X150648400Y-84225159D01*
G04 #@! TO.C,L1*
X147546000Y-104570000D02*
X146521000Y-104570000D01*
X147546000Y-108790000D02*
X146521000Y-108790000D01*
X142776000Y-108790000D02*
X143801000Y-108790000D01*
X147546000Y-104570000D02*
X147546000Y-105595000D01*
X147546000Y-108790000D02*
X147546000Y-107765000D01*
X142776000Y-108790000D02*
X142776000Y-107765000D01*
X142776000Y-104570000D02*
X142776000Y-105595000D01*
X142776000Y-104570000D02*
X143801000Y-104570000D01*
G04 #@! TO.C,D4*
X154015000Y-110728000D02*
X150115000Y-110728000D01*
X154015000Y-108728000D02*
X150115000Y-108728000D01*
X154015000Y-110728000D02*
X154015000Y-108728000D01*
G04 #@! TO.C,R14*
X144679641Y-113793000D02*
X144372359Y-113793000D01*
X144679641Y-114553000D02*
X144372359Y-114553000D01*
G04 #@! TO.C,R15*
X153925000Y-113511359D02*
X153925000Y-113818641D01*
X154685000Y-113511359D02*
X154685000Y-113818641D01*
G04 #@! TO.C,kibuzzard-61C05335*
G36*
X141787562Y-110581281D02*
G01*
X141832806Y-110683675D01*
X141816931Y-110754319D01*
X141776450Y-110797181D01*
X141720094Y-110817819D01*
X141655006Y-110823375D01*
X141606587Y-110821788D01*
X141561344Y-110817025D01*
X141561344Y-110550325D01*
X141666119Y-110550325D01*
X141787562Y-110581281D01*
G37*
G36*
X141702631Y-110160594D02*
G01*
X141747081Y-110176469D01*
X141777244Y-110209806D01*
X141788356Y-110266162D01*
X141750256Y-110355856D01*
X141637544Y-110388400D01*
X141561344Y-110388400D01*
X141561344Y-110162975D01*
X141604206Y-110158212D01*
X141650244Y-110156625D01*
X141702631Y-110160594D01*
G37*
G36*
X142498763Y-110293944D02*
G01*
X142524163Y-110392369D01*
X142545594Y-110490000D01*
X142564644Y-110591600D01*
X142372556Y-110591600D01*
X142392400Y-110490000D01*
X142414625Y-110392369D01*
X142440025Y-110293944D01*
X142469394Y-110188375D01*
X142498763Y-110293944D01*
G37*
G36*
X144134549Y-111505868D02*
G01*
X140853451Y-111505868D01*
X140853451Y-110964663D01*
X141366081Y-110964663D01*
X141434741Y-110977164D01*
X141504194Y-110986094D01*
X141572853Y-110991452D01*
X141639131Y-110993238D01*
X141717514Y-110989467D01*
X141775317Y-110980538D01*
X142088394Y-110980538D01*
X142291594Y-110980538D01*
X142336044Y-110753525D01*
X142597981Y-110753525D01*
X142644019Y-110980538D01*
X142853569Y-110980538D01*
X142827375Y-110869127D01*
X142800864Y-110760955D01*
X142774035Y-110656021D01*
X142746889Y-110554325D01*
X142719425Y-110455869D01*
X142684847Y-110336459D01*
X142650170Y-110220323D01*
X142631521Y-110159800D01*
X142907544Y-110159800D01*
X143166306Y-110159800D01*
X143166306Y-110980538D01*
X143363156Y-110980538D01*
X143363156Y-110159800D01*
X143621919Y-110159800D01*
X143621919Y-109997875D01*
X142907544Y-109997875D01*
X142907544Y-110159800D01*
X142631521Y-110159800D01*
X142615394Y-110107462D01*
X142580519Y-109997875D01*
X142367794Y-109997875D01*
X142334159Y-110106569D01*
X142299928Y-110218339D01*
X142265102Y-110333185D01*
X142229681Y-110451106D01*
X142201170Y-110548738D01*
X142172785Y-110650496D01*
X142144528Y-110756383D01*
X142116397Y-110866396D01*
X142088394Y-110980538D01*
X141775317Y-110980538D01*
X141790737Y-110978156D01*
X141856619Y-110957916D01*
X141912975Y-110927356D01*
X141994731Y-110832106D01*
X142017353Y-110765233D01*
X142024894Y-110683675D01*
X142015964Y-110617000D01*
X141989175Y-110553500D01*
X141937383Y-110497938D01*
X141853444Y-110455075D01*
X141944725Y-110369350D01*
X141970323Y-110311406D01*
X141978856Y-110245525D01*
X141964569Y-110153450D01*
X141910594Y-110070106D01*
X141801056Y-110009781D01*
X141720887Y-109992517D01*
X141620081Y-109986762D01*
X141488319Y-109993906D01*
X141366081Y-110010575D01*
X141366081Y-110964663D01*
X140853451Y-110964663D01*
X140853451Y-109474132D01*
X144134549Y-109474132D01*
X144134549Y-111505868D01*
G37*
G04 #@! TO.C,kibuzzard-61C05A1A*
G36*
X145774436Y-87019720D02*
G01*
X145774436Y-89048280D01*
X142515564Y-89048280D01*
X142515564Y-87532350D01*
X143028194Y-87532350D01*
X143028194Y-87694275D01*
X143242506Y-87694275D01*
X143242506Y-88353088D01*
X143028194Y-88353088D01*
X143028194Y-88515013D01*
X143652081Y-88515013D01*
X143772731Y-88515013D01*
X143952119Y-88515013D01*
X143944181Y-87751425D01*
X144060069Y-88167350D01*
X144202944Y-88167350D01*
X144323594Y-87751425D01*
X144314069Y-88515013D01*
X144493456Y-88515013D01*
X144489884Y-88389402D01*
X144485519Y-88266569D01*
X144480776Y-88159413D01*
X144591881Y-88159413D01*
X144595850Y-88241169D01*
X144607756Y-88314988D01*
X144629188Y-88379678D01*
X144661731Y-88434050D01*
X144764125Y-88509456D01*
X144836158Y-88529102D01*
X144923669Y-88535650D01*
X145012569Y-88529102D01*
X145085594Y-88509456D01*
X145144331Y-88477508D01*
X145190369Y-88434050D01*
X145224103Y-88379678D01*
X145245931Y-88314988D01*
X145257838Y-88241169D01*
X145261806Y-88159413D01*
X145261806Y-87532350D01*
X145066544Y-87532350D01*
X145066544Y-88145125D01*
X145060194Y-88249106D01*
X145037969Y-88317369D01*
X144995106Y-88354675D01*
X144926844Y-88365788D01*
X144858581Y-88354675D01*
X144816513Y-88318163D01*
X144795081Y-88250694D01*
X144788731Y-88146713D01*
X144788731Y-87532350D01*
X144591881Y-87532350D01*
X144591881Y-88159413D01*
X144480776Y-88159413D01*
X144480161Y-88145522D01*
X144473613Y-88025269D01*
X144465675Y-87904817D01*
X144456150Y-87783175D01*
X144445633Y-87659350D01*
X144434719Y-87532350D01*
X144272794Y-87532350D01*
X144244219Y-87616487D01*
X144209294Y-87725231D01*
X144169606Y-87845881D01*
X144129919Y-87967325D01*
X144093406Y-87853025D01*
X144055306Y-87730787D01*
X144019587Y-87618075D01*
X143991806Y-87532350D01*
X143829881Y-87532350D01*
X143819364Y-87639903D01*
X143810037Y-87756187D01*
X143801902Y-87878822D01*
X143794956Y-88005425D01*
X143788805Y-88134409D01*
X143783050Y-88264188D01*
X143777692Y-88391981D01*
X143772731Y-88515013D01*
X143652081Y-88515013D01*
X143652081Y-88353088D01*
X143439356Y-88353088D01*
X143439356Y-87694275D01*
X143652081Y-87694275D01*
X143652081Y-87532350D01*
X143028194Y-87532350D01*
X142515564Y-87532350D01*
X142515564Y-87019720D01*
X145774436Y-87019720D01*
G37*
G04 #@! TO.C,kibuzzard-61C05A22*
G36*
X149780493Y-94628361D02*
G01*
X146485107Y-94628361D01*
X146485107Y-93294994D01*
X146997737Y-93294994D01*
X147256500Y-93294994D01*
X147256500Y-94115731D01*
X147453350Y-94115731D01*
X148616988Y-94115731D01*
X148812250Y-94115731D01*
X148812250Y-93682344D01*
X149072600Y-93682344D01*
X149072600Y-94115731D01*
X149267863Y-94115731D01*
X149267863Y-93133069D01*
X149072600Y-93133069D01*
X149072600Y-93520419D01*
X148812250Y-93520419D01*
X148812250Y-93133069D01*
X148616988Y-93133069D01*
X148616988Y-94115731D01*
X147453350Y-94115731D01*
X147453350Y-93779181D01*
X147815300Y-93779181D01*
X148064537Y-93779181D01*
X148064537Y-94055406D01*
X148232813Y-94055406D01*
X148232813Y-93779181D01*
X148482050Y-93779181D01*
X148482050Y-93618844D01*
X148232813Y-93618844D01*
X148232813Y-93342619D01*
X148064537Y-93342619D01*
X148064537Y-93618844D01*
X147815300Y-93618844D01*
X147815300Y-93779181D01*
X147453350Y-93779181D01*
X147453350Y-93294994D01*
X147712112Y-93294994D01*
X147712112Y-93133069D01*
X146997737Y-93133069D01*
X146997737Y-93294994D01*
X146485107Y-93294994D01*
X146485107Y-92620439D01*
X149780493Y-92620439D01*
X149780493Y-94628361D01*
G37*
G04 #@! TO.C,kibuzzard-61C0F511*
G36*
X153880000Y-122325950D02*
G01*
X153880000Y-121500900D01*
X154605990Y-121500900D01*
X155049220Y-121500900D01*
X155061285Y-121565670D01*
X155064460Y-121630440D01*
X155063190Y-121664730D01*
X155058745Y-121706640D01*
X155051760Y-121749185D01*
X155044140Y-121785380D01*
X155188920Y-121813320D01*
X155200985Y-121764425D01*
X155208605Y-121710450D01*
X155213050Y-121660285D01*
X155214320Y-121624090D01*
X155210828Y-121542016D01*
X155200350Y-121471055D01*
X155184158Y-121406444D01*
X155163520Y-121343420D01*
X154605990Y-121343420D01*
X154605990Y-121500900D01*
X153880000Y-121500900D01*
X153880000Y-120962420D01*
X154592020Y-120962420D01*
X154601545Y-121065290D01*
X154625040Y-121151650D01*
X154758390Y-121130060D01*
X154738070Y-121058305D01*
X154727910Y-120968770D01*
X154736324Y-120899555D01*
X154761565Y-120844310D01*
X154801411Y-120808115D01*
X154853640Y-120796050D01*
X154853640Y-121183400D01*
X154880310Y-121185305D01*
X154912060Y-121185940D01*
X155003994Y-121178320D01*
X155079982Y-121155460D01*
X155140025Y-121117360D01*
X155183417Y-121064584D01*
X155209452Y-120997698D01*
X155218130Y-120916700D01*
X155213050Y-120863995D01*
X155197810Y-120812560D01*
X155172569Y-120764618D01*
X155137485Y-120722390D01*
X155092559Y-120686830D01*
X155037790Y-120658890D01*
X154973338Y-120640793D01*
X154899360Y-120634760D01*
X154827922Y-120640475D01*
X154766010Y-120657620D01*
X154713464Y-120685401D01*
X154670125Y-120723025D01*
X154636152Y-120770015D01*
X154611705Y-120825895D01*
X154596941Y-120890189D01*
X154592020Y-120962420D01*
X153880000Y-120962420D01*
X153880000Y-120219470D01*
X154392630Y-120219470D01*
X154400391Y-120314085D01*
X154423674Y-120389650D01*
X154462480Y-120446165D01*
X154517513Y-120485323D01*
X154589480Y-120508818D01*
X154678380Y-120516650D01*
X155183840Y-120516650D01*
X155201479Y-120442284D01*
X155212062Y-120371588D01*
X155215590Y-120304560D01*
X155207547Y-120217918D01*
X155183417Y-120144258D01*
X155143200Y-120083580D01*
X155086614Y-120038424D01*
X155013378Y-120011331D01*
X154923490Y-120002300D01*
X154842633Y-120009003D01*
X154774477Y-120029111D01*
X154719020Y-120062625D01*
X154678098Y-120109121D01*
X154653544Y-120168176D01*
X154645360Y-120239790D01*
X154651710Y-120298845D01*
X154670760Y-120359170D01*
X154646630Y-120359170D01*
X154599005Y-120352820D01*
X154560270Y-120331230D01*
X154534235Y-120289320D01*
X154524710Y-120222010D01*
X154536775Y-120120410D01*
X154562810Y-120042940D01*
X154430730Y-120013730D01*
X154404060Y-120112155D01*
X154395487Y-120164701D01*
X154392630Y-120219470D01*
X153880000Y-120219470D01*
X153880000Y-119595900D01*
X154605990Y-119595900D01*
X155049220Y-119595900D01*
X155061285Y-119660670D01*
X155064460Y-119725440D01*
X155063190Y-119759730D01*
X155058745Y-119801640D01*
X155051760Y-119844185D01*
X155044140Y-119880380D01*
X155188920Y-119908320D01*
X155200985Y-119859425D01*
X155208605Y-119805450D01*
X155213050Y-119755285D01*
X155214320Y-119719090D01*
X155210828Y-119637016D01*
X155200350Y-119566055D01*
X155184158Y-119501444D01*
X155163520Y-119438420D01*
X154605990Y-119438420D01*
X154605990Y-119595900D01*
X153880000Y-119595900D01*
X153880000Y-118997730D01*
X154592020Y-118997730D01*
X154594560Y-119077422D01*
X154602180Y-119148860D01*
X154619960Y-119250460D01*
X154975560Y-119250460D01*
X155076525Y-119237760D01*
X155152725Y-119195850D01*
X155200985Y-119117745D01*
X155213844Y-119062659D01*
X155218130Y-118995190D01*
X155216066Y-118938992D01*
X155209875Y-118884700D01*
X155191460Y-118802150D01*
X155065730Y-118823740D01*
X155080970Y-118890415D01*
X155087320Y-118976140D01*
X155079859Y-119034560D01*
X155057475Y-119072660D01*
X154983180Y-119100600D01*
X154964130Y-119100600D01*
X154971750Y-119050117D01*
X154974290Y-118992650D01*
X154964765Y-118899940D01*
X154933650Y-118821200D01*
X154876500Y-118766590D01*
X154788870Y-118746270D01*
X154696795Y-118764050D01*
X154635835Y-118814850D01*
X154602180Y-118894225D01*
X154592020Y-118997730D01*
X153880000Y-118997730D01*
X153880000Y-118291610D01*
X154605990Y-118291610D01*
X155065730Y-118291610D01*
X155074620Y-118325265D01*
X155079700Y-118367810D01*
X155042870Y-118440200D01*
X154994293Y-118454487D01*
X154922220Y-118459250D01*
X154605990Y-118459250D01*
X154605990Y-118615460D01*
X154942540Y-118615460D01*
X155000801Y-118612602D01*
X155053665Y-118604030D01*
X155140025Y-118565930D01*
X155195905Y-118494810D01*
X155210669Y-118444962D01*
X155215590Y-118384320D01*
X155209875Y-118337330D01*
X155197810Y-118291610D01*
X155487370Y-118291610D01*
X155460700Y-118135400D01*
X154605990Y-118135400D01*
X154605990Y-118291610D01*
X153880000Y-118291610D01*
X153880000Y-117796310D01*
X154589480Y-117796310D01*
X154593766Y-117865684D01*
X154606625Y-117926485D01*
X154644090Y-118016020D01*
X154767280Y-117976650D01*
X154739340Y-117912515D01*
X154725370Y-117811550D01*
X154743309Y-117720904D01*
X154797125Y-117659785D01*
X154851947Y-117634032D01*
X154920738Y-117618581D01*
X155003500Y-117613430D01*
X155074620Y-117617716D01*
X155133040Y-117630575D01*
X155216225Y-117675025D01*
X155260675Y-117737255D01*
X155274010Y-117809010D01*
X155260675Y-117903625D01*
X155228290Y-117974110D01*
X155352750Y-118014750D01*
X155367990Y-117988715D01*
X155387040Y-117946170D01*
X155402915Y-117887115D01*
X155409900Y-117811550D01*
X155403074Y-117737096D01*
X155382595Y-117668675D01*
X155348940Y-117607715D01*
X155302585Y-117555645D01*
X155244006Y-117513259D01*
X155173680Y-117481350D01*
X155092083Y-117461347D01*
X154999690Y-117454680D01*
X154906901Y-117460157D01*
X154825382Y-117476587D01*
X154755136Y-117503972D01*
X154696160Y-117542310D01*
X154636893Y-117609479D01*
X154601333Y-117694146D01*
X154589480Y-117796310D01*
X153880000Y-117796310D01*
X153880000Y-116942050D01*
X156000000Y-116306050D01*
X156000000Y-122961950D01*
X153880000Y-122325950D01*
G37*
G36*
X154829510Y-118910100D02*
G01*
X154851100Y-118937405D01*
X154861895Y-118977410D01*
X154865070Y-119024400D01*
X154863165Y-119063770D01*
X154858720Y-119100600D01*
X154721560Y-119100600D01*
X154718385Y-119058690D01*
X154717750Y-119009160D01*
X154734895Y-118930420D01*
X154792680Y-118899940D01*
X154829510Y-118910100D01*
G37*
G36*
X155015212Y-120176290D02*
G01*
X155070246Y-120222010D01*
X155088590Y-120298210D01*
X155087320Y-120327420D01*
X155082240Y-120359170D01*
X154795220Y-120359170D01*
X154778710Y-120319165D01*
X154772360Y-120271540D01*
X154811095Y-120187720D01*
X154858561Y-120167718D01*
X154923490Y-120161050D01*
X155015212Y-120176290D01*
G37*
G36*
X155008580Y-120806845D02*
G01*
X155049220Y-120829705D01*
X155077160Y-120866535D01*
X155087320Y-120919240D01*
X155076525Y-120972580D01*
X155047950Y-121008140D01*
X155007945Y-121028460D01*
X154961590Y-121034810D01*
X154961590Y-120796050D01*
X155008580Y-120806845D01*
G37*
G04 #@! TO.C,kibuzzard-61C0F551*
G36*
X155008580Y-120806845D02*
G01*
X155049220Y-120829705D01*
X155077160Y-120866535D01*
X155087320Y-120919240D01*
X155076525Y-120972580D01*
X155047950Y-121008140D01*
X155007945Y-121028460D01*
X154961590Y-121034810D01*
X154961590Y-120796050D01*
X155008580Y-120806845D01*
G37*
G36*
X155015212Y-120176290D02*
G01*
X155070246Y-120222010D01*
X155088590Y-120298210D01*
X155087320Y-120327420D01*
X155082240Y-120359170D01*
X154795220Y-120359170D01*
X154778710Y-120319165D01*
X154772360Y-120271540D01*
X154811095Y-120187720D01*
X154858561Y-120167718D01*
X154923490Y-120161050D01*
X155015212Y-120176290D01*
G37*
G36*
X154829510Y-118910100D02*
G01*
X154851100Y-118937405D01*
X154861895Y-118977410D01*
X154865070Y-119024400D01*
X154863165Y-119063770D01*
X154858720Y-119100600D01*
X154721560Y-119100600D01*
X154718385Y-119058690D01*
X154717750Y-119009160D01*
X154734895Y-118930420D01*
X154792680Y-118899940D01*
X154829510Y-118910100D01*
G37*
G36*
X153880000Y-122709781D02*
G01*
X153880000Y-121500900D01*
X154605990Y-121500900D01*
X155049220Y-121500900D01*
X155061285Y-121565670D01*
X155064460Y-121630440D01*
X155063190Y-121664730D01*
X155058745Y-121706640D01*
X155051760Y-121749185D01*
X155044140Y-121785380D01*
X155188920Y-121813320D01*
X155200985Y-121764425D01*
X155208605Y-121710450D01*
X155213050Y-121660285D01*
X155214320Y-121624090D01*
X155210828Y-121542016D01*
X155200350Y-121471055D01*
X155184158Y-121406444D01*
X155163520Y-121343420D01*
X154605990Y-121343420D01*
X154605990Y-121500900D01*
X153880000Y-121500900D01*
X153880000Y-120962420D01*
X154592020Y-120962420D01*
X154601545Y-121065290D01*
X154625040Y-121151650D01*
X154758390Y-121130060D01*
X154738070Y-121058305D01*
X154727910Y-120968770D01*
X154736324Y-120899555D01*
X154761565Y-120844310D01*
X154801411Y-120808115D01*
X154853640Y-120796050D01*
X154853640Y-121183400D01*
X154880310Y-121185305D01*
X154912060Y-121185940D01*
X155003994Y-121178320D01*
X155079982Y-121155460D01*
X155140025Y-121117360D01*
X155183417Y-121064584D01*
X155209452Y-120997698D01*
X155218130Y-120916700D01*
X155213050Y-120863995D01*
X155197810Y-120812560D01*
X155172569Y-120764618D01*
X155137485Y-120722390D01*
X155092559Y-120686830D01*
X155037790Y-120658890D01*
X154973338Y-120640793D01*
X154899360Y-120634760D01*
X154827922Y-120640475D01*
X154766010Y-120657620D01*
X154713464Y-120685401D01*
X154670125Y-120723025D01*
X154636152Y-120770015D01*
X154611705Y-120825895D01*
X154596941Y-120890189D01*
X154592020Y-120962420D01*
X153880000Y-120962420D01*
X153880000Y-120219470D01*
X154392630Y-120219470D01*
X154400391Y-120314085D01*
X154423674Y-120389650D01*
X154462480Y-120446165D01*
X154517513Y-120485323D01*
X154589480Y-120508818D01*
X154678380Y-120516650D01*
X155183840Y-120516650D01*
X155201479Y-120442284D01*
X155212062Y-120371588D01*
X155215590Y-120304560D01*
X155207547Y-120217918D01*
X155183417Y-120144258D01*
X155143200Y-120083580D01*
X155086614Y-120038424D01*
X155013378Y-120011331D01*
X154923490Y-120002300D01*
X154842633Y-120009003D01*
X154774477Y-120029111D01*
X154719020Y-120062625D01*
X154678098Y-120109121D01*
X154653544Y-120168176D01*
X154645360Y-120239790D01*
X154651710Y-120298845D01*
X154670760Y-120359170D01*
X154646630Y-120359170D01*
X154599005Y-120352820D01*
X154560270Y-120331230D01*
X154534235Y-120289320D01*
X154524710Y-120222010D01*
X154536775Y-120120410D01*
X154562810Y-120042940D01*
X154430730Y-120013730D01*
X154404060Y-120112155D01*
X154395487Y-120164701D01*
X154392630Y-120219470D01*
X153880000Y-120219470D01*
X153880000Y-119595900D01*
X154605990Y-119595900D01*
X155049220Y-119595900D01*
X155061285Y-119660670D01*
X155064460Y-119725440D01*
X155063190Y-119759730D01*
X155058745Y-119801640D01*
X155051760Y-119844185D01*
X155044140Y-119880380D01*
X155188920Y-119908320D01*
X155200985Y-119859425D01*
X155208605Y-119805450D01*
X155213050Y-119755285D01*
X155214320Y-119719090D01*
X155210828Y-119637016D01*
X155200350Y-119566055D01*
X155184158Y-119501444D01*
X155163520Y-119438420D01*
X154605990Y-119438420D01*
X154605990Y-119595900D01*
X153880000Y-119595900D01*
X153880000Y-118997730D01*
X154592020Y-118997730D01*
X154594560Y-119077422D01*
X154602180Y-119148860D01*
X154619960Y-119250460D01*
X154975560Y-119250460D01*
X155076525Y-119237760D01*
X155152725Y-119195850D01*
X155200985Y-119117745D01*
X155213844Y-119062659D01*
X155218130Y-118995190D01*
X155216066Y-118938992D01*
X155209875Y-118884700D01*
X155191460Y-118802150D01*
X155065730Y-118823740D01*
X155080970Y-118890415D01*
X155087320Y-118976140D01*
X155079859Y-119034560D01*
X155057475Y-119072660D01*
X154983180Y-119100600D01*
X154964130Y-119100600D01*
X154971750Y-119050117D01*
X154974290Y-118992650D01*
X154964765Y-118899940D01*
X154933650Y-118821200D01*
X154876500Y-118766590D01*
X154788870Y-118746270D01*
X154696795Y-118764050D01*
X154635835Y-118814850D01*
X154602180Y-118894225D01*
X154592020Y-118997730D01*
X153880000Y-118997730D01*
X153880000Y-118291610D01*
X154605990Y-118291610D01*
X155065730Y-118291610D01*
X155074620Y-118325265D01*
X155079700Y-118367810D01*
X155042870Y-118440200D01*
X154994293Y-118454487D01*
X154922220Y-118459250D01*
X154605990Y-118459250D01*
X154605990Y-118615460D01*
X154942540Y-118615460D01*
X155000801Y-118612602D01*
X155053665Y-118604030D01*
X155140025Y-118565930D01*
X155195905Y-118494810D01*
X155210669Y-118444962D01*
X155215590Y-118384320D01*
X155209875Y-118337330D01*
X155197810Y-118291610D01*
X155487370Y-118291610D01*
X155460700Y-118135400D01*
X154605990Y-118135400D01*
X154605990Y-118291610D01*
X153880000Y-118291610D01*
X153880000Y-117796310D01*
X154589480Y-117796310D01*
X154593766Y-117865684D01*
X154606625Y-117926485D01*
X154644090Y-118016020D01*
X154767280Y-117976650D01*
X154739340Y-117912515D01*
X154725370Y-117811550D01*
X154743309Y-117720904D01*
X154797125Y-117659785D01*
X154851947Y-117634032D01*
X154920738Y-117618581D01*
X155003500Y-117613430D01*
X155074620Y-117617716D01*
X155133040Y-117630575D01*
X155216225Y-117675025D01*
X155260675Y-117737255D01*
X155274010Y-117809010D01*
X155260675Y-117903625D01*
X155228290Y-117974110D01*
X155352750Y-118014750D01*
X155367990Y-117988715D01*
X155387040Y-117946170D01*
X155402915Y-117887115D01*
X155409900Y-117811550D01*
X155403074Y-117737096D01*
X155382595Y-117668675D01*
X155348940Y-117607715D01*
X155302585Y-117555645D01*
X155244006Y-117513259D01*
X155173680Y-117481350D01*
X155092083Y-117461347D01*
X154999690Y-117454680D01*
X154906901Y-117460157D01*
X154825382Y-117476587D01*
X154755136Y-117503972D01*
X154696160Y-117542310D01*
X154636893Y-117609479D01*
X154601333Y-117694146D01*
X154589480Y-117796310D01*
X153880000Y-117796310D01*
X153880000Y-116558219D01*
X156000000Y-115922219D01*
X156000000Y-123345781D01*
X153880000Y-122709781D01*
G37*
G04 #@! TO.C,kibuzzard-623DAB98*
G36*
X154700268Y-79967843D02*
G01*
X154700268Y-78735374D01*
X155242680Y-78735374D01*
X156559448Y-78735374D01*
X156559448Y-77890856D01*
X156342468Y-77890856D01*
X156342468Y-78473722D01*
X155972327Y-78473722D01*
X155972327Y-78007855D01*
X155755347Y-78007855D01*
X155755347Y-78473722D01*
X155459659Y-78473722D01*
X155459659Y-77937655D01*
X155242680Y-77937655D01*
X155242680Y-78735374D01*
X154700268Y-78735374D01*
X154700268Y-77250554D01*
X155212898Y-77250554D01*
X155224480Y-77380907D01*
X155259225Y-77491169D01*
X155317133Y-77581341D01*
X155441578Y-77671483D01*
X155606439Y-77701531D01*
X155762792Y-77667495D01*
X155868091Y-77581341D01*
X155938291Y-77465406D01*
X155987217Y-77342025D01*
X156024444Y-77252681D01*
X156069116Y-77171845D01*
X156125489Y-77112282D01*
X156197815Y-77088883D01*
X156260569Y-77098455D01*
X156315877Y-77133555D01*
X156354168Y-77202690D01*
X156367995Y-77312244D01*
X156360550Y-77418340D01*
X156338214Y-77506887D01*
X156274396Y-77644095D01*
X156487121Y-77720676D01*
X156552002Y-77573896D01*
X156578327Y-77459556D01*
X156587102Y-77312244D01*
X156575875Y-77162982D01*
X156542193Y-77041374D01*
X156486057Y-76947420D01*
X156364006Y-76857278D01*
X156199942Y-76827231D01*
X156100759Y-76836272D01*
X156020190Y-76863394D01*
X155901064Y-76955929D01*
X155824483Y-77079310D01*
X155772365Y-77208009D01*
X155740456Y-77289908D01*
X155701102Y-77364361D01*
X155650048Y-77418606D01*
X155583040Y-77439879D01*
X155499132Y-77416715D01*
X155448787Y-77347225D01*
X155432005Y-77231408D01*
X155453277Y-77081437D01*
X155504331Y-76963375D01*
X155302243Y-76886794D01*
X155240552Y-77038892D01*
X155219812Y-77137012D01*
X155212898Y-77250554D01*
X154700268Y-77250554D01*
X154700268Y-76265637D01*
X155227789Y-76265637D01*
X155229916Y-76348600D01*
X155235234Y-76444326D01*
X155244807Y-76541116D01*
X155259698Y-76627269D01*
X156559448Y-76627269D01*
X156559448Y-76365618D01*
X156114852Y-76365618D01*
X156114852Y-76272019D01*
X156103152Y-76114720D01*
X156068053Y-75983185D01*
X156009553Y-75877414D01*
X155924818Y-75800005D01*
X155811010Y-75753560D01*
X155668130Y-75738079D01*
X155526668Y-75753442D01*
X155414278Y-75799533D01*
X155330961Y-75876350D01*
X155273643Y-75981058D01*
X155239253Y-76110820D01*
X155227789Y-76265637D01*
X154700268Y-76265637D01*
X154700268Y-75202012D01*
X155212898Y-75202012D01*
X155222737Y-75315022D01*
X155252252Y-75415800D01*
X155329897Y-75567899D01*
X155521349Y-75474300D01*
X155460723Y-75347728D01*
X155436259Y-75199885D01*
X155477741Y-75079695D01*
X155591549Y-75036086D01*
X155672384Y-75056295D01*
X155723438Y-75108413D01*
X155751092Y-75180739D01*
X155759601Y-75261575D01*
X155759601Y-75359428D01*
X155976581Y-75359428D01*
X155976581Y-75278593D01*
X155986951Y-75162126D01*
X156018062Y-75067995D01*
X156075232Y-75005773D01*
X156163779Y-74985032D01*
X156306305Y-75039277D01*
X156349382Y-75113465D01*
X156363741Y-75227539D01*
X156357891Y-75328317D01*
X156340341Y-75413673D01*
X156295669Y-75540245D01*
X156514775Y-75591299D01*
X156538175Y-75525354D01*
X156561575Y-75432818D01*
X156579656Y-75328583D01*
X156587102Y-75225412D01*
X156579390Y-75102563D01*
X156556257Y-74997796D01*
X156519030Y-74910579D01*
X156469039Y-74840379D01*
X156336086Y-74748908D01*
X156168034Y-74719126D01*
X156061139Y-74733219D01*
X155970199Y-74775498D01*
X155897341Y-74843304D01*
X155844691Y-74933978D01*
X155734074Y-74814852D01*
X155583040Y-74770180D01*
X155436259Y-74795707D01*
X155318197Y-74874415D01*
X155240552Y-75009496D01*
X155219812Y-75098574D01*
X155212898Y-75202012D01*
X154700268Y-75202012D01*
X154700268Y-74104351D01*
X155212898Y-74104351D01*
X155223534Y-74215234D01*
X155255443Y-74326648D01*
X155309688Y-74431681D01*
X155387333Y-74523419D01*
X155570276Y-74393657D01*
X155470295Y-74259640D01*
X155440514Y-74129878D01*
X155484123Y-74006497D01*
X155608567Y-73957570D01*
X155721311Y-73996925D01*
X155836182Y-74096905D01*
X155897075Y-74159659D01*
X155960627Y-74226668D01*
X156028167Y-74293676D01*
X156101025Y-74356430D01*
X156179999Y-74411738D01*
X156265887Y-74456411D01*
X156359486Y-74485926D01*
X156461594Y-74495765D01*
X156506266Y-74496828D01*
X156559448Y-74491510D01*
X156559448Y-73632101D01*
X156342468Y-73632101D01*
X156342468Y-74197950D01*
X156272269Y-74175614D01*
X156196751Y-74121369D01*
X156124425Y-74053297D01*
X156063798Y-73989479D01*
X155957436Y-73880989D01*
X155842564Y-73785263D01*
X155720247Y-73717191D01*
X155589421Y-73691664D01*
X155424560Y-73725700D01*
X155306497Y-73817172D01*
X155236298Y-73949061D01*
X155212898Y-74104351D01*
X154700268Y-74104351D01*
X154700268Y-73310886D01*
X155885109Y-73310886D01*
X156142507Y-73310886D01*
X156142507Y-72728020D01*
X155885109Y-72728020D01*
X155885109Y-73310886D01*
X154700268Y-73310886D01*
X154700268Y-71832448D01*
X155212898Y-71832448D01*
X155224332Y-71957158D01*
X155258634Y-72071763D01*
X155315006Y-72173871D01*
X155392651Y-72261089D01*
X155490770Y-72332086D01*
X155608567Y-72385533D01*
X155745243Y-72419037D01*
X155900000Y-72430205D01*
X156055422Y-72421031D01*
X156191965Y-72393510D01*
X156309629Y-72347641D01*
X156408413Y-72283425D01*
X156507684Y-72170917D01*
X156567247Y-72029100D01*
X156587102Y-71857975D01*
X156579922Y-71741774D01*
X156558384Y-71639932D01*
X156495630Y-71489960D01*
X156289287Y-71555905D01*
X156336086Y-71663331D01*
X156359486Y-71832448D01*
X156329439Y-71984280D01*
X156239296Y-72086654D01*
X156147470Y-72129790D01*
X156032244Y-72155672D01*
X155893618Y-72164299D01*
X155774492Y-72157119D01*
X155676639Y-72135581D01*
X155537304Y-72061127D01*
X155462850Y-71956892D01*
X155440514Y-71836702D01*
X155462850Y-71678222D01*
X155517095Y-71560160D01*
X155308624Y-71492088D01*
X155283097Y-71535696D01*
X155251189Y-71606959D01*
X155224598Y-71705876D01*
X155212898Y-71832448D01*
X154700268Y-71832448D01*
X154700268Y-70947512D01*
X155212898Y-70947512D01*
X155222737Y-71060522D01*
X155252252Y-71161300D01*
X155329897Y-71313399D01*
X155521349Y-71219800D01*
X155460723Y-71093228D01*
X155436259Y-70945384D01*
X155477741Y-70825195D01*
X155591549Y-70781586D01*
X155672384Y-70801795D01*
X155723438Y-70853913D01*
X155751092Y-70926239D01*
X155759601Y-71007075D01*
X155759601Y-71104928D01*
X155976581Y-71104928D01*
X155976581Y-71024093D01*
X155986951Y-70907626D01*
X156018062Y-70813495D01*
X156075232Y-70751273D01*
X156163779Y-70730532D01*
X156306305Y-70784777D01*
X156349382Y-70858965D01*
X156363741Y-70973039D01*
X156357891Y-71073817D01*
X156340341Y-71159173D01*
X156295669Y-71285744D01*
X156514775Y-71336798D01*
X156538175Y-71270854D01*
X156561575Y-71178318D01*
X156579656Y-71074083D01*
X156587102Y-70970911D01*
X156579390Y-70848063D01*
X156556257Y-70743296D01*
X156519030Y-70656078D01*
X156469039Y-70585879D01*
X156336086Y-70494407D01*
X156168034Y-70464626D01*
X156061139Y-70478719D01*
X155970199Y-70520998D01*
X155897341Y-70588804D01*
X155844691Y-70679478D01*
X155734074Y-70560352D01*
X155583040Y-70515680D01*
X155436259Y-70541207D01*
X155318197Y-70619915D01*
X155240552Y-70754996D01*
X155219812Y-70844074D01*
X155212898Y-70947512D01*
X154700268Y-70947512D01*
X154700268Y-69232157D01*
X157099732Y-69951996D01*
X157099732Y-79248004D01*
X154700268Y-79967843D01*
G37*
G36*
X155769440Y-76022067D02*
G01*
X155837246Y-76069930D01*
X155874739Y-76149170D01*
X155887236Y-76259255D01*
X155887236Y-76365618D01*
X155461786Y-76365618D01*
X155456468Y-76300736D01*
X155455405Y-76235855D01*
X155467371Y-76141990D01*
X155503268Y-76068866D01*
X155567883Y-76021801D01*
X155666002Y-76006112D01*
X155769440Y-76022067D01*
G37*
G04 #@! TO.C,R11*
X141578359Y-92074000D02*
X141885641Y-92074000D01*
X141578359Y-91314000D02*
X141885641Y-91314000D01*
G04 #@! TO.C,R5*
X142020000Y-126053641D02*
X142020000Y-125746359D01*
X142780000Y-126053641D02*
X142780000Y-125746359D01*
G04 #@! TO.C,kibuzzard-6269032F*
G36*
X145991263Y-100268087D02*
G01*
X146038094Y-100341112D01*
X146060319Y-100449856D01*
X146064486Y-100514745D01*
X146065875Y-100584000D01*
X146064486Y-100653056D01*
X146060319Y-100717350D01*
X146038094Y-100826094D01*
X145990469Y-100899913D01*
X145910300Y-100926900D01*
X145829337Y-100899913D01*
X145782506Y-100826888D01*
X145760281Y-100718144D01*
X145756114Y-100653255D01*
X145754725Y-100584000D01*
X145756114Y-100514944D01*
X145760281Y-100450650D01*
X145782506Y-100341906D01*
X145829337Y-100268087D01*
X145910300Y-100241100D01*
X145991263Y-100268087D01*
G37*
G36*
X147553230Y-101609393D02*
G01*
X144292770Y-101609393D01*
X144292770Y-100255387D01*
X144805400Y-100255387D01*
X145019712Y-100255387D01*
X145019712Y-100914200D01*
X144805400Y-100914200D01*
X144805400Y-101076125D01*
X145429287Y-101076125D01*
X145429287Y-100914200D01*
X145216562Y-100914200D01*
X145216562Y-100584000D01*
X145556287Y-100584000D01*
X145561993Y-100703211D01*
X145579108Y-100806845D01*
X145607633Y-100894902D01*
X145647569Y-100967381D01*
X145717507Y-101039260D01*
X145805613Y-101082387D01*
X145911887Y-101096763D01*
X146015604Y-101082387D01*
X146102388Y-101039260D01*
X146172238Y-100967381D01*
X146212520Y-100894902D01*
X146241294Y-100806845D01*
X146258558Y-100703211D01*
X146264313Y-100584000D01*
X146258657Y-100464789D01*
X146241691Y-100361155D01*
X146213413Y-100273098D01*
X146174258Y-100201412D01*
X146375438Y-100201412D01*
X146472275Y-100337937D01*
X146572288Y-100263325D01*
X146669125Y-100241100D01*
X146761200Y-100273644D01*
X146797713Y-100366512D01*
X146768344Y-100450650D01*
X146693731Y-100536375D01*
X146646900Y-100581817D01*
X146596894Y-100629244D01*
X146546888Y-100679647D01*
X146500056Y-100734019D01*
X146458781Y-100792955D01*
X146425444Y-100857050D01*
X146403417Y-100926900D01*
X146396075Y-101003100D01*
X146395281Y-101036438D01*
X146399250Y-101076125D01*
X147040600Y-101076125D01*
X147040600Y-100914200D01*
X146618325Y-100914200D01*
X146634994Y-100861813D01*
X146675475Y-100805456D01*
X146726275Y-100751481D01*
X146773900Y-100706238D01*
X146854863Y-100626863D01*
X146926300Y-100541137D01*
X146977100Y-100449856D01*
X146996150Y-100352225D01*
X146970750Y-100229194D01*
X146902488Y-100141087D01*
X146804063Y-100088700D01*
X146688175Y-100071237D01*
X146605427Y-100079175D01*
X146522281Y-100102987D01*
X146443898Y-100143469D01*
X146375438Y-100201412D01*
X146174258Y-100201412D01*
X146173825Y-100200619D01*
X146104328Y-100128740D01*
X146016486Y-100085613D01*
X145910300Y-100071237D01*
X145807289Y-100085613D01*
X145720506Y-100128740D01*
X145649950Y-100200619D01*
X145608973Y-100273098D01*
X145579703Y-100361155D01*
X145562141Y-100464789D01*
X145556287Y-100584000D01*
X145216562Y-100584000D01*
X145216562Y-100255387D01*
X145429287Y-100255387D01*
X145429287Y-100093462D01*
X144805400Y-100093462D01*
X144805400Y-100255387D01*
X144292770Y-100255387D01*
X144292770Y-99558607D01*
X147553230Y-99558607D01*
X147553230Y-101609393D01*
G37*
D14*
G04 #@! TO.C,J1*
X143292000Y-123334000D02*
X143292000Y-124584000D01*
X143292000Y-127304000D02*
X143292000Y-128584000D01*
X143292000Y-128584000D02*
X152872000Y-128584000D01*
X152872000Y-123334000D02*
X152872000Y-124584000D01*
X152872000Y-128584000D02*
X152872000Y-127304000D01*
D17*
G04 #@! TO.C,D9*
X145132000Y-95586000D02*
X145132000Y-96661000D01*
X151032000Y-95586000D02*
X145132000Y-95586000D01*
X151032000Y-99486000D02*
X145132000Y-99486000D01*
D18*
G04 #@! TO.C,D1*
X138792000Y-73164000D02*
X140092000Y-73164000D01*
X140092000Y-74504000D02*
X138792000Y-74504000D01*
D14*
X140842000Y-73834000D02*
G75*
G03*
X140842000Y-73834000I-100000J0D01*
G01*
G04 #@! TD*
M02*
