M48
; DRILL file {KiCad 6.0.0-d3dd2cf0fa~116~ubuntu21.04.1} date qui 27 jan 2022 12:18:04
; FORMAT={-:-/ absolute / inch / decimal}
; #@! TF.CreationDate,2022-01-27T12:18:04+00:00
; #@! TF.GenerationSoftware,Kicad,Pcbnew,6.0.0-d3dd2cf0fa~116~ubuntu21.04.1
; #@! TF.FileFunction,Plated,1,2,PTH
FMAT,2
INCH
; #@! TA.AperFunction,Plated,PTH,ViaDrill
T1C0.0118
; #@! TA.AperFunction,Plated,PTH,ViaDrill
T2C0.0157
; #@! TA.AperFunction,Plated,PTH,ComponentDrill
T3C0.0236
; #@! TA.AperFunction,Plated,PTH,ComponentDrill
T4C0.0300
%
G90
G05
T1
X5.4Y-2.8
X5.4Y-2.84
X5.4Y-2.88
X5.4Y-2.92
X5.402Y-4.586
X5.402Y-4.646
X5.402Y-4.706
X5.402Y-4.766
X5.402Y-4.826
X5.402Y-4.886
X5.4662Y-3.8596
X5.4662Y-3.96
X5.4682Y-3.2592
X5.4682Y-3.3616
X5.474Y-3.56
X5.482Y-3.46
X5.512Y-2.942
X5.519Y-3.56
X5.536Y-4.46
X5.537Y-3.221
X5.538Y-3.35
X5.5391Y-3.4749
X5.54Y-5.04
X5.558Y-4.344
X5.561Y-3.518
X5.562Y-3.086
X5.564Y-3.396
X5.564Y-3.444
X5.582Y-4.124
X5.582Y-4.218
X5.594Y-4.376
X5.5963Y-3.4997
X5.6Y-4.284
X5.608Y-4.06
X5.617Y-3.99
X5.6178Y-3.4768
X5.62Y-3.78
X5.622Y-3.92
X5.6333Y-3.844
X5.635Y-3.0
X5.636Y-3.396
X5.638Y-3.055
X5.64Y-2.85
X5.64Y-2.882
X5.64Y-2.914
X5.642Y-3.108
X5.646Y-4.614
X5.6552Y-3.6943
X5.656Y-4.344
X5.658Y-4.38
X5.6591Y-4.7297
X5.66Y-5.04
X5.665Y-3.8143
X5.665Y-3.8734
X5.666Y-3.076
X5.669Y-3.0328
X5.672Y-2.85
X5.6749Y-3.6273
X5.6946Y-3.5998
X5.704Y-2.85
X5.71Y-4.46
X5.713Y-2.962
X5.72Y-4.556
X5.725Y-4.32
X5.726Y-3.628
X5.7339Y-4.6076
X5.736Y-2.85
X5.75Y-4.556
X5.7595Y-3.816
X5.76Y-3.736
X5.764Y-3.874
X5.764Y-3.914
X5.768Y-2.85
X5.77Y-4.608
X5.779Y-4.364
X5.791Y-2.962
X5.791Y-3.04
X5.791Y-3.116
X5.793Y-3.5506
X5.795Y-3.2283
X5.796Y-3.816
X5.799Y-4.044
X5.8Y-2.85
X5.804Y-4.455
X5.8048Y-3.3852
X5.806Y-3.736
X5.806Y-3.874
X5.806Y-3.914
X5.815Y-4.08
X5.83Y-4.624
X5.832Y-2.85
X5.836Y-3.818
X5.8383Y-3.3852
X5.844Y-3.664
X5.8442Y-3.462
X5.845Y-4.205
X5.845Y-4.245
X5.8585Y-3.224
X5.864Y-2.85
X5.864Y-3.282
X5.866Y-3.874
X5.866Y-3.914
X5.8678Y-3.5545
X5.868Y-3.736
X5.868Y-3.778
X5.868Y-4.021
X5.869Y-2.962
X5.869Y-3.04
X5.869Y-3.116
X5.882Y-3.9548
X5.889Y-3.261
X5.89Y-3.225
X5.89Y-3.696
X5.896Y-2.85
X5.902Y-3.806
X5.9091Y-3.4954
X5.91Y-4.052
X5.91Y-4.09
X5.91Y-4.266
X5.912Y-3.626
X5.928Y-2.85
X5.94Y-3.1332
X5.945Y-3.435
X5.946Y-4.576
X5.947Y-2.962
X5.947Y-3.04
X5.954Y-4.09
X5.96Y-2.85
X5.963Y-3.781
X5.972Y-3.095
X5.974Y-3.85
X5.98Y-3.384
X5.984Y-3.508
X5.986Y-3.636
X5.9863Y-4.6477
X5.992Y-2.85
X5.9977Y-3.8103
X5.9997Y-4.6883
X5.9997Y-4.7297
X6.0Y-3.265
X6.0Y-4.13
X6.0Y-5.04
X6.0017Y-3.149
X6.004Y-3.046
X6.005Y-4.57
X6.012Y-4.056
X6.023Y-3.235
X6.023Y-3.293
X6.024Y-2.85
X6.026Y-4.524
X6.0383Y-3.325
X6.054Y-4.127
X6.054Y-4.212
X6.0548Y-4.5702
X6.0717Y-3.325
X6.072Y-3.636
X6.074Y-3.51
X6.076Y-3.364
X6.076Y-3.806
X6.076Y-3.874
X6.0922Y-4.3537
X6.11Y-4.496
X6.112Y-3.173
X6.112Y-3.402
X6.1139Y-3.0092
X6.114Y-4.432
X6.116Y-3.51
X6.116Y-3.564
X6.12Y-2.8
X6.12Y-5.04
X6.1332Y-3.0932
X6.1394Y-4.6303
X6.1425Y-4.76
X6.16Y-2.8
X6.16Y-3.076
X6.17Y-3.312
X6.185Y-3.76
X6.185Y-3.86
X6.185Y-3.96
X6.185Y-4.06
X6.186Y-3.558
X6.188Y-4.16
X6.194Y-4.36
X6.2Y-2.8
X6.202Y-4.46
X6.22Y-4.82
X6.22Y-4.88
X6.24Y-2.8
X6.24Y-2.84
X6.24Y-2.88
X6.24Y-2.92
X6.24Y-2.96
X6.24Y-3.0
X6.24Y-3.04
X6.24Y-3.08
X6.24Y-3.12
X6.24Y-3.16
X6.24Y-3.2
X6.24Y-3.32
X6.25Y-4.71
T2
X5.598Y-3.412
X5.668Y-3.99
X5.67Y-4.645
X5.732Y-3.5565
X5.732Y-3.5926
X5.88Y-4.41
X5.88Y-4.455
X5.938Y-4.685
X6.02Y-4.4
X6.07Y-4.4
X6.1164Y-3.61
T4
X5.43Y-3.01
X5.43Y-3.11
X5.43Y-3.21
X5.43Y-3.31
X5.43Y-3.41
X5.43Y-3.51
X5.43Y-3.61
X5.43Y-3.71
X5.43Y-3.81
X5.43Y-3.91
X5.43Y-4.01
X5.43Y-4.11
X5.43Y-4.21
X5.43Y-4.31
X5.43Y-4.41
X5.43Y-4.51
X6.23Y-3.41
X6.23Y-3.51
X6.23Y-3.61
X6.23Y-3.71
X6.23Y-3.81
X6.23Y-3.91
X6.23Y-4.01
X6.23Y-4.11
X6.23Y-4.21
X6.23Y-4.31
X6.23Y-4.41
X6.23Y-4.51
X6.23Y-4.66
X6.23Y-4.76
T3
G00X5.6599Y-4.7738
M15
G01X5.6599Y-4.8171
M16
G05
G00X5.6599Y-4.9443
M15
G01X5.6599Y-4.9757
M16
G05
G00X6.0001Y-4.7738
M15
G01X6.0001Y-4.8171
M16
G05
G00X6.0001Y-4.9443
M15
G01X6.0001Y-4.9757
M16
G05
T0
M30
